{
.formatVersion = 3;
axes = (
{
name = Weight;
tag = wght;
}
);
familyName = "Spartan TT";
customParameters = (
{
name = glyphOrder;
value = (
.notdef,
NULL,
CR,
space,
A,
Aacute,
Abreve,
Acircumflex,
Adieresis,
Agrave,
Amacron,
Aogonek,
Aring,
Atilde,
AE,
B,
C,
Cacute,
Ccaron,
Ccedilla,
Cdotaccent,
D,
Eth,
Dcaron,
Dcroat,
E,
Eacute,
Ecaron,
Ecircumflex,
Edieresis,
Edotaccent,
Egrave,
Emacron,
Eogonek,
F,
G,
Gbreve,
Gcommaaccent,
Gdotaccent,
H,
Hbar,
I,
Iacute,
Icircumflex,
Idieresis,
Idotaccent,
Igrave,
Imacron,
Iogonek,
J,
K,
Kcommaaccent,
L,
Lacute,
Lcaron,
Lcommaaccent,
Lslash,
M,
N,
Nacute,
Ncaron,
Ncommaaccent,
Eng,
Ntilde,
O,
Oacute,
Ocircumflex,
Odieresis,
Ograve,
Ohungarumlaut,
Omacron,
Oslash,
Otilde,
OE,
P,
Thorn,
Q,
R,
Racute,
Rcaron,
Rcommaaccent,
S,
Sacute,
Scaron,
Scedilla,
Scommaaccent,
Germandbls,
T,
Tbar,
Tcaron,
Tcedilla,
Tcommaaccent,
U,
Uacute,
Ucircumflex,
Udieresis,
Ugrave,
Uhungarumlaut,
Umacron,
Uogonek,
Uring,
V,
W,
Wacute,
Wcircumflex,
Wdieresis,
Wgrave,
X,
Y,
Yacute,
Ycircumflex,
Ydieresis,
Ygrave,
Z,
Zacute,
Zcaron,
Zdotaccent,
M.ss01,
a,
aacute,
abreve,
acircumflex,
adieresis,
agrave,
amacron,
aogonek,
aring,
atilde,
ae,
b,
c,
cacute,
ccaron,
ccedilla,
cdotaccent,
d,
eth,
dcaron,
dcroat,
e,
eacute,
ecaron,
ecircumflex,
edieresis,
edotaccent,
egrave,
emacron,
eogonek,
f,
g,
gbreve,
gcommaaccent,
gdotaccent,
h,
hbar,
i,
idotless,
iacute,
icircumflex,
idieresis,
idotaccent,
igrave,
imacron,
iogonek,
j,
k,
kcommaaccent,
l,
lacute,
lcaron,
lcommaaccent,
lslash,
m,
n,
nacute,
ncaron,
ncommaaccent,
eng,
ntilde,
o,
oacute,
ocircumflex,
odieresis,
ograve,
ohungarumlaut,
omacron,
oslash,
otilde,
oe,
p,
thorn,
q,
r,
racute,
rcaron,
rcommaaccent,
s,
sacute,
scaron,
scedilla,
scommaaccent,
germandbls,
t,
tbar,
tcaron,
tcedilla,
tcommaaccent,
u,
uacute,
ucircumflex,
udieresis,
ugrave,
uhungarumlaut,
umacron,
uogonek,
uring,
v,
w,
wacute,
wcircumflex,
wdieresis,
wgrave,
x,
y,
yacute,
ycircumflex,
ydieresis,
ygrave,
z,
zacute,
zcaron,
zdotaccent,

glyphs = (
{
color = (153, 255, 154, 255);
glyphname = A;
layers = (
{
anchors = (
{
name = bottom;
position = "{835, 0}";
},
{
name = ogonek;
position = "{1711, 0}";
},
{
name = top;
position = "{835, 1650}";
}
);
hints = (
{
horizontal = 1;
origin = (0,6);
target = down;
type = TopGhost;
},
{
horizontal = 1;
origin = (0,1);
target = (1,2);
type = Stem;
},
{
horizontal = 1;
origin = (0,7);
target = up;
type = BottomGhost;
}
);
layerId = "0219FCCD-76EF-4311-8338-E1F0504E85BF";
shapes = (
{
closed = 1;
nodes = (
(433,0,l),
(532,274,l,{name = ._.2631285329728;}),
(1138,274,l),
(1237,0,l),
(1711,0,l),
(1039,1650,l),
(631,1650,l,{name = ._.2631285331568;}),
(-41,0,l,{name = ._.2631285333888;})
);
},
{
closed = 1;
nodes = (
(835,1052,l),
(988,660,l),
(682,660,l,{name = ._.2631285333808;})
);
}
);
width = 1670;
},
{
anchors = (
{
name = bottom;
position = "{833, 0}";
},
{
name = ogonek;
position = "{1675, 0}";
},
{
name = top;
position = "{833, 1650}";
}
);
hints = (
{
horizontal = 1;
origin = (0,6);
target = down;
type = TopGhost;
},
{
horizontal = 1;
origin = (0,1);
target = (1,2);
type = Stem;
},
{
horizontal = 1;
origin = (0,7);
target = up;
type = BottomGhost;
}
);
layerId = "EF133E1C-A42C-4162-B993-78888479ABEC";
shapes = (
{
closed = 1;
nodes = (
(397,0,l),
(519,330,l,{name = ._.2631285334848;}),
(1147,330,l),
(1269,0,l),
(1675,0,l),
(1007,1650,l),
(658,1650,l,{name = ._.2631285339328;}),
(-9,0,l,{name = ._.2631285336928;})
);
},
{
closed = 1;
nodes = (
(833,1140,l),
(1019,660,l),
(647,660,l,{name = ._.2631285338768;})
);
}
);
width = 1667;
},
{
anchors = (
{
name = bottom;
position = "{832, 0}";
},
{
name = ogonek;
position = "{1637, 0}";
},
{
name = top;
position = "{832, 1650}";
}
);
hints = (
{
horizontal = 1;
origin = (0,6);
target = down;
type = TopGhost;
},
{
horizontal = 1;
origin = (0,1);
target = (1,2);
type = Stem;
},
{
horizontal = 1;
origin = (0,7);
target = up;
type = BottomGhost;
}
);
layerId = "11DBA8EB-E381-4810-A5CC-CC1A00595979";
shapes = (
{
closed = 1;
nodes = (
(359,0,l),
(505,389,l,{name = ._.2631285338528;}),
(1159,389,l),
(1305,0,l),
(1637,0,l),
(974,1650,l),
(690,1650,l,{name = ._.2631285335168;}),
(27,0,l,{name = ._.2631285335488;})
);
},
{
closed = 1;
nodes = (
(832,1234,l),
(1053,660,l),
(611,660,l,{name = ._.2631285341408;})
);
}
);
width = 1664;
},
{
anchors = (
{
name = bottom;
position = "{830, 0}";
},
{
name = ogonek;
position = "{1603, 0}";
},
{
name = top;
position = "{830, 1650}";
}
);
hints = (
{
horizontal = 1;
origin = (0,6);
target = down;
type = TopGhost;
},
{
horizontal = 1;
origin = (0,1);
target = (1,2);
type = Stem;
},
{
horizontal = 1;
origin = (0,7);
target = up;
type = BottomGhost;
}
);
layerId = "226AFDD0-2700-445C-A4CF-7C4B26695C22";
shapes = (
{
closed = 1;
nodes = (
(327,0,l),
(493,440,l,{name = ._.2631285341968;}),
(1167,440,l),
(1333,0,l),
(1603,0,l),
(945,1650,l),
(715,1650,l,{name = ._.2631285339728;}),
(57,0,l,{name = ._.2631285341728;})
);
},
{
closed = 1;
nodes = (
(830,1314,l),
(1081,660,l),
(579,660,l,{name = ._.2631285344288;})
);
}
);
width = 1661;
},
{
anchors = (
{
name = bottom;
position = "{829, 0}";
},
{
name = ogonek;
position = "{1578, 0}";
},
{
name = top;
position = "{829, 1650}";
}
);
hints = (
{
horizontal = 1;
origin = (0,6);
target = down;
type = TopGhost;
},
{
horizontal = 1;
origin = (0,1);
target = (1,2);
type = Stem;
},
{
horizontal = 1;
origin = (0,7);
target = up;
type = BottomGhost;
}
);
layerId = "8E8E586A-81E9-433C-8BD9-4265646900C1";
shapes = (
{
closed = 1;
nodes = (
(301,0,l),
(484,480,l,{name = ._.2631285348848;}),
(1175,480,l),
(1358,0,l),
(1578,0,l),
(924,1650,l),
(735,1650,l,{name = ._.2631285347568;}),
(81,0,l,{name = ._.2631285344768;})
);
},
{
closed = 1;
nodes = (
(829,1378,l),
(1105,660,l),
(554,660,l,{name = ._.2631285346848;})
);
}
);
width = 1659;
},
{
anchors = (
{
name = bottom;
position = "{828, 0}";
},
{
name = ogonek;
position = "{1545, 0}";
},
{
name = top;
position = "{828, 1650}";
}
);
hints = (
{
horizontal = 1;
origin = (0,6);
target = down;
type = TopGhost;
},
{
horizontal = 1;
origin = (0,1);
target = (1,2);
type = Stem;
},
{
horizontal = 1;
origin = (0,7);
target = up;
type = BottomGhost;
}
);
layerId = "24B4D503-66A8-4B4A-943D-7DAB8AE883B0";
shapes = (
{
closed = 1;
nodes = (
(268,0,l),
(472,531,l,{name = ._.2631285346528;}),
(1184,531,l),
(1388,0,l),
(1545,0,l),
(896,1650,l),
(760,1650,l,{name = ._.2631285346128;}),
(111,0,l,{name = ._.2631285346368;})
);
},
{
closed = 1;
nodes = (
(828,1458,l),
(1134,660,l),
(522,660,l,{name = ._.2631285349968;})
);
}
);
width = 1656;
},
{
anchors = (
{
name = bottom;
position = "{827, 0}";
},
{
name = ogonek;
position = "{1522, 0}";
},
{
name = top;
position = "{827, 1650}";
}
);
hints = (
{
horizontal = 1;
origin = (0,6);
target = down;
type = TopGhost;
},
{
horizontal = 1;
origin = (0,1);
target = (1,2);
type = Stem;
},
{
horizontal = 1;
origin = (0,7);
target = up;
type = BottomGhost;
}
);
layerId = "E09A619D-4294-46CA-BAB2-AF903DA4D17A";
shapes = (
{
closed = 1;
nodes = (
(246,0,l),
(464,566,l,{name = ._.2631285350448;}),
(1190,566,l),
(1408,0,l),
(1522,0,l),
(876,1650,l),
(778,1650,l,{name = ._.2631285349808;}),
(132,0,l,{name = ._.2631285353568;})
);
},
{
closed = 1;
nodes = (
(827,1513,l),
(1154,660,l),
(500,660,l,{name = ._.2631285353168;})
);
}
);
width = 1654;
},
{
anchors = (
{
name = bottom;
position = "{827, 0}";
},
{
name = ogonek;
position = "{1505, 0}";
},
{
name = top;
position = "{827, 1650}";
}
);
hints = (
{
horizontal = 1;
origin = (0,6);
target = down;
type = TopGhost;
},
{
horizontal = 1;
origin = (0,1);
target = (1,2);
type = Stem;
},
{
horizontal = 1;
origin = (0,7);
target = up;
type = BottomGhost;
}
);
layerId = "EF8C5D96-1952-40CF-ADD4-E541C160E9A9";
shapes = (
{
closed = 1;
nodes = (
(229,0,l),
(459,592,l,{name = ._.2631285354848;}),
(1195,592,l),
(1425,0,l),
(1505,0,l),
(862,1650,l),
(792,1650,l,{name = ._.2631285357328;}),
(149,0,l,{name = ._.2631285354768;})
);
},
{
closed = 1;
nodes = (
(827,1554,l),
(1169,660,l),
(485,660,l,{name = ._.2631285356208;})
);
}
);
width = 1653;
},
{
anchors = (
{
name = bottom;
position = "{826, 0}";
},
{
name = ogonek;
position = "{1494, 0}";
},
{
name = top;
position = "{826, 1650}";
}
);
hints = (
{
horizontal = 1;
origin = (0,6);
target = down;
type = TopGhost;
},
{
horizontal = 1;
origin = (0,1);
target = (1,2);
type = Stem;
},
{
horizontal = 1;
origin = (0,7);
target = up;
type = BottomGhost;
}
);
layerId = "F24CAE32-9A56-4E55-8360-BB7561E69AAD";
shapes = (
{
closed = 1;
nodes = (
(218,0,l),
(454,610,l,{name = ._.2631285359488;}),
(1198,610,l),
(1434,0,l),
(1494,0,l),
(852,1650,l),
(800,1650,l,{name = ._.2631285357968;}),
(158,0,l,{name = ._.2631285358128;})
);
},
{
closed = 1;
nodes = (
(826,1582,l),
(1179,660,l),
(473,660,l,{name = ._.2631285364368;})
);
}
);
width = 1652;
}
);
unicode = 65;
},
{
color = (153, 255, 154, 255);
glyphname = AE;
leftMetricsKey = A;
rightMetricsKey = E;
layers = (
{
hints = (
{
horizontal = 1;
origin = (1,3);
target = (0,2);
type = Stem;
},
{
horizontal = 1;
origin = (1,1);
target = up;
type = BottomGhost;
},
{
horizontal = 1;
origin = (1,13);
target = (1,0);
type = Stem;
},
{
horizontal = 1;
origin = (1,9);
target = (1,12);
type = Stem;
},
{
horizontal = 1;
origin = (1,5);
target = (1,8);
type = Stem;
},
{
origin = (0,0);
target = (1,13);
type = Stem;
}
);
layerId = "0219FCCD-76EF-4311-8338-E1F0504E85BF";
shapes = (
{
closed = 1;
nodes = (
(835,1052,l,{name = ._.2631338265696;}),
(835,660,l),
(682,660,l,{name = ._.2631338268576;})
);
},
{
closed = 1;
nodes = (
(631,1650,l,{name = ._.2631338261056;}),
(-41,0,l,{name = ._.2631338261136;}),
(433,0,l),
(532,274,l,{name = ._.2631338261216;}),
(835,274,l),
(835,0,l,{name = ._.2631338262096;}),
(1811,0,l),
(1811,386,l),
(1275,386,l,{name = ._.2631338260256;}),
(1275,634,l,{name = ._.2631338261536;}),
(1787,634,l),
(1787,1020,l),
(1275,1020,l,{name = ._.2631338262336;}),
(1275,1264,l,{name = ._.2631338262496;}),
(1811,1264,l),
(1811,1650,l)
);
}
);
width = 1979;
},
{
hints = (
{
horizontal = 1;
origin = (1,3);
target = (0,2);
type = Stem;
},
{
horizontal = 1;
origin = (1,1);
target = up;
type = BottomGhost;
},
{
horizontal = 1;
origin = (1,13);
target = (1,0);
type = Stem;
},
{
horizontal = 1;
origin = (1,9);
target = (1,12);
type = Stem;
},
{
horizontal = 1;
origin = (1,5);
target = (1,8);
type = Stem;
},
{
origin = (0,0);
target = (1,13);
type = Stem;
}
);
layerId = "EF133E1C-A42C-4162-B993-78888479ABEC";
shapes = (
{
closed = 1;
nodes = (
(833,1140,l,{name = ._.2631338271216;}),
(833,660,l),
(646,660,l,{name = ._.2631338270656;})
);
},
{
closed = 1;
nodes = (
(658,1650,l,{name = ._.2631338266336;}),
(-9,0,l,{name = ._.2631338267936;}),
(396,0,l),
(518,330,l,{name = ._.2631338267216;}),
(833,330,l),
(833,0,l,{name = ._.2631338267376;}),
(1777,0,l),
(1777,330,l),
(1209,330,l,{name = ._.2631338268016;}),
(1209,662,l,{name = ._.2631338268096;}),
(1753,662,l),
(1753,992,l),
(1209,992,l,{name = ._.2631338273056;}),
(1209,1320,l,{name = ._.2631338269216;}),
(1777,1320,l),
(1777,1650,l)
);
}
);
width = 1946;
},
{
hints = (
{
horizontal = 1;
origin = (1,3);
target = (0,2);
type = Stem;
},
{
horizontal = 1;
origin = (1,1);
target = up;
type = BottomGhost;
},
{
horizontal = 1;
origin = (1,13);
target = (1,0);
type = Stem;
},
{
horizontal = 1;
origin = (1,9);
target = (1,12);
type = Stem;
},
{
horizontal = 1;
origin = (1,5);
target = (1,8);
type = Stem;
},
{
origin = (0,0);
target = (1,13);
type = Stem;
}
);
layerId = "11DBA8EB-E381-4810-A5CC-CC1A00595979";
shapes = (
{
closed = 1;
nodes = (
(832,1235,l,{name = ._.2631338274656;}),
(832,661,l),
(610,661,l,{name = ._.2631338274096;})
);
},
{
closed = 1;
nodes = (
(689,1651,l,{name = ._.2631338272336;}),
(27,0,l,{name = ._.2631338272656;}),
(359,0,l),
(505,390,l,{name = ._.2631338272816;}),
(832,390,l),
(832,0,l,{name = ._.2631338273376;}),
(1742,0,l),
(1742,271,l),
(1140,271,l,{name = ._.2631338274816;}),
(1140,692,l,{name = ._.2631338276416;}),
(1718,692,l),
(1718,963,l),
(1140,963,l,{name = ._.2631338276896;}),
(1140,1380,l,{name = ._.2631338279136;}),
(1742,1380,l),
(1742,1651,l)
);
}
);
width = 1913;
},
{
hints = (
{
horizontal = 1;
origin = (1,3);
target = (0,2);
type = Stem;
},
{
horizontal = 1;
origin = (1,1);
target = up;
type = BottomGhost;
},
{
horizontal = 1;
origin = (1,13);
target = (1,0);
type = Stem;
},
{
horizontal = 1;
origin = (1,9);
target = (1,12);
type = Stem;
},
{
horizontal = 1;
origin = (1,5);
target = (1,8);
type = Stem;
},
{
origin = (0,0);
target = (1,13);
type = Stem;
}
);
layerId = "226AFDD0-2700-445C-A4CF-7C4B26695C22";
shapes = (
{
closed = 1;
nodes = (
(830,1315,l,{name = ._.2631338281296;}),
(830,661,l),
(579,661,l,{name = ._.2631338280336;})
);
},
{
closed = 1;
nodes = (
(715,1651,l,{name = ._.2631338277776;}),
(57,0,l,{name = ._.2631338277856;}),
(327,0,l),
(493,441,l,{name = ._.2631338282976;}),
(830,441,l),
(830,0,l,{name = ._.2631338284176;}),
(1711,0,l),
(1711,220,l),
(1080,220,l,{name = ._.2631338279936;}),
(1080,717,l,{name = ._.2631338281936;}),
(1687,717,l),
(1687,937,l),
(1080,937,l,{name = ._.2631338283216;}),
(1080,1431,l,{name = ._.2631338281136;}),
(1711,1431,l),
(1711,1651,l)
);
}
);
width = 1883;
},
{
hints = (
{
horizontal = 1;
origin = (1,3);
target = (0,2);
type = Stem;
},
{
horizontal = 1;
origin = (1,1);
target = up;
type = BottomGhost;
},
{
horizontal = 1;
origin = (1,13);
target = (1,0);
type = Stem;
},
{
horizontal = 1;
origin = (1,9);
target = (1,12);
type = Stem;
},
{
horizontal = 1;
origin = (1,5);
target = (1,8);
type = Stem;
},
{
origin = (0,0);
target = (1,13);
type = Stem;
}
);
layerId = "8E8E586A-81E9-433C-8BD9-4265646900C1";
shapes = (
{
closed = 1;
nodes = (
(829,1378,l,{name = ._.2631338284816;}),
(829,661,l),
(554,661,l,{name = ._.2631338285456;})
);
},
{
closed = 1;
nodes = (
(735,1651,l,{name = ._.2631338286656;}),
(81,0,l,{name = ._.2631338288256;}),
(301,0,l),
(484,481,l,{name = ._.2631338288176;}),
(829,481,l),
(829,0,l,{name = ._.2631338284656;}),
(1687,0,l),
(1687,180,l),
(1033,180,l,{name = ._.2631338287536;}),
(1033,737,l,{name = ._.2631338288416;}),
(1663,737,l),
(1663,917,l),
(1033,917,l,{name = ._.2631338285536;}),
(1033,1471,l,{name = ._.2631338285936;}),
(1687,1471,l),
(1687,1651,l)
);
}
);
width = 1860;
},
{
hints = (
{
horizontal = 1;
origin = (1,3);
target = (0,2);
type = Stem;
},
{
horizontal = 1;
origin = (1,1);
target = up;
type = BottomGhost;
},
{
horizontal = 1;
origin = (1,13);
target = (1,0);
type = Stem;
},
{
horizontal = 1;
origin = (1,9);
target = (1,12);
type = Stem;
},
{
horizontal = 1;
origin = (1,5);
target = (1,8);
type = Stem;
},
{
origin = (0,0);
target = (1,13);
type = Stem;
}
);
layerId = "24B4D503-66A8-4B4A-943D-7DAB8AE883B0";
shapes = (
{
closed = 1;
nodes = (
(828,1459,l,{name = ._.2631339554720;}),
(828,661,l),
(522,661,l,{name = ._.2631339559120;})
);
},
{
closed = 1;
nodes = (
(760,1651,l,{name = ._.2631338290176;}),
(111,0,l,{name = ._.2631338289616;}),
(268,0,l),
(472,532,l,{name = ._.2631338289696;}),
(828,532,l),
(828,0,l,{name = ._.2631338289936;}),
(1657,0,l),
(1657,129,l),
(974,129,l,{name = ._.2631338290736;}),
(974,762,l,{name = ._.2631338290656;}),
(1633,762,l),
(1633,891,l),
(974,891,l,{name = ._.2631338291056;}),
(974,1522,l,{name = ._.2631338289456;}),
(1657,1522,l),
(1657,1651,l)
);
}
);
width = 1831;
},
{
hints = (
{
horizontal = 1;
origin = (1,3);
target = (0,2);
type = Stem;
},
{
horizontal = 1;
origin = (1,1);
target = up;
type = BottomGhost;
},
{
horizontal = 1;
origin = (1,13);
target = (1,0);
type = Stem;
},
{
horizontal = 1;
origin = (1,9);
target = (1,12);
type = Stem;
},
{
horizontal = 1;
origin = (1,5);
target = (1,8);
type = Stem;
},
{
origin = (0,0);
target = (1,13);
type = Stem;
}
);
layerId = "E09A619D-4294-46CA-BAB2-AF903DA4D17A";
shapes = (
{
closed = 1;
nodes = (
(827,1514,l,{name = ._.2631339560720;}),
(827,661,l),
(500,661,l,{name = ._.2631339560000;})
);
},
{
closed = 1;
nodes = (
(778,1651,l,{name = ._.2631339554800;}),
(132,0,l,{name = ._.2631339556160;}),
(246,0,l),
(464,567,l,{name = ._.2631339555520;}),
(827,567,l),
(827,0,l,{name = ._.2631339557920;}),
(1636,0,l),
(1636,94,l),
(933,94,l,{name = ._.2631339561600;}),
(933,780,l,{name = ._.2631339559280;}),
(1612,780,l),
(1612,874,l),
(933,874,l,{name = ._.2631339559360;}),
(933,1557,l,{name = ._.2631339563600;}),
(1636,1557,l),
(1636,1651,l)
);
}
);
width = 1811;
},
{
hints = (
{
horizontal = 1;
origin = (1,3);
target = (0,2);
type = Stem;
},
{
horizontal = 1;
origin = (1,1);
target = up;
type = BottomGhost;
},
{
horizontal = 1;
origin = (1,13);
target = (1,0);
type = Stem;
},
{
horizontal = 1;
origin = (1,9);
target = (1,12);
type = Stem;
},
{
horizontal = 1;
origin = (1,5);
target = (1,8);
type = Stem;
},
{
origin = (0,0);
target = (1,13);
type = Stem;
}
);
layerId = "EF8C5D96-1952-40CF-ADD4-E541C160E9A9";
shapes = (
{
closed = 1;
nodes = (
(827,1555,l,{name = ._.2631339568160;}),
(827,661,l),
(485,661,l,{name = ._.2631339569360;})
);
},
{
closed = 1;
nodes = (
(792,1651,l,{name = ._.2631339562640;}),
(149,0,l,{name = ._.2631339562720;}),
(230,0,l),
(459,593,l,{name = ._.2631339562960;}),
(827,593,l),
(827,0,l,{name = ._.2631339565200;}),
(1621,0,l),
(1621,68,l),
(903,68,l,{name = ._.2631339565280;}),
(903,793,l,{name = ._.2631339566160;}),
(1597,793,l),
(1597,861,l),
(903,861,l,{name = ._.2631339568880;}),
(903,1583,l,{name = ._.2631339568960;}),
(1621,1583,l),
(1621,1651,l)
);
}
);
width = 1797;
},
{
hints = (
{
horizontal = 1;
origin = (1,3);
target = (0,2);
type = Stem;
},
{
horizontal = 1;
origin = (1,1);
target = up;
type = BottomGhost;
},
{
horizontal = 1;
origin = (1,13);
target = (1,0);
type = Stem;
},
{
horizontal = 1;
origin = (1,9);
target = (1,12);
type = Stem;
},
{
horizontal = 1;
origin = (1,5);
target = (1,8);
type = Stem;
},
{
origin = (0,0);
target = (1,13);
type = Stem;
}
);
layerId = "F24CAE32-9A56-4E55-8360-BB7561E69AAD";
shapes = (
{
closed = 1;
nodes = (
(826,1582,l,{name = ._.2631339570560;}),
(826,660,l),
(473,660,l,{name = ._.2631339573680;})
);
},
{
closed = 1;
nodes = (
(800,1650,l,{name = ._.2631339567920;}),
(158,0,l,{name = ._.2631339574400;}),
(218,0,l),
(454,610,l,{name = ._.2631339573040;}),
(826,610,l),
(826,0,l,{name = ._.2631339572080;}),
(1610,0,l),
(1610,50,l),
(882,50,l,{name = ._.2631339573520;}),
(882,802,l,{name = ._.2631339571760;}),
(1586,802,l),
(1586,852,l),
(882,852,l,{name = ._.2631339570400;}),
(882,1600,l,{name = ._.2631339570800;}),
(1610,1600,l),
(1610,1650,l)
);
}
);
width = 1787;
}
);
unicode = 198;
},
{
color = (153, 255, 154, 255);
glyphname = B;
layers = (
{
anchors = (
{
name = bottom;
position = "{671, 0}";
},
{
name = top;
position = "{671, 1650}";
}
);
hints = (
{
horizontal = 1;
origin = (0,0);
target = (2,7);
type = Stem;
},
{
horizontal = 1;
origin = (2,1);
target = (1,7);
type = Stem;
},
{
horizontal = 1;
origin = (1,1);
target = (0,12);
type = Stem;
},
{
origin = (0,13);
target = (1,0);
type = Stem;
},
{
origin = (1,4);
target = (2,4);
type = Stem;
},
{
origin = (0,9);
target = (0,3);
type = Stem;
}
);
layerId = "0219FCCD-76EF-4311-8338-E1F0504E85BF";
shapes = (
{
closed = 1;
nodes = (
(764,0,ls,{name = ._.2631339576560;}),
(1096,0,o),
(1310,180,o),
(1310,478,cs,{name = ._.2631339577760;}),
(1310,701,o),
(1191,841,o),
(968,880,c),
(1098,953,o),
(1164,1073,o),
(1164,1236,cs,{name = ._.2631339576480;}),
(1164,1516,o),
(971,1650,o),
(656,1650,cs,{name = ._.2631339579520;}),
(98,1650,l,{name = ._.2631339575120;}),
(98,0,l)
);
},
{
closed = 1;
nodes = (
(538,1312,l,{name = ._.2631339575840;}),
(548,1312,ls,{name = ._.2631339577920;}),
(679,1312,o),
(738,1269,o),
(738,1176,cs,{name = ._.2631339582560;}),
(738,1082,o),
(672,1032,o),
(548,1032,cs,{name = ._.2631339584800;}),
(538,1032,l)
);
},
{
closed = 1;
nodes = (
(538,654,l),
(606,654,ls,{name = ._.2631339576720;}),
(764,654,o),
(846,598,o),
(846,492,cs,{name = ._.2631339577600;}),
(846,386,o),
(771,338,o),
(606,338,cs,{name = ._.2631339575920;}),
(538,338,l)
);
}
);
width = 1342;
},
{
anchors = (
{
name = bottom;
position = "{665, 0}";
},
{
name = top;
position = "{665, 1650}";
}
);
hints = (
{
horizontal = 1;
origin = (0,0);
target = (2,7);
type = Stem;
},
{
horizontal = 1;
origin = (2,1);
target = (1,7);
type = Stem;
},
{
horizontal = 1;
origin = (1,1);
target = (0,12);
type = Stem;
},
{
origin = (0,13);
target = (1,0);
type = Stem;
},
{
origin = (1,4);
target = (2,4);
type = Stem;
},
{
origin = (0,9);
target = (0,3);
type = Stem;
}
);
layerId = "EF133E1C-A42C-4162-B993-78888479ABEC";
shapes = (
{
closed = 1;
nodes = (
(746,0,ls,{name = ._.2631339580160;}),
(1077,0,o),
(1286,176,o),
(1286,470,cs,{name = ._.2631339583280;}),
(1286,696,o),
(1163,838,o),
(934,876,c),
(1070,947,o),
(1140,1069,o),
(1140,1236,cs,{name = ._.2631339582000;}),
(1140,1513,o),
(948,1650,o),
(632,1650,cs,{name = ._.2631339581600;}),
(120,1650,l,{name = ._.2631339581760;}),
(120,0,l)
);
},
{
closed = 1;
nodes = (
(496,1360,l,{name = ._.2631339585760;}),
(542,1360,ls,{name = ._.2631339586240;}),
(700,1360,o),
(776,1302,o),
(776,1185,cs,{name = ._.2631339589440;}),
(776,1069,o),
(694,1005,o),
(542,1005,cs,{name = ._.2631339585120;}),
(496,1005,l)
);
},
{
closed = 1;
nodes = (
(496,681,l),
(614,681,ls,{name = ._.2631339585920;}),
(794,681,o),
(890,610,o),
(890,481,cs,{name = ._.2631339589360;}),
(890,353,o),
(800,290,o),
(614,290,cs,{name = ._.2631339586160;}),
(496,290,l)
);
}
);
width = 1332;
},
{
anchors = (
{
name = bottom;
position = "{660, 0}";
},
{
name = top;
position = "{660, 1650}";
}
);
hints = (
{
horizontal = 1;
origin = (0,0);
target = (2,7);
type = Stem;
},
{
horizontal = 1;
origin = (2,1);
target = (1,7);
type = Stem;
},
{
horizontal = 1;
origin = (1,1);
target = (0,12);
type = Stem;
},
{
origin = (0,13);
target = (1,0);
type = Stem;
},
{
origin = (1,4);
target = (2,4);
type = Stem;
},
{
origin = (0,9);
target = (0,3);
type = Stem;
}
);
layerId = "11DBA8EB-E381-4810-A5CC-CC1A00595979";
shapes = (
{
closed = 1;
nodes = (
(728,0,ls,{name = ._.2631339590720;}),
(1056,0,o),
(1261,172,o),
(1261,461,cs,{name = ._.2631339594800;}),
(1261,690,o),
(1132,835,o),
(899,871,c),
(1041,941,o),
(1114,1065,o),
(1114,1235,cs,{name = ._.2631339590400;}),
(1114,1510,o),
(924,1650,o),
(607,1650,cs,{name = ._.2631339592160;}),
(144,1650,l,{name = ._.2631339594080;}),
(144,0,l)
);
},
{
closed = 1;
nodes = (
(452,1411,l,{name = ._.2631339590080;}),
(536,1411,ls,{name = ._.2631339594640;}),
(722,1411,o),
(817,1338,o),
(817,1195,cs,{name = ._.2631339590160;}),
(817,1054,o),
(718,976,o),
(536,976,cs,{name = ._.2631339591360;}),
(452,976,l)
);
},
{
closed = 1;
nodes = (
(452,709,l),
(624,709,ls,{name = ._.2631339594560;}),
(826,709,o),
(938,623,o),
(938,470,cs,{name = ._.2631339590240;}),
(938,318,o),
(831,239,o),
(624,239,cs,{name = ._.2631339591680;}),
(452,239,l)
);
}
);
width = 1321;
},
{
anchors = (
{
name = bottom;
position = "{656, 0}";
},
{
name = top;
position = "{656, 1650}";
}
);
hints = (
{
horizontal = 1;
origin = (0,0);
target = (2,7);
type = Stem;
},
{
horizontal = 1;
origin = (2,1);
target = (1,7);
type = Stem;
},
{
horizontal = 1;
origin = (1,1);
target = (0,12);
type = Stem;
},
{
origin = (0,13);
target = (1,0);
type = Stem;
},
{
origin = (1,4);
target = (2,4);
type = Stem;
},
{
origin = (0,9);
target = (0,3);
type = Stem;
}
);
layerId = "226AFDD0-2700-445C-A4CF-7C4B26695C22";
shapes = (
{
closed = 1;
nodes = (
(712,0,ls,{name = ._.2631339599360;}),
(1038,0,o),
(1239,169,o),
(1239,454,cs,{name = ._.2631339598640;}),
(1239,685,o),
(1106,832,o),
(869,867,c),
(1016,936,o),
(1092,1061,o),
(1092,1234,cs,{name = ._.2631339599680;}),
(1092,1507,o),
(904,1650,o),
(585,1650,cs,{name = ._.2631339595600;}),
(164,1650,l,{name = ._.2631339598400;}),
(164,0,l)
);
},
{
closed = 1;
nodes = (
(414,1455,l,{name = ._.2631339601680;}),
(530,1455,ls,{name = ._.2631339602560;}),
(741,1455,o),
(852,1368,o),
(852,1204,cs,{name = ._.2631339601920;}),
(852,1041,o),
(738,951,o),
(530,951,cs,{name = ._.2631339601760;}),
(414,951,l)
);
},
{
closed = 1;
nodes = (
(414,733,l),
(632,733,ls,{name = ._.2631339598000;}),
(853,733,o),
(979,634,o),
(979,461,cs,{name = ._.2631339596160;}),
(979,289,o),
(858,196,o),
(632,196,cs,{name = ._.2631339599200;}),
(414,196,l)
);
}
);
width = 1312;
},
{
anchors = (
{
name = bottom;
position = "{653, 0}";
},
{
name = top;
position = "{653, 1650}";
}
);
hints = (
{
horizontal = 1;
origin = (0,0);
target = (2,7);
type = Stem;
},
{
horizontal = 1;
origin = (2,1);
target = (1,7);
type = Stem;
},
{
horizontal = 1;
origin = (1,1);
target = (0,12);
type = Stem;
},
{
origin = (0,13);
target = (1,0);
type = Stem;
},
{
origin = (1,4);
target = (2,4);
type = Stem;
},
{
origin = (0,9);
target = (0,3);
type = Stem;
}
);
layerId = "8E8E586A-81E9-433C-8BD9-4265646900C1";
shapes = (
{
closed = 1;
nodes = (
(699,0,ls,{name = ._.2631339604560;}),
(1024,0,o),
(1222,167,o),
(1222,448,cs,{name = ._.2631339604960;}),
(1222,681,o),
(1086,829,o),
(845,864,c),
(996,931,o),
(1075,1058,o),
(1075,1234,cs,{name = ._.2631339609840;}),
(1075,1505,o),
(887,1650,o),
(567,1650,cs,{name = ._.2631339607360;}),
(180,1650,l,{name = ._.2631339607280;}),
(180,0,l)
);
},
{
closed = 1;
nodes = (
(384,1490,l,{name = ._.2631339610160;}),
(526,1490,ls,{name = ._.2631339609360;}),
(755,1490,o),
(879,1392,o),
(879,1211,cs,{name = ._.2631339606560;}),
(879,1031,o),
(753,931,o),
(526,931,cs,{name = ._.2631339606320;}),
(384,931,l)
);
},
{
closed = 1;
nodes = (
(384,752,l),
(638,752,ls,{name = ._.2631339608320;}),
(874,752,o),
(1011,643,o),
(1011,454,cs,{name = ._.2631339608560;}),
(1011,266,o),
(878,162,o),
(638,162,cs,{name = ._.2631339609120;}),
(384,162,l)
);
}
);
width = 1305;
},
{
anchors = (
{
name = bottom;
position = "{647, 0}";
},
{
name = top;
position = "{647, 1650}";
}
);
hints = (
{
horizontal = 1;
origin = (0,0);
target = (2,7);
type = Stem;
},
{
horizontal = 1;
origin = (2,1);
target = (1,7);
type = Stem;
},
{
horizontal = 1;
origin = (1,1);
target = (0,12);
type = Stem;
},
{
origin = (0,13);
target = (1,0);
type = Stem;
},
{
origin = (1,4);
target = (2,4);
type = Stem;
},
{
origin = (0,9);
target = (0,3);
type = Stem;
}
);
layerId = "24B4D503-66A8-4B4A-943D-7DAB8AE883B0";
shapes = (
{
closed = 1;
nodes = (
(683,0,ls,{name = ._.2631339614960;}),
(1006,0,o),
(1199,164,o),
(1199,441,cs,{name = ._.2631339613600;}),
(1199,675,o),
(1060,826,o),
(815,860,c),
(971,926,o),
(1053,1054,o),
(1053,1233,cs,{name = ._.2631339612640;}),
(1053,1503,o),
(867,1651,o),
(545,1651,cs,{name = ._.2631339615280;}),
(200,1651,l,{name = ._.2631339613920;}),
(200,0,l)
);
},
{
closed = 1;
nodes = (
(346,1534,l,{name = ._.2631339614480;}),
(521,1534,ls,{name = ._.2631339611040;}),
(774,1534,o),
(914,1422,o),
(914,1219,cs,{name = ._.2631339612800;}),
(914,1018,o),
(773,906,o),
(521,906,cs,{name = ._.2631339611600;}),
(346,906,l)
);
},
{
closed = 1;
nodes = (
(346,776,l),
(646,776,ls,{name = ._.2631339615360;}),
(902,776,o),
(1051,654,o),
(1051,445,cs,{name = ._.2631339614160;}),
(1051,237,o),
(905,119,o),
(646,119,cs,{name = ._.2631339610560;}),
(346,119,l)
);
}
);
width = 1296;
},
{
anchors = (
{
name = bottom;
position = "{644, 0}";
},
{
name = top;
position = "{644, 1650}";
}
);
hints = (
{
horizontal = 1;
origin = (0,0);
target = (2,7);
type = Stem;
},
{
horizontal = 1;
origin = (2,1);
target = (1,7);
type = Stem;
},
{
horizontal = 1;
origin = (1,1);
target = (0,12);
type = Stem;
},
{
origin = (0,13);
target = (1,0);
type = Stem;
},
{
origin = (1,4);
target = (0,9);
type = Stem;
},
{
origin = (2,4);
target = (0,3);
type = Stem;
}
);
layerId = "E09A619D-4294-46CA-BAB2-AF903DA4D17A";
shapes = (
{
closed = 1;
nodes = (
(672,0,ls,{name = ._.2631339616720;}),
(993,0,o),
(1184,161,o),
(1184,436,cs,{name = ._.2631339617760;}),
(1184,672,o),
(1042,824,o),
(794,858,c),
(954,922,o),
(1038,1052,o),
(1038,1233,cs,{name = ._.2631339619040;}),
(1038,1501,o),
(853,1651,o),
(530,1651,cs,{name = ._.2631339618240;}),
(214,1651,l,{name = ._.2631339619840;}),
(214,0,l)
);
},
{
closed = 1;
nodes = (
(320,1564,l,{name = ._.2631339623760;}),
(517,1564,ls,{name = ._.2631339620960;}),
(787,1564,o),
(938,1443,o),
(938,1225,cs,{name = ._.2631339623200;}),
(938,1010,o),
(787,889,o),
(517,889,cs,{name = ._.2631339623920;}),
(320,889,l)
);
},
{
closed = 1;
nodes = (
(320,793,l),
(651,793,ls,{name = ._.2631339620480;}),
(921,793,o),
(1079,662,o),
(1079,438,cs,{name = ._.2631339622400;}),
(1079,216,o),
(923,89,o),
(651,89,cs,{name = ._.2631339623040;}),
(320,89,l)
);
}
);
width = 1290;
},
{
anchors = (
{
name = bottom;
position = "{642, 0}";
},
{
name = top;
position = "{642, 1650}";
}
);
hints = (
{
horizontal = 1;
origin = (0,0);
target = (2,7);
type = Stem;
},
{
horizontal = 1;
origin = (2,1);
target = (1,7);
type = Stem;
},
{
horizontal = 1;
origin = (1,1);
target = (0,12);
type = Stem;
},
{
origin = (0,13);
target = (1,0);
type = Stem;
},
{
origin = (1,4);
target = (0,9);
type = Stem;
},
{
origin = (2,4);
target = (0,3);
type = Stem;
}
);
layerId = "EF8C5D96-1952-40CF-ADD4-E541C160E9A9";
shapes = (
{
closed = 1;
nodes = (
(664,0,ls,{name = ._.2631339627120;}),
(984,0,o),
(1173,160,o),
(1173,433,cs,{name = ._.2631339630400;}),
(1173,670,o),
(1029,823,o),
(778,856,c),
(941,919,o),
(1027,1050,o),
(1027,1232,cs,{name = ._.2631339627520;}),
(1027,1499,o),
(842,1650,o),
(519,1650,cs,{name = ._.2631339627040;}),
(225,1650,l,{name = ._.2631339625920;}),
(225,0,l)
);
},
{
closed = 1;
nodes = (
(301,1586,l,{name = ._.2631339628880;}),
(514,1586,ls,{name = ._.2631339630880;}),
(797,1586,o),
(956,1458,o),
(956,1229,cs,{name = ._.2631339629840;}),
(956,1003,o),
(798,876,o),
(514,876,cs,{name = ._.2631339629680;}),
(301,876,l)
);
},
{
closed = 1;
nodes = (
(301,806,l),
(655,806,ls,{name = ._.2631339629920;}),
(935,806,o),
(1100,668,o),
(1100,433,cs,{name = ._.2631339628960;}),
(1100,201,o),
(937,67,o),
(655,67,cs,{name = ._.2631339630480;}),
(301,67,l)
);
}
);
width = 1285;
},
{
anchors = (
{
name = bottom;
position = "{641, 0}";
},
{
name = top;
position = "{641, 1650}";
}
);
hints = (
{
horizontal = 1;
origin = (0,0);
target = (2,7);
type = Stem;
},
{
horizontal = 1;
origin = (2,1);
target = (1,7);
type = Stem;
},
{
horizontal = 1;
origin = (1,1);
target = (0,12);
type = Stem;
},
{
origin = (0,13);
target = (1,0);
type = Stem;
},
{
origin = (1,4);
target = (0,9);
type = Stem;
},
{
origin = (2,4);
target = (0,3);
type = Stem;
}
);
layerId = "F24CAE32-9A56-4E55-8360-BB7561E69AAD";
shapes = (
{
closed = 1;
nodes = (
(658,0,ls,{name = ._.2631339630960;}),
(978,0,o),
(1166,159,o),
(1166,430,cs,{name = ._.2631339631040;}),
(1166,668,o),
(1021,822,o),
(768,854,c),
(932,917,o),
(1020,1049,o),
(1020,1232,cs,{name = ._.2631339633760;}),
(1020,1498,o),
(835,1650,o),
(512,1650,cs,{name = ._.2631339631120;}),
(232,1650,l,{name = ._.2631339631680;}),
(232,0,l)
);
},
{
closed = 1;
nodes = (
(288,1601,l,{name = ._.2631339634640;}),
(512,1601,ls,{name = ._.2631339635440;}),
(803,1601,o),
(968,1468,o),
(968,1232,cs,{name = ._.2631339640480;}),
(968,998,o),
(805,867,o),
(512,867,cs,{name = ._.2631339640960;}),
(288,867,l)
);
},
{
closed = 1;
nodes = (
(288,814,l),
(658,814,ls,{name = ._.2631339633440;}),
(944,814,o),
(1114,671,o),
(1114,430,cs,{name = ._.2631339635280;}),
(1114,191,o),
(946,52,o),
(658,52,cs,{name = ._.2631339634320;}),
(288,52,l)
);
}
);
width = 1282;
}
);
unicode = 66;
},
{
color = (153, 255, 154, 255);
glyphname = C;
layers = (
{
anchors = (
{
name = bottom;
position = "{831, 0}";
},
{
name = top;
position = "{831, 1650}";
},
{
name = cedilla;
position = "{871, 0}";
}
);
hints = (
{
horizontal = 1;
origin = (0,2);
target = (0,9);
type = Stem;
},
{
horizontal = 1;
origin = (0,15);
target = (0,22);
type = Stem;
},
{
origin = (0,25);
target = (0,12);
type = Stem;
}
);
layerId = "0219FCCD-76EF-4311-8338-E1F0504E85BF";
shapes = (
{
closed = 1;
nodes = (
(56,351,o),
(435,-32,o),
(951,-32,cs,{name = ._.2631339643360;}),
(1151,-32,o),
(1347,30,o),
(1472,114,c),
(1262,474,l),
(1190,428,o),
(1084,400,o),
(980,400,cs,{name = ._.2631339644000;}),
(694,400,o),
(532,581,o),
(532,825,cs,{name = ._.2631339644160;}),
(532,1067,o),
(694,1248,o),
(980,1248,cs,{name = ._.2631339643920;}),
(1084,1248,o),
(1190,1220,o),
(1262,1174,c),
(1472,1534,l),
(1347,1618,o),
(1151,1680,o),
(951,1680,cs,{name = ._.2631339645840;}),
(435,1680,o),
(56,1297,o),
(56,824,cs,{name = ._.2631339639840;})
);
}
);
width = 1476;
},
{
anchors = (
{
name = bottom;
position = "{850, 0}";
},
{
name = cedilla;
position = "{885, 0}";
},
{
name = left;
position = "{1041, 0}";
},
{
name = top;
position = "{850, 1650}";
}
);
hints = (
{
horizontal = 1;
origin = (0,2);
target = (0,9);
type = Stem;
},
{
horizontal = 1;
origin = (0,15);
target = (0,22);
type = Stem;
},
{
origin = (0,25);
target = (0,12);
type = Stem;
}
);
layerId = "EF133E1C-A42C-4162-B993-78888479ABEC";
shapes = (
{
closed = 1;
nodes = (
(72,349,o),
(447,-32,o),
(960,-32,cs,{name = ._.2631339642000;}),
(1161,-32,o),
(1355,30,o),
(1483,119,c),
(1302,427,l),
(1221,370,o),
(1103,337,o),
(984,337,cs,{name = ._.2631339649440;}),
(668,337,o),
(479,547,o),
(479,825,cs,{name = ._.2631339650720;}),
(479,1101,o),
(668,1311,o),
(984,1311,cs,{name = ._.2631339648480;}),
(1103,1311,o),
(1221,1278,o),
(1302,1221,c),
(1483,1529,l),
(1355,1618,o),
(1161,1680,o),
(960,1680,cs,{name = ._.2631339648560;}),
(447,1680,o),
(72,1299,o),
(72,824,cs,{name = ._.2631339641440;})
);
}
);
width = 1505;
},
{
anchors = (
{
name = bottom;
position = "{871, 0}";
},
{
name = cedilla;
position = "{899, 0}";
},
{
name = left;
position = "{1041, 0}";
},
{
name = top;
position = "{871, 1650}";
}
);
hints = (
{
horizontal = 1;
origin = (0,2);
target = (0,9);
type = Stem;
},
{
horizontal = 1;
origin = (0,15);
target = (0,22);
type = Stem;
},
{
origin = (0,25);
target = (0,12);
type = Stem;
}
);
layerId = "11DBA8EB-E381-4810-A5CC-CC1A00595979";
shapes = (
{
closed = 1;
nodes = (
(88,346,o),
(460,-32,o),
(969,-32,cs,{name = ._.2631339648800;}),
(1172,-32,o),
(1363,31,o),
(1494,125,c),
(1345,377,l),
(1253,309,o),
(1123,271,o),
(989,271,cs,{name = ._.2631339652240;}),
(641,271,o),
(422,511,o),
(422,824,cs,{name = ._.2631339654080;}),
(422,1137,o),
(641,1377,o),
(989,1377,cs,{name = ._.2631339654720;}),
(1123,1377,o),
(1253,1339,o),
(1345,1271,c),
(1494,1523,l),
(1363,1617,o),
(1172,1680,o),
(969,1680,cs,{name = ._.2631339651520;}),
(460,1680,o),
(88,1302,o),
(88,824,cs,{name = ._.2631339647120;})
);
}
);
width = 1536;
},
{
anchors = (
{
name = bottom;
position = "{888, 0}";
},
{
name = cedilla;
position = "{912, 0}";
},
{
name = left;
position = "{1041, 0}";
},
{
name = top;
position = "{888, 1650}";
}
);
hints = (
{
horizontal = 1;
origin = (0,2);
target = (0,9);
type = Stem;
},
{
horizontal = 1;
origin = (0,15);
target = (0,22);
type = Stem;
},
{
origin = (0,25);
target = (0,12);
type = Stem;
}
);
layerId = "226AFDD0-2700-445C-A4CF-7C4B26695C22";
shapes = (
{
closed = 1;
nodes = (
(102,344,o),
(471,-32,o),
(977,-32,cs,{name = ._.2631339654560;}),
(1181,-32,o),
(1370,31,o),
(1504,130,c),
(1381,334,l),
(1280,257,o),
(1140,214,o),
(993,214,cs,{name = ._.2631339655440;}),
(617,214,o),
(373,480,o),
(373,824,cs,{name = ._.2631339660640;}),
(373,1168,o),
(617,1434,o),
(993,1434,cs,{name = ._.2631339659680;}),
(1140,1434,o),
(1280,1391,o),
(1381,1314,c),
(1504,1518,l),
(1370,1617,o),
(1181,1680,o),
(977,1680,cs,{name = ._.2631339658240;}),
(471,1680,o),
(102,1304,o),
(102,824,cs,{name = ._.2631339653920;})
);
}
);
width = 1563;
},
{
anchors = (
{
name = bottom;
position = "{902, 0}";
},
{
name = top;
position = "{902, 1650}";
},
{
name = cedilla;
position = "{922, 0}";
}
);
hints = (
{
horizontal = 1;
origin = (0,2);
target = (0,9);
type = Stem;
},
{
horizontal = 1;
origin = (0,15);
target = (0,22);
type = Stem;
},
{
origin = (0,25);
target = (0,12);
type = Stem;
}
);
layerId = "8E8E586A-81E9-433C-8BD9-4265646900C1";
shapes = (
{
closed = 1;
nodes = (
(113,342,o),
(480,-32,o),
(983,-32,cs,{name = ._.2631339657360;}),
(1188,-32,o),
(1376,31,o),
(1512,134,c),
(1410,300,l),
(1302,215,o),
(1154,169,o),
(996,169,cs,{name = ._.2631339658960;}),
(598,169,o),
(335,455,o),
(335,824,cs,{name = ._.2631339659040;}),
(335,1193,o),
(598,1479,o),
(996,1479,cs,{name = ._.2631339664640;}),
(1154,1479,o),
(1302,1433,o),
(1410,1348,c),
(1512,1514,l),
(1376,1617,o),
(1188,1680,o),
(983,1680,cs,{name = ._.2631339663280;}),
(480,1680,o),
(113,1306,o),
(113,824,cs,{name = ._.2631339660400;})
);
}
);
width = 1584;
},
{
anchors = (
{
name = bottom;
position = "{925, 0}";
},
{
name = cedilla;
position = "{934, 0}";
},
{
name = left;
position = "{1041, 0}";
},
{
name = top;
position = "{925, 1650}";
}
);
hints = (
{
horizontal = 1;
origin = (0,2);
target = (0,9);
type = Stem;
},
{
horizontal = 1;
origin = (0,15);
target = (0,22);
type = Stem;
},
{
origin = (0,25);
target = (0,12);
type = Stem;
}
);
layerId = "24B4D503-66A8-4B4A-943D-7DAB8AE883B0";
shapes = (
{
closed = 1;
nodes = (
(127,340,o),
(491,-32,o),
(990,-32,cs,{name = ._.2631339666640;}),
(1197,-32,o),
(1383,31,o),
(1521,139,c),
(1446,257,l),
(1329,163,o),
(1171,112,o),
(1000,112,cs,{name = ._.2631339666320;}),
(574,112,o),
(286,424,o),
(286,824,cs,{name = ._.2631339666560;}),
(286,1224,o),
(574,1536,o),
(1000,1536,cs,{name = ._.2631339662560;}),
(1171,1536,o),
(1329,1485,o),
(1446,1391,c),
(1521,1509,l),
(1383,1617,o),
(1197,1680,o),
(990,1680,cs,{name = ._.2631339670640;}),
(491,1680,o),
(127,1308,o),
(127,824,cs,{name = ._.2631339665520;})
);
}
);
width = 1611;
},
{
anchors = (
{
name = bottom;
position = "{941, 0}";
},
{
name = cedilla;
position = "{943, 0}";
},
{
name = left;
position = "{1041, 0}";
},
{
name = top;
position = "{941, 1650}";
}
);
hints = (
{
horizontal = 1;
origin = (0,2);
target = (0,9);
type = Stem;
},
{
horizontal = 1;
origin = (0,15);
target = (0,22);
type = Stem;
},
{
origin = (0,25);
target = (0,12);
type = Stem;
}
);
layerId = "E09A619D-4294-46CA-BAB2-AF903DA4D17A";
shapes = (
{
closed = 1;
nodes = (
(136,339,o),
(498,-32,o),
(995,-32,cs,{name = ._.2631339668720;}),
(1203,-32,o),
(1387,31,o),
(1528,142,c),
(1471,227,l),
(1347,127,o),
(1182,73,o),
(1002,73,cs,{name = ._.2631339671440;}),
(557,73,o),
(252,403,o),
(252,824,cs,{name = ._.2631339669280;}),
(252,1245,o),
(557,1575,o),
(1002,1575,cs,{name = ._.2631339671040;}),
(1182,1575,o),
(1347,1521,o),
(1471,1421,c),
(1528,1506,l),
(1387,1617,o),
(1203,1680,o),
(995,1680,cs,{name = ._.2631339667600;}),
(498,1680,o),
(136,1309,o),
(136,824,cs,{name = ._.2631339670320;})
);
}
);
width = 1629;
},
{
anchors = (
{
name = bottom;
position = "{953, 0}";
},
{
name = cedilla;
position = "{950, 0}";
},
{
name = left;
position = "{1041, 0}";
},
{
name = top;
position = "{953, 1650}";
}
);
hints = (
{
horizontal = 1;
origin = (0,2);
target = (0,9);
type = Stem;
},
{
horizontal = 1;
origin = (0,15);
target = (0,22);
type = Stem;
},
{
origin = (0,25);
target = (0,12);
type = Stem;
}
);
layerId = "EF8C5D96-1952-40CF-ADD4-E541C160E9A9";
shapes = (
{
closed = 1;
nodes = (
(143,338,o),
(503,-32,o),
(999,-32,cs,{name = ._.2631339672240;}),
(1207,-32,o),
(1390,31,o),
(1533,144,c),
(1490,205,l),
(1361,100,o),
(1190,44,o),
(1004,44,cs,{name = ._.2631339672560;}),
(544,44,o),
(227,387,o),
(227,824,cs,{name = ._.2631339676080;}),
(227,1261,o),
(544,1604,o),
(1004,1604,cs,{name = ._.2631339675440;}),
(1190,1604,o),
(1361,1548,o),
(1490,1443,c),
(1533,1504,l),
(1390,1617,o),
(1207,1680,o),
(999,1680,cs,{name = ._.2631339672480;}),
(503,1680,o),
(143,1310,o),
(143,824,cs,{name = ._.2631339673280;})
);
}
);
width = 1643;
},
{
anchors = (
{
name = bottom;
position = "{961, 0}";
},
{
name = top;
position = "{961, 1650}";
},
{
name = left;
position = "{1041, 0}";
}
);
hints = (
{
horizontal = 1;
origin = (0,2);
target = (0,9);
type = Stem;
},
{
horizontal = 1;
origin = (0,15);
target = (0,22);
type = Stem;
},
{
origin = (0,25);
target = (0,12);
type = Stem;
}
);
layerId = "F24CAE32-9A56-4E55-8360-BB7561E69AAD";
shapes = (
{
closed = 1;
nodes = (
(148,337,o),
(507,-32,o),
(1001,-32,cs,{name = ._.2631339681200;}),
(1210,-32,o),
(1392,31,o),
(1536,146,c),
(1502,190,l),
(1370,82,o),
(1196,24,o),
(1005,24,cs,{name = ._.2631339678960;}),
(536,24,o),
(210,376,o),
(210,824,cs,{name = ._.2631339679040;}),
(210,1272,o),
(536,1624,o),
(1005,1624,cs,{name = ._.2631339681760;}),
(1196,1624,o),
(1370,1566,o),
(1502,1458,c),
(1536,1502,l),
(1392,1617,o),
(1210,1680,o),
(1001,1680,cs,{name = ._.2631339678000;}),
(507,1680,o),
(148,1311,o),
(148,824,cs,{name = ._.2631339678800;})
);
}
);
width = 1652;
}
);
unicode = 67;
},
{
color = (153, 255, 154, 255);
glyphname = D;
layers = (
{
anchors = (
{
name = bottom;
position = "{797, 0}";
},
{
name = center;
position = "{797, 825}";
},
{
name = top;
position = "{797, 1650}";
}
);
hints = (
{
horizontal = 1;
origin = (0,0);
target = (1,7);
type = Stem;
},
{
horizontal = 1;
origin = (1,1);
target = (0,6);
type = Stem;
},
{
origin = (1,4);
target = (0,3);
type = Stem;
},
{
origin = (0,7);
target = (1,0);
type = Stem;
}
);
layerId = "0219FCCD-76EF-4311-8338-E1F0504E85BF";
shapes = (
{
closed = 1;
nodes = (
(704,0,ls,{name = ._.2631340315696;}),
(1174,0,o),
(1536,360,o),
(1536,825,cs,{name = ._.2631340313776;}),
(1536,1290,o),
(1172,1650,o),
(704,1650,cs,{name = ._.2631340315216;}),
(196,1650,l,{name = ._.2631340316816;}),
(196,0,l)
);
},
{
closed = 1;
nodes = (
(636,1256,l,{name = ._.2631340314976;}),
(652,1256,ls,{name = ._.2631340317056;}),
(891,1256,o),
(1060,1078,o),
(1060,825,cs,{name = ._.2631340317376;}),
(1060,572,o),
(891,394,o),
(652,394,cs,{name = ._.2631340317136;}),
(636,394,l)
);
}
);
width = 1594;
},
{
anchors = (
{
name = bottom;
position = "{801, 0}";
},
{
name = center;
position = "{801, 825}";
},
{
name = top;
position = "{801, 1650}";
}
);
hints = (
{
horizontal = 1;
origin = (0,0);
target = (1,7);
type = Stem;
},
{
horizontal = 1;
origin = (1,1);
target = (0,6);
type = Stem;
},
{
origin = (1,4);
target = (0,3);
type = Stem;
},
{
origin = (0,7);
target = (1,0);
type = Stem;
}
);
layerId = "EF133E1C-A42C-4162-B993-78888479ABEC";
shapes = (
{
closed = 1;
nodes = (
(690,0,ls,{name = ._.2631340320496;}),
(1160,0,o),
(1522,360,o),
(1522,825,cs,{name = ._.2631340318336;}),
(1522,1290,o),
(1158,1650,o),
(690,1650,cs,{name = ._.2631340318416;}),
(212,1650,l,{name = ._.2631340318656;}),
(212,0,l)
);
},
{
closed = 1;
nodes = (
(588,1313,l,{name = ._.2631340320416;}),
(647,1313,ls,{name = ._.2631340318736;}),
(918,1313,o),
(1116,1108,o),
(1116,825,cs,{name = ._.2631340320656;}),
(1116,542,o),
(918,337,o),
(647,337,cs,{name = ._.2631340320896;}),
(588,337,l)
);
}
);
width = 1604;
},
{
anchors = (
{
name = bottom;
position = "{807, 0}";
},
{
name = center;
position = "{807, 825}";
},
{
name = top;
position = "{807, 1650}";
}
);
hints = (
{
horizontal = 1;
origin = (0,0);
target = (1,7);
type = Stem;
},
{
horizontal = 1;
origin = (1,1);
target = (0,6);
type = Stem;
},
{
origin = (1,4);
target = (0,3);
type = Stem;
},
{
origin = (0,7);
target = (1,0);
type = Stem;
}
);
layerId = "11DBA8EB-E381-4810-A5CC-CC1A00595979";
shapes = (
{
closed = 1;
nodes = (
(675,0,ls,{name = ._.2631340324496;}),
(1145,0,o),
(1507,360,o),
(1507,825,cs,{name = ._.2631340327536;}),
(1507,1290,o),
(1143,1650,o),
(675,1650,cs,{name = ._.2631340327296;}),
(229,1650,l,{name = ._.2631340325056;}),
(229,0,l)
);
},
{
closed = 1;
nodes = (
(537,1374,l,{name = ._.2631340325616;}),
(641,1374,ls,{name = ._.2631340326416;}),
(947,1374,o),
(1176,1140,o),
(1176,825,cs,{name = ._.2631340326656;}),
(1176,510,o),
(947,276,o),
(641,276,cs,{name = ._.2631340326816;}),
(537,276,l)
);
}
);
width = 1614;
},
{
anchors = (
{
name = bottom;
position = "{811, 0}";
},
{
name = center;
position = "{811, 825}";
},
{
name = top;
position = "{811, 1650}";
}
);
hints = (
{
horizontal = 1;
origin = (0,0);
target = (1,7);
type = Stem;
},
{
horizontal = 1;
origin = (1,1);
target = (0,6);
type = Stem;
},
{
origin = (1,4);
target = (0,3);
type = Stem;
},
{
origin = (0,7);
target = (1,0);
type = Stem;
}
);
layerId = "226AFDD0-2700-445C-A4CF-7C4B26695C22";
shapes = (
{
closed = 1;
nodes = (
(662,0,ls,{name = ._.2631340329856;}),
(1132,0,o),
(1494,360,o),
(1494,825,cs,{name = ._.2631340332416;}),
(1494,1290,o),
(1131,1650,o),
(662,1650,cs,{name = ._.2631340330256;}),
(244,1650,l,{name = ._.2631340330016;}),
(244,0,l)
);
},
{
closed = 1;
nodes = (
(494,1426,l,{name = ._.2631340329216;}),
(636,1426,ls,{name = ._.2631340328576;}),
(972,1426,o),
(1227,1168,o),
(1227,825,cs,{name = ._.2631340328736;}),
(1227,482,o),
(972,224,o),
(636,224,cs,{name = ._.2631340331136;}),
(494,224,l)
);
}
);
width = 1623;
},
{
anchors = (
{
name = bottom;
position = "{815, 0}";
},
{
name = center;
position = "{815, 825}";
},
{
name = top;
position = "{815, 1650}";
}
);
hints = (
{
horizontal = 1;
origin = (0,0);
target = (1,7);
type = Stem;
},
{
horizontal = 1;
origin = (1,1);
target = (0,6);
type = Stem;
},
{
origin = (1,4);
target = (0,3);
type = Stem;
},
{
origin = (0,7);
target = (1,0);
type = Stem;
}
);
layerId = "8E8E586A-81E9-433C-8BD9-4265646900C1";
shapes = (
{
closed = 1;
nodes = (
(652,0,ls,{name = ._.2631340335296;}),
(1122,0,o),
(1484,360,o),
(1484,825,cs,{name = ._.2631340334336;}),
(1484,1290,o),
(1121,1650,o),
(652,1650,cs,{name = ._.2631340333456;}),
(256,1650,l,{name = ._.2631340336816;}),
(256,0,l)
);
},
{
closed = 1;
nodes = (
(460,1467,l,{name = ._.2631340335776;}),
(632,1467,ls,{name = ._.2631340336176;}),
(992,1467,o),
(1267,1190,o),
(1267,825,cs,{name = ._.2631340338416;}),
(1267,460,o),
(992,183,o),
(632,183,cs,{name = ._.2631340333536;}),
(460,183,l)
);
}
);
width = 1630;
},
{
anchors = (
{
name = bottom;
position = "{819, 0}";
},
{
name = center;
position = "{819, 825}";
},
{
name = top;
position = "{819, 1650}";
}
);
hints = (
{
horizontal = 1;
origin = (0,0);
target = (1,7);
type = Stem;
},
{
horizontal = 1;
origin = (1,1);
target = (0,6);
type = Stem;
},
{
origin = (1,4);
target = (0,3);
type = Stem;
},
{
origin = (0,7);
target = (1,0);
type = Stem;
}
);
layerId = "24B4D503-66A8-4B4A-943D-7DAB8AE883B0";
shapes = (
{
closed = 1;
nodes = (
(639,0,ls,{name = ._.2631340342736;}),
(1109,0,o),
(1471,359,o),
(1471,825,cs,{name = ._.2631340339136;}),
(1471,1291,o),
(1109,1650,o),
(639,1650,cs,{name = ._.2631340340496;}),
(271,1650,l,{name = ._.2631340342816;}),
(271,0,l)
);
},
{
closed = 1;
nodes = (
(417,1519,l,{name = ._.2631340339776;}),
(627,1519,ls,{name = ._.2631340343296;}),
(1017,1519,o),
(1318,1218,o),
(1318,825,cs,{name = ._.2631340339536;}),
(1318,432,o),
(1017,131,o),
(627,131,cs,{name = ._.2631340339936;}),
(417,131,l)
);
}
);
width = 1639;
},
{
anchors = (
{
name = bottom;
position = "{823, 0}";
},
{
name = center;
position = "{823, 825}";
},
{
name = top;
position = "{823, 1650}";
}
);
hints = (
{
horizontal = 1;
origin = (0,0);
target = (1,7);
type = Stem;
},
{
horizontal = 1;
origin = (1,1);
target = (0,6);
type = Stem;
},
{
origin = (1,4);
target = (0,3);
type = Stem;
},
{
origin = (0,7);
target = (1,0);
type = Stem;
}
);
layerId = "E09A619D-4294-46CA-BAB2-AF903DA4D17A";
shapes = (
{
closed = 1;
nodes = (
(630,0,ls,{name = ._.2631340348016;}),
(1100,0,o),
(1462,359,o),
(1462,825,cs,{name = ._.2631340344576;}),
(1462,1291,o),
(1100,1650,o),
(630,1650,cs,{name = ._.2631340346976;}),
(281,1650,l,{name = ._.2631340344096;}),
(281,0,l)
);
},
{
closed = 1;
nodes = (
(387,1555,l,{name = ._.2631340343776;}),
(624,1555,ls,{name = ._.2631340345856;}),
(1034,1555,o),
(1353,1237,o),
(1353,825,cs,{name = ._.2631340343696;}),
(1353,413,o),
(1034,95,o),
(624,95,cs,{name = ._.2631340345376;}),
(387,95,l)
);
}
);
width = 1645;
},
{
anchors = (
{
name = bottom;
position = "{825, 0}";
},
{
name = center;
position = "{825, 825}";
},
{
name = top;
position = "{825, 1650}";
}
);
hints = (
{
horizontal = 1;
origin = (0,0);
target = (1,7);
type = Stem;
},
{
horizontal = 1;
origin = (1,1);
target = (0,6);
type = Stem;
},
{
origin = (1,4);
target = (0,3);
type = Stem;
},
{
origin = (0,7);
target = (1,0);
type = Stem;
}
);
layerId = "EF8C5D96-1952-40CF-ADD4-E541C160E9A9";
shapes = (
{
closed = 1;
nodes = (
(623,0,ls,{name = ._.2631340348416;}),
(1093,0,o),
(1455,359,o),
(1455,825,cs,{name = ._.2631340345136;}),
(1455,1291,o),
(1093,1650,o),
(623,1650,cs,{name = ._.2631340349056;}),
(288,1650,l,{name = ._.2631340349776;}),
(288,0,l)
);
},
{
closed = 1;
nodes = (
(364,1582,l,{name = ._.2631340353616;}),
(621,1582,ls,{name = ._.2631340353136;}),
(1046,1582,o),
(1379,1251,o),
(1379,825,cs,{name = ._.2631340350656;}),
(1379,399,o),
(1046,68,o),
(621,68,cs,{name = ._.2631340351856;}),
(364,68,l)
);
}
);
width = 1650;
},
{
anchors = (
{
name = bottom;
position = "{827, 0}";
},
{
name = center;
position = "{827, 825}";
},
{
name = top;
position = "{827, 1650}";
}
);
hints = (
{
horizontal = 1;
origin = (0,0);
target = (1,7);
type = Stem;
},
{
horizontal = 1;
origin = (1,1);
target = (0,6);
type = Stem;
},
{
origin = (1,4);
target = (0,3);
type = Stem;
},
{
origin = (0,7);
target = (1,0);
type = Stem;
}
);
layerId = "F24CAE32-9A56-4E55-8360-BB7561E69AAD";
shapes = (
{
closed = 1;
nodes = (
(619,0,ls,{name = ._.2631340350176;}),
(1089,0,o),
(1451,359,o),
(1451,825,cs,{name = ._.2631340351216;}),
(1451,1291,o),
(1089,1650,o),
(619,1650,cs,{name = ._.2631340351616;}),
(293,1650,l,{name = ._.2631340351696;}),
(293,0,l)
);
},
{
closed = 1;
nodes = (
(349,1600,l,{name = ._.2631340357776;}),
(619,1600,ls,{name = ._.2631340358736;}),
(1055,1600,o),
(1397,1260,o),
(1397,825,cs,{name = ._.2631340353856;}),
(1397,390,o),
(1055,50,o),
(619,50,cs,{name = ._.2631340355936;}),
(349,50,l)
);
}
);
width = 1653;
}
);
unicode = 68;
},
{
color = (153, 255, 154, 255);
glyphname = Eth;
layers = (
{
hints = (
{
horizontal = 1;
origin = (0,1);
target = (0,0);
type = Stem;
}
);
layerId = "0219FCCD-76EF-4311-8338-E1F0504E85BF";
shapes = (
{
closed = 1;
nodes = (
(83,1004,l,{name = ._.2631340362976;}),
(83,646,l,{name = ._.2631340360896;}),
(841,646,l),
(841,1004,l)
);
},
{
alignment = -1;
pos = (51,0);
ref = D;
}
);
width = 1645;
},
{
hints = (
{
horizontal = 1;
origin = (0,1);
target = (0,0);
type = Stem;
}
);
layerId = "EF133E1C-A42C-4162-B993-78888479ABEC";
shapes = (
{
closed = 1;
nodes = (
(96,978,l,{name = ._.2631340361136;}),
(96,672,l,{name = ._.2631340361936;}),
(854,672,l),
(854,978,l)
);
},
{
alignment = -1;
pos = (47,0);
ref = D;
}
);
width = 1651;
},
{
hints = (
{
horizontal = 1;
origin = (0,1);
target = (0,0);
type = Stem;
}
);
layerId = "11DBA8EB-E381-4810-A5CC-CC1A00595979";
shapes = (
{
closed = 1;
nodes = (
(109,949,l,{name = ._.2631340361856;}),
(109,699,l,{name = ._.2631340362896;}),
(867,699,l),
(867,949,l)
);
},
{
alignment = -1;
pos = (43,0);
ref = D;
}
);
width = 1658;
},
{
hints = (
{
horizontal = 1;
origin = (0,1);
target = (0,0);
type = Stem;
}
);
layerId = "226AFDD0-2700-445C-A4CF-7C4B26695C22";
shapes = (
{
closed = 1;
nodes = (
(120,926,l,{name = ._.2631340368976;}),
(120,723,l,{name = ._.2631340364896;}),
(878,723,l),
(878,926,l)
);
},
{
alignment = -1;
pos = (40,0);
ref = D;
}
);
width = 1664;
},
{
hints = (
{
horizontal = 1;
origin = (0,1);
target = (0,0);
type = Stem;
}
);
layerId = "8E8E586A-81E9-433C-8BD9-4265646900C1";
shapes = (
{
closed = 1;
nodes = (
(129,908,l,{name = ._.2631340365216;}),
(129,742,l,{name = ._.2631340367056;}),
(887,742,l),
(887,908,l)
);
},
{
alignment = -1;
pos = (37,0);
ref = D;
}
);
width = 1668;
},
{
hints = (
{
horizontal = 1;
origin = (0,1);
target = (0,0);
type = Stem;
}
);
layerId = "24B4D503-66A8-4B4A-943D-7DAB8AE883B0";
shapes = (
{
closed = 1;
nodes = (
(140,885,l,{name = ._.2631340364656;}),
(140,766,l,{name = ._.2631340367776;}),
(898,766,l),
(898,885,l)
);
},
{
alignment = -1;
pos = (34,0);
ref = D;
}
);
width = 1673;
},
{
hints = (
{
horizontal = 1;
origin = (0,1);
target = (0,0);
type = Stem;
}
);
layerId = "E09A619D-4294-46CA-BAB2-AF903DA4D17A";
shapes = (
{
closed = 1;
nodes = (
(148,868,l,{name = ._.2631340371056;}),
(148,782,l,{name = ._.2631340370656;}),
(906,782,l),
(906,868,l)
);
},
{
alignment = -1;
pos = (32,0);
ref = D;
}
);
width = 1677;
},
{
hints = (
{
horizontal = 1;
origin = (0,1);
target = (0,0);
type = Stem;
}
);
layerId = "EF8C5D96-1952-40CF-ADD4-E541C160E9A9";
shapes = (
{
closed = 1;
nodes = (
(154,856,l,{name = ._.2631340369536;}),
(154,794,l,{name = ._.2631340369616;}),
(912,794,l),
(912,856,l)
);
},
{
alignment = -1;
pos = (30,0);
ref = D;
}
);
width = 1680;
},
{
hints = (
{
horizontal = 1;
origin = (0,1);
target = (0,0);
type = Stem;
}
);
layerId = "F24CAE32-9A56-4E55-8360-BB7561E69AAD";
shapes = (
{
closed = 1;
nodes = (
(158,848,l,{name = ._.2631340373456;}),
(158,802,l,{name = ._.2631340373536;}),
(916,802,l),
(916,848,l)
);
},
{
alignment = -1;
pos = (29,0);
ref = D;
}
);
width = 1682;
}
);
unicode = 208;
},
{
color = (153, 255, 154, 255);
glyphname = E;
layers = (
{
anchors = (
{
name = bottom;
position = "{670, 0}";
},
{
name = ogonek;
position = "{1172, 0}";
},
{
name = top;
position = "{670, 1650}";
},
{
name = topleft;
position = "{196, 1650}";
}
);
hints = (
{
horizontal = 1;
origin = (0,7);
target = (0,10);
type = Stem;
},
{
horizontal = 1;
origin = (0,3);
target = (0,6);
type = Stem;
},
{
horizontal = 1;
origin = (0,11);
target = (0,2);
type = Stem;
},
{
origin = (0,10);
target = (0,7);
type = Stem;
}
);
layerId = "0219FCCD-76EF-4311-8338-E1F0504E85BF";
shapes = (
{
closed = 1;
nodes = (
(1172,0,l),
(1172,386,l),
(636,386,l,{name = ._.2631341431904;}),
(636,634,l,{name = ._.2631341434624;}),
(1148,634,l),
(1148,1020,l),
(636,1020,l,{name = ._.2631341432064;}),
(636,1264,l,{name = ._.2631341430784;}),
(1172,1264,l),
(1172,1650,l),
(196,1650,l,{name = ._.2631341431824;}),
(196,0,l,{name = ._.2631341435104;})
);
}
);
width = 1340;
},
{
anchors = (
{
name = bottom;
position = "{675, 0}";
},
{
name = ogonek;
position = "{1156, 0}";
},
{
name = top;
position = "{675, 1650}";
},
{
name = topleft;
position = "{196, 1650}";
}
);
hints = (
{
horizontal = 1;
origin = (0,7);
target = (0,10);
type = Stem;
},
{
horizontal = 1;
origin = (0,3);
target = (0,6);
type = Stem;
},
{
horizontal = 1;
origin = (0,11);
target = (0,2);
type = Stem;
},
{
origin = (0,10);
target = (0,7);
type = Stem;
}
);
layerId = "EF133E1C-A42C-4162-B993-78888479ABEC";
shapes = (
{
closed = 1;
nodes = (
(1156,0,l),
(1156,330,l),
(588,330,l,{name = ._.2631341437904;}),
(588,662,l,{name = ._.2631341436864;}),
(1132,662,l),
(1132,992,l),
(588,992,l,{name = ._.2631341436624;}),
(588,1320,l,{name = ._.2631341438704;}),
(1156,1320,l),
(1156,1650,l),
(212,1650,l,{name = ._.2631341440144;}),
(212,0,l,{name = ._.2631341436944;})
);
}
);
width = 1325;
},
{
anchors = (
{
name = bottom;
position = "{682, 0}";
},
{
name = ogonek;
position = "{1139, 0}";
},
{
name = top;
position = "{682, 1650}";
},
{
name = topleft;
position = "{196, 1650}";
}
);
hints = (
{
horizontal = 1;
origin = (0,7);
target = (0,10);
type = Stem;
},
{
horizontal = 1;
origin = (0,3);
target = (0,6);
type = Stem;
},
{
horizontal = 1;
origin = (0,11);
target = (0,2);
type = Stem;
},
{
origin = (0,10);
target = (0,7);
type = Stem;
}
);
layerId = "11DBA8EB-E381-4810-A5CC-CC1A00595979";
shapes = (
{
closed = 1;
nodes = (
(1139,0,l),
(1139,271,l),
(537,271,l,{name = ._.2631341444224;}),
(537,692,l,{name = ._.2631341442464;}),
(1115,692,l),
(1115,963,l),
(537,963,l,{name = ._.2631341444944;}),
(537,1379,l,{name = ._.2631341441424;}),
(1139,1379,l),
(1139,1650,l),
(229,1650,l,{name = ._.2631341443024;}),
(229,0,l,{name = ._.2631341443344;})
);
}
);
width = 1310;
},
{
anchors = (
{
name = bottom;
position = "{688, 0}";
},
{
name = ogonek;
position = "{1125, 0}";
},
{
name = top;
position = "{688, 1650}";
},
{
name = topleft;
position = "{196, 1650}";
}
);
hints = (
{
horizontal = 1;
origin = (0,7);
target = (0,10);
type = Stem;
},
{
horizontal = 1;
origin = (0,3);
target = (0,6);
type = Stem;
},
{
horizontal = 1;
origin = (0,11);
target = (0,2);
type = Stem;
},
{
origin = (0,10);
target = (0,7);
type = Stem;
}
);
layerId = "226AFDD0-2700-445C-A4CF-7C4B26695C22";
shapes = (
{
closed = 1;
nodes = (
(1125,0,l),
(1125,220,l),
(494,220,l,{name = ._.2631341441584;}),
(494,717,l,{name = ._.2631341441664;}),
(1101,717,l),
(1101,937,l),
(494,937,l,{name = ._.2631341440704;}),
(494,1430,l,{name = ._.2631341444064;}),
(1125,1430,l),
(1125,1650,l),
(244,1650,l,{name = ._.2631341442064;}),
(244,0,l,{name = ._.2631341442144;})
);
}
);
width = 1297;
},
{
anchors = (
{
name = bottom;
position = "{692, 0}";
},
{
name = ogonek;
position = "{1114, 0}";
},
{
name = top;
position = "{692, 1650}";
}
);
hints = (
{
horizontal = 1;
origin = (0,7);
target = (0,10);
type = Stem;
},
{
horizontal = 1;
origin = (0,3);
target = (0,6);
type = Stem;
},
{
horizontal = 1;
origin = (0,11);
target = (0,2);
type = Stem;
},
{
origin = (0,10);
target = (0,7);
type = Stem;
}
);
layerId = "8E8E586A-81E9-433C-8BD9-4265646900C1";
shapes = (
{
closed = 1;
nodes = (
(1114,0,l),
(1114,180,l),
(460,180,l,{name = ._.2631341448224;}),
(460,737,l,{name = ._.2631341447184;}),
(1090,737,l),
(1090,917,l),
(460,917,l,{name = ._.2631341446864;}),
(460,1470,l,{name = ._.2631341449584;}),
(1114,1470,l),
(1114,1650,l),
(256,1650,l,{name = ._.2631341450384;}),
(256,0,l,{name = ._.2631341447344;})
);
}
);
width = 1287;
},
{
anchors = (
{
name = bottom;
position = "{697, 0}";
},
{
name = ogonek;
position = "{1100, 0}";
},
{
name = top;
position = "{697, 1650}";
},
{
name = topleft;
position = "{196, 1650}";
}
);
hints = (
{
horizontal = 1;
origin = (0,7);
target = (0,10);
type = Stem;
},
{
horizontal = 1;
origin = (0,3);
target = (0,6);
type = Stem;
},
{
horizontal = 1;
origin = (0,11);
target = (0,2);
type = Stem;
},
{
origin = (0,10);
target = (0,7);
type = Stem;
}
);
layerId = "24B4D503-66A8-4B4A-943D-7DAB8AE883B0";
shapes = (
{
closed = 1;
nodes = (
(1100,0,l),
(1100,129,l),
(417,129,l,{name = ._.2631341453024;}),
(417,762,l,{name = ._.2631341455024;}),
(1076,762,l),
(1076,891,l),
(417,891,l,{name = ._.2631341452064;}),
(417,1521,l,{name = ._.2631341453584;}),
(1100,1521,l),
(1100,1650,l),
(271,1650,l,{name = ._.2631341453744;}),
(271,0,l,{name = ._.2631341454544;})
);
}
);
width = 1274;
},
{
anchors = (
{
name = bottom;
position = "{701, 0}";
},
{
name = ogonek;
position = "{1090, 0}";
},
{
name = top;
position = "{701, 1650}";
},
{
name = topleft;
position = "{196, 1650}";
}
);
hints = (
{
horizontal = 1;
origin = (0,7);
target = (0,10);
type = Stem;
},
{
horizontal = 1;
origin = (0,3);
target = (0,6);
type = Stem;
},
{
horizontal = 1;
origin = (0,11);
target = (0,2);
type = Stem;
},
{
origin = (0,10);
target = (0,7);
type = Stem;
}
);
layerId = "E09A619D-4294-46CA-BAB2-AF903DA4D17A";
shapes = (
{
closed = 1;
nodes = (
(1090,0,l),
(1090,94,l),
(387,94,l,{name = ._.2631341457904;}),
(387,780,l,{name = ._.2631341459744;}),
(1066,780,l),
(1066,874,l),
(387,874,l,{name = ._.2631341458304;}),
(387,1556,l,{name = ._.2631341456144;}),
(1090,1556,l),
(1090,1650,l),
(281,1650,l,{name = ._.2631341459344;}),
(281,0,l,{name = ._.2631341455744;})
);
}
);
width = 1265;
},
{
anchors = (
{
name = bottom;
position = "{704, 0}";
},
{
name = ogonek;
position = "{1082, 0}";
},
{
name = top;
position = "{704, 1650}";
},
{
name = topleft;
position = "{196, 1650}";
}
);
hints = (
{
horizontal = 1;
origin = (0,7);
target = (0,10);
type = Stem;
},
{
horizontal = 1;
origin = (0,3);
target = (0,6);
type = Stem;
},
{
horizontal = 1;
origin = (0,11);
target = (0,2);
type = Stem;
},
{
origin = (0,10);
target = (0,7);
type = Stem;
}
);
layerId = "EF8C5D96-1952-40CF-ADD4-E541C160E9A9";
shapes = (
{
closed = 1;
nodes = (
(1082,0,l),
(1082,68,l),
(364,68,l,{name = ._.2631341456784;}),
(364,793,l,{name = ._.2631341462624;}),
(1058,793,l),
(1058,861,l),
(364,861,l,{name = ._.2631341462224;}),
(364,1582,l,{name = ._.2631341462704;}),
(1082,1582,l),
(1082,1650,l),
(288,1650,l,{name = ._.2631341463504;}),
(288,0,l,{name = ._.2631341462464;})
);
}
);
width = 1258;
},
{
anchors = (
{
name = bottom;
position = "{706, 0}";
},
{
name = ogonek;
position = "{1077, 0}";
},
{
name = top;
position = "{706, 1650}";
}
);
hints = (
{
horizontal = 1;
origin = (0,7);
target = (0,10);
type = Stem;
},
{
horizontal = 1;
origin = (0,3);
target = (0,6);
type = Stem;
},
{
horizontal = 1;
origin = (0,11);
target = (0,2);
type = Stem;
},
{
origin = (0,10);
target = (0,7);
type = Stem;
}
);
layerId = "F24CAE32-9A56-4E55-8360-BB7561E69AAD";
shapes = (
{
closed = 1;
nodes = (
(1077,0,l),
(1077,50,l),
(349,50,l,{name = ._.2631341463904;}),
(349,802,l,{name = ._.2631341464944;}),
(1053,802,l),
(1053,852,l),
(349,852,l,{name = ._.2631341463184;}),
(349,1600,l,{name = ._.2631341465104;}),
(1077,1600,l),
(1077,1650,l),
(293,1650,l,{name = ._.2631341464064;}),
(293,0,l,{name = ._.2631341464544;})
);
}
);
width = 1254;
}
);
unicode = 69;
},
{
color = (153, 255, 154, 255);
glyphname = F;
layers = (
{
anchors = (
{
name = bottom;
position = "{630, 0}";
},
{
name = top;
position = "{630, 1650}";
}
);
hints = (
{
horizontal = 1;
origin = (0,7);
target = (0,0);
type = Stem;
},
{
origin = (0,0);
target = (0,7);
type = Stem;
},
{
horizontal = 1;
origin = (0,3);
target = (0,6);
type = Stem;
},
{
horizontal = 1;
origin = (0,1);
target = up;
type = BottomGhost;
}
);
layerId = "0219FCCD-76EF-4311-8338-E1F0504E85BF";
shapes = (
{
closed = 1;
nodes = (
(196,1650,l,{name = ._.2631343047296;}),
(196,0,l,{name = ._.2631343046496;}),
(636,0,l),
(636,634,l,{name = ._.2631343047376;}),
(1140,634,l),
(1140,1020,l),
(636,1020,l,{name = ._.2631343048736;}),
(636,1264,l,{name = ._.2631343048096;}),
(1184,1264,l),
(1184,1650,l)
);
}
);
width = 1260;
},
{
anchors = (
{
name = bottom;
position = "{628, 0}";
},
{
name = top;
position = "{628, 1650}";
}
);
hints = (
{
horizontal = 1;
origin = (0,7);
target = (0,0);
type = Stem;
},
{
origin = (0,0);
target = (0,7);
type = Stem;
},
{
horizontal = 1;
origin = (0,3);
target = (0,6);
type = Stem;
},
{
horizontal = 1;
origin = (0,1);
target = up;
type = BottomGhost;
}
);
layerId = "EF133E1C-A42C-4162-B993-78888479ABEC";
shapes = (
{
closed = 1;
nodes = (
(212,1650,l,{name = ._.2631343053216;}),
(212,0,l,{name = ._.2631343055536;}),
(588,0,l),
(588,662,l,{name = ._.2631343055696;}),
(1122,662,l),
(1122,992,l),
(588,992,l,{name = ._.2631343051136;}),
(588,1320,l,{name = ._.2631343053776;}),
(1166,1320,l),
(1166,1650,l)
);
}
);
width = 1257;
},
{
anchors = (
{
name = bottom;
position = "{626, 0}";
},
{
name = top;
position = "{626, 1650}";
}
);
hints = (
{
horizontal = 1;
origin = (0,7);
target = (0,0);
type = Stem;
},
{
origin = (0,0);
target = (0,7);
type = Stem;
},
{
horizontal = 1;
origin = (0,3);
target = (0,6);
type = Stem;
},
{
horizontal = 1;
origin = (0,1);
target = up;
type = BottomGhost;
}
);
layerId = "11DBA8EB-E381-4810-A5CC-CC1A00595979";
shapes = (
{
closed = 1;
nodes = (
(229,1650,l,{name = ._.2631343059056;}),
(229,0,l,{name = ._.2631343060736;}),
(537,0,l),
(537,691,l,{name = ._.2631343056336;}),
(1102,691,l),
(1102,962,l),
(537,962,l,{name = ._.2631343056176;}),
(537,1379,l,{name = ._.2631343058096;}),
(1147,1379,l),
(1147,1650,l)
);
}
);
width = 1253;
},
{
anchors = (
{
name = bottom;
position = "{624, 0}";
},
{
name = top;
position = "{624, 1650}";
}
);
hints = (
{
horizontal = 1;
origin = (0,7);
target = (0,0);
type = Stem;
},
{
origin = (0,0);
target = (0,7);
type = Stem;
},
{
horizontal = 1;
origin = (0,3);
target = (0,6);
type = Stem;
},
{
horizontal = 1;
origin = (0,1);
target = up;
type = BottomGhost;
}
);
layerId = "226AFDD0-2700-445C-A4CF-7C4B26695C22";
shapes = (
{
closed = 1;
nodes = (
(244,1650,l,{name = ._.2631343059536;}),
(244,0,l,{name = ._.2631343059616;}),
(494,0,l),
(494,716,l,{name = ._.2631343060016;}),
(1086,716,l),
(1086,936,l),
(494,936,l,{name = ._.2631343060496;}),
(494,1430,l,{name = ._.2631343060576;}),
(1131,1430,l),
(1131,1650,l)
);
}
);
width = 1250;
},
{
anchors = (
{
name = bottom;
position = "{624, 0}";
},
{
name = top;
position = "{624, 1650}";
}
);
hints = (
{
horizontal = 1;
origin = (0,7);
target = (0,0);
type = Stem;
},
{
origin = (0,0);
target = (0,7);
type = Stem;
},
{
horizontal = 1;
origin = (0,3);
target = (0,6);
type = Stem;
},
{
horizontal = 1;
origin = (0,1);
target = up;
type = BottomGhost;
}
);
layerId = "8E8E586A-81E9-433C-8BD9-4265646900C1";
shapes = (
{
closed = 1;
nodes = (
(256,1650,l,{name = ._.2631343063216;}),
(256,0,l,{name = ._.2631343061456;}),
(460,0,l),
(460,736,l,{name = ._.2631343061776;}),
(1073,736,l),
(1073,916,l),
(460,916,l,{name = ._.2631343061936;}),
(460,1470,l,{name = ._.2631343064816;}),
(1119,1470,l),
(1119,1650,l)
);
}
);
width = 1247;
},
{
anchors = (
{
name = bottom;
position = "{621, 0}";
},
{
name = top;
position = "{621, 1650}";
}
);
hints = (
{
horizontal = 1;
origin = (0,7);
target = (0,0);
type = Stem;
},
{
origin = (0,0);
target = (0,7);
type = Stem;
},
{
horizontal = 1;
origin = (0,3);
target = (0,6);
type = Stem;
},
{
horizontal = 1;
origin = (0,1);
target = up;
type = BottomGhost;
}
);
layerId = "24B4D503-66A8-4B4A-943D-7DAB8AE883B0";
shapes = (
{
closed = 1;
nodes = (
(271,1650,l,{name = ._.2631343070656;}),
(271,0,l,{name = ._.2631343070576;}),
(417,0,l),
(417,762,l,{name = ._.2631343069536;}),
(1057,762,l),
(1057,891,l),
(417,891,l,{name = ._.2631343067056;}),
(417,1521,l,{name = ._.2631343067856;}),
(1103,1521,l),
(1103,1650,l)
);
}
);
width = 1244;
},
{
anchors = (
{
name = bottom;
position = "{621, 0}";
},
{
name = top;
position = "{621, 1650}";
}
);
hints = (
{
horizontal = 1;
origin = (0,7);
target = (0,0);
type = Stem;
},
{
origin = (0,0);
target = (0,7);
type = Stem;
},
{
horizontal = 1;
origin = (0,3);
target = (0,6);
type = Stem;
},
{
horizontal = 1;
origin = (0,1);
target = up;
type = BottomGhost;
}
);
layerId = "E09A619D-4294-46CA-BAB2-AF903DA4D17A";
shapes = (
{
closed = 1;
nodes = (
(281,1650,l,{name = ._.2631343066816;}),
(281,0,l,{name = ._.2631343066896;}),
(387,0,l),
(387,780,l,{name = ._.2631343067296;}),
(1046,780,l),
(1046,874,l),
(387,874,l,{name = ._.2631343072256;}),
(387,1556,l,{name = ._.2631343072496;}),
(1092,1556,l),
(1092,1650,l)
);
}
);
width = 1242;
},
{
anchors = (
{
name = bottom;
position = "{620, 0}";
},
{
name = top;
position = "{620, 1650}";
}
);
hints = (
{
horizontal = 1;
origin = (0,7);
target = (0,0);
type = Stem;
},
{
origin = (0,0);
target = (0,7);
type = Stem;
},
{
horizontal = 1;
origin = (0,3);
target = (0,6);
type = Stem;
},
{
horizontal = 1;
origin = (0,1);
target = up;
type = BottomGhost;
}
);
layerId = "EF8C5D96-1952-40CF-ADD4-E541C160E9A9";
shapes = (
{
closed = 1;
nodes = (
(288,1650,l,{name = ._.2631343073536;}),
(288,0,l,{name = ._.2631343075536;}),
(364,0,l),
(364,793,l,{name = ._.2631343072656;}),
(1037,793,l),
(1037,861,l),
(364,861,l,{name = ._.2631343075216;}),
(364,1582,l,{name = ._.2631343071776;}),
(1083,1582,l),
(1083,1650,l)
);
}
);
width = 1240;
},
{
anchors = (
{
name = bottom;
position = "{620, 0}";
},
{
name = top;
position = "{620, 1650}";
}
);
hints = (
{
horizontal = 1;
origin = (0,7);
target = (0,0);
type = Stem;
},
{
origin = (0,0);
target = (0,7);
type = Stem;
},
{
horizontal = 1;
origin = (0,3);
target = (0,6);
type = Stem;
},
{
horizontal = 1;
origin = (0,1);
target = up;
type = BottomGhost;
}
);
layerId = "F24CAE32-9A56-4E55-8360-BB7561E69AAD";
shapes = (
{
closed = 1;
nodes = (
(293,1650,l,{name = ._.2631343078016;}),
(293,0,l,{name = ._.2631343081456;}),
(349,0,l),
(349,802,l,{name = ._.2631343076656;}),
(1031,802,l),
(1031,852,l),
(349,852,l,{name = ._.2631343078096;}),
(349,1600,l,{name = ._.2631343078576;}),
(1077,1600,l),
(1077,1650,l)
);
}
);
width = 1239;
}
);
unicode = 70;
},
{
color = (153, 255, 154, 255);
glyphname = G;
layers = (
{
anchors = (
{
name = bottom;
position = "{842, 0}";
},
{
name = top;
position = "{842, 1650}";
}
);
hints = (
{
horizontal = 1;
origin = (0,29);
target = (0,10);
type = Stem;
},
{
horizontal = 1;
origin = (0,6);
target = (0,3);
type = Stem;
},
{
horizontal = 1;
origin = (0,16);
target = (0,23);
type = Stem;
},
{
origin = (0,26);
target = (0,13);
type = Stem;
},
{
origin = (0,7);
target = (0,2);
type = Stem;
}
);
layerId = "0219FCCD-76EF-4311-8338-E1F0504E85BF";
shapes = (
{
closed = 1;
nodes = (
(1279,-32,o),
(1631,225,o),
(1631,699,cs,{name = ._.2631343083856;}),
(1631,952,l,{name = ._.2631343086016;}),
(869,952,l),
(869,614,l),
(1183,614,l,{name = ._.2631343086096;}),
(1183,612,ls,{name = ._.2631343083456;}),
(1183,481,o),
(1057,374,o),
(902,374,cs,{name = ._.2631343083216;}),
(682,374,o),
(540,581,o),
(540,825,cs,{name = ._.2631343085856;}),
(540,1067,o),
(672,1282,o),
(932,1282,cs,{name = ._.2631343083936;}),
(1054,1282,o),
(1173,1234,o),
(1239,1158,c),
(1499,1421,l),
(1327,1582,o),
(1143,1680,o),
(898,1680,cs,{name = ._.2631343085776;}),
(413,1680,o),
(64,1297,o),
(64,824,cs,{name = ._.2631343083536;}),
(64,351,o),
(409,-32,o),
(888,-32,cs,{name = ._.2631343084096;})
);
}
);
width = 1697;
},
{
anchors = (
{
name = bottom;
position = "{871, 0}";
},
{
name = top;
position = "{871, 1650}";
}
);
hints = (
{
horizontal = 1;
origin = (0,29);
target = (0,10);
type = Stem;
},
{
horizontal = 1;
origin = (0,6);
target = (0,3);
type = Stem;
},
{
horizontal = 1;
origin = (0,16);
target = (0,23);
type = Stem;
},
{
origin = (0,26);
target = (0,13);
type = Stem;
},
{
origin = (0,7);
target = (0,2);
type = Stem;
}
);
layerId = "EF133E1C-A42C-4162-B993-78888479ABEC";
shapes = (
{
closed = 1;
nodes = (
(1293,-32,o),
(1655,218,o),
(1655,697,cs,{name = ._.2631343088256;}),
(1655,922,l,{name = ._.2631343088816;}),
(892,922,l),
(892,632,l),
(1272,632,l,{name = ._.2631343091856;}),
(1272,618,ls,{name = ._.2631343089856;}),
(1272,444,o),
(1108,315,o),
(921,315,cs,{name = ._.2631343089616;}),
(668,315,o),
(494,547,o),
(494,825,cs,{name = ._.2631343088096;}),
(494,1095,o),
(651,1340,o),
(947,1340,cs,{name = ._.2631343088336;}),
(1090,1340,o),
(1223,1283,o),
(1299,1193,c),
(1524,1417,l),
(1358,1579,o),
(1170,1680,o),
(920,1680,cs,{name = ._.2631343088896;}),
(427,1680,o),
(88,1290,o),
(88,824,cs,{name = ._.2631343088976;}),
(88,351,o),
(434,-32,o),
(910,-32,cs,{name = ._.2631343086896;})
);
}
);
width = 1741;
},
{
anchors = (
{
name = bottom;
position = "{902, 0}";
},
{
name = top;
position = "{902, 1650}";
}
);
hints = (
{
horizontal = 1;
origin = (0,29);
target = (0,10);
type = Stem;
},
{
horizontal = 1;
origin = (0,6);
target = (0,3);
type = Stem;
},
{
horizontal = 1;
origin = (0,16);
target = (0,23);
type = Stem;
},
{
origin = (0,26);
target = (0,13);
type = Stem;
},
{
origin = (0,7);
target = (0,2);
type = Stem;
}
);
layerId = "11DBA8EB-E381-4810-A5CC-CC1A00595979";
shapes = (
{
closed = 1;
nodes = (
(1308,-32,o),
(1680,211,o),
(1680,694,cs,{name = ._.2631343094096;}),
(1680,890,l,{name = ._.2631343094576;}),
(917,890,l),
(917,651,l),
(1366,651,l,{name = ._.2631343092496;}),
(1366,624,ls,{name = ._.2631343095776;}),
(1366,404,o),
(1161,252,o),
(941,252,cs,{name = ._.2631343093136;}),
(652,252,o),
(445,511,o),
(445,824,cs,{name = ._.2631343093296;}),
(445,1124,o),
(628,1401,o),
(962,1401,cs,{name = ._.2631343095296;}),
(1127,1401,o),
(1275,1334,o),
(1363,1230,c),
(1550,1412,l),
(1391,1575,o),
(1198,1680,o),
(942,1680,cs,{name = ._.2631343098576;}),
(442,1680,o),
(113,1281,o),
(113,823,cs,{name = ._.2631343099456;}),
(113,351,o),
(461,-32,o),
(933,-32,cs,{name = ._.2631343094016;})
);
}
);
width = 1787;
},
{
anchors = (
{
name = bottom;
position = "{929, 0}";
},
{
name = top;
position = "{929, 1650}";
}
);
hints = (
{
horizontal = 1;
origin = (0,29);
target = (0,10);
type = Stem;
},
{
horizontal = 1;
origin = (0,6);
target = (0,3);
type = Stem;
},
{
horizontal = 1;
origin = (0,16);
target = (0,23);
type = Stem;
},
{
origin = (0,26);
target = (0,13);
type = Stem;
},
{
origin = (0,7);
target = (0,2);
type = Stem;
}
);
layerId = "226AFDD0-2700-445C-A4CF-7C4B26695C22";
shapes = (
{
closed = 1;
nodes = (
(1321,-32,o),
(1701,204,o),
(1701,691,cs,{name = ._.2631343097616;}),
(1701,863,l,{name = ._.2631343101056;}),
(938,863,l),
(938,667,l),
(1446,667,l,{name = ._.2631343101296;}),
(1446,629,ls,{name = ._.2631343101376;}),
(1446,370,o),
(1207,198,o),
(958,198,cs,{name = ._.2631343107296;}),
(638,198,o),
(403,480,o),
(403,824,cs,{name = ._.2631343106176;}),
(403,1150,o),
(609,1454,o),
(975,1454,cs,{name = ._.2631343103536;}),
(1158,1454,o),
(1319,1378,o),
(1417,1262,c),
(1572,1409,l),
(1419,1572,o),
(1222,1680,o),
(961,1680,cs,{name = ._.2631343103216;}),
(454,1680,o),
(134,1274,o),
(134,823,cs,{name = ._.2631343104416;}),
(134,350,o),
(483,-32,o),
(953,-32,cs,{name = ._.2631343097296;})
);
}
);
width = 1826;
},
{
anchors = (
{
name = bottom;
position = "{950, 0}";
},
{
name = top;
position = "{950, 1650}";
}
);
hints = (
{
horizontal = 1;
origin = (0,29);
target = (0,10);
type = Stem;
},
{
horizontal = 1;
origin = (0,6);
target = (0,3);
type = Stem;
},
{
horizontal = 1;
origin = (0,16);
target = (0,23);
type = Stem;
},
{
origin = (0,26);
target = (0,13);
type = Stem;
},
{
origin = (0,7);
target = (0,2);
type = Stem;
}
);
layerId = "8E8E586A-81E9-433C-8BD9-4265646900C1";
shapes = (
{
closed = 1;
nodes = (
(1332,-32,o),
(1718,198,o),
(1718,689,cs,{name = ._.2631343111856;}),
(1718,842,l,{name = ._.2631343111456;}),
(955,842,l),
(955,680,l),
(1510,680,l,{name = ._.2631343108976;}),
(1510,633,ls,{name = ._.2631343109616;}),
(1510,343,o),
(1243,155,o),
(972,155,cs,{name = ._.2631343111376;}),
(627,155,o),
(370,456,o),
(370,824,cs,{name = ._.2631343112416;}),
(370,1171,o),
(594,1496,o),
(986,1496,cs,{name = ._.2631343109856;}),
(1183,1496,o),
(1355,1413,o),
(1461,1288,c),
(1590,1407,l),
(1442,1570,o),
(1241,1680,o),
(976,1680,cs,{name = ._.2631343109136;}),
(464,1680,o),
(151,1269,o),
(151,823,cs,{name = ._.2631343111616;}),
(151,350,o),
(501,-32,o),
(969,-32,cs,{name = ._.2631343105936;})
);
}
);
width = 1857;
},
{
anchors = (
{
name = bottom;
position = "{969, 0}";
},
{
name = top;
position = "{969, 1650}";
}
);
hints = (
{
horizontal = 1;
origin = (0,29);
target = (0,10);
type = Stem;
},
{
horizontal = 1;
origin = (0,6);
target = (0,3);
type = Stem;
},
{
horizontal = 1;
origin = (0,16);
target = (0,23);
type = Stem;
},
{
origin = (0,26);
target = (0,13);
type = Stem;
},
{
origin = (0,7);
target = (0,2);
type = Stem;
}
);
layerId = "24B4D503-66A8-4B4A-943D-7DAB8AE883B0";
shapes = (
{
closed = 1;
nodes = (
(1345,-32,o),
(1739,192,o),
(1739,688,cs,{name = ._.2631343114816;}),
(1739,816,l,{name = ._.2631343114416;}),
(976,816,l),
(976,697,l),
(1590,697,l,{name = ._.2631343113376;}),
(1590,639,ls,{name = ._.2631343112496;}),
(1590,310,o),
(1288,102,o),
(989,102,cs,{name = ._.2631343113936;}),
(613,102,o),
(328,426,o),
(328,825,cs,{name = ._.2631343115776;}),
(328,1197,o),
(575,1549,o),
(999,1549,cs,{name = ._.2631343115296;}),
(1214,1549,o),
(1399,1458,o),
(1515,1320,c),
(1612,1404,l),
(1470,1567,o),
(1265,1680,o),
(995,1680,cs,{name = ._.2631343113536;}),
(476,1680,o),
(172,1263,o),
(172,824,cs,{name = ._.2631343113136;}),
(172,350,o),
(524,-32,o),
(989,-32,cs,{name = ._.2631343114736;})
);
}
);
width = 1897;
},
{
anchors = (
{
name = bottom;
position = "{983, 0}";
},
{
name = top;
position = "{983, 1650}";
}
);
hints = (
{
horizontal = 1;
origin = (0,29);
target = (0,10);
type = Stem;
},
{
horizontal = 1;
origin = (0,6);
target = (0,3);
type = Stem;
},
{
horizontal = 1;
origin = (0,16);
target = (0,23);
type = Stem;
},
{
origin = (0,26);
target = (0,13);
type = Stem;
},
{
origin = (0,7);
target = (0,2);
type = Stem;
}
);
layerId = "E09A619D-4294-46CA-BAB2-AF903DA4D17A";
shapes = (
{
closed = 1;
nodes = (
(1354,-32,o),
(1754,188,o),
(1754,686,cs,{name = ._.2631343120096;}),
(1754,797,l,{name = ._.2631343117856;}),
(991,797,l),
(991,708,l),
(1646,708,l,{name = ._.2631343118896;}),
(1646,642,ls,{name = ._.2631343119376;}),
(1646,287,o),
(1320,65,o),
(1001,65,cs,{name = ._.2631343122576;}),
(605,65,o),
(300,405,o),
(300,824,cs,{name = ._.2631343122416;}),
(300,1214,o),
(562,1585,o),
(1009,1585,cs,{name = ._.2631343121616;}),
(1236,1585,o),
(1431,1488,o),
(1553,1342,c),
(1628,1401,l),
(1490,1565,o),
(1282,1680,o),
(1009,1680,cs,{name = ._.2631343121216;}),
(486,1680,o),
(187,1258,o),
(187,823,cs,{name = ._.2631343121376;}),
(187,350,o),
(540,-32,o),
(1003,-32,cs,{name = ._.2631343118416;})
);
}
);
width = 1924;
},
{
anchors = (
{
name = bottom;
position = "{993, 0}";
},
{
name = top;
position = "{993, 1650}";
}
);
hints = (
{
horizontal = 1;
origin = (0,29);
target = (0,10);
type = Stem;
},
{
horizontal = 1;
origin = (0,6);
target = (0,3);
type = Stem;
},
{
horizontal = 1;
origin = (0,16);
target = (0,23);
type = Stem;
},
{
origin = (0,26);
target = (0,13);
type = Stem;
},
{
origin = (0,7);
target = (0,2);
type = Stem;
}
);
layerId = "EF8C5D96-1952-40CF-ADD4-E541C160E9A9";
shapes = (
{
closed = 1;
nodes = (
(1360,-32,o),
(1765,184,o),
(1765,684,cs,{name = ._.2631343123056;}),
(1765,783,l,{name = ._.2631343123136;}),
(1002,783,l),
(1002,716,l),
(1687,716,l,{name = ._.2631343123216;}),
(1687,644,ls,{name = ._.2631343124256;}),
(1687,269,o),
(1343,37,o),
(1009,37,cs,{name = ._.2631343125856;}),
(598,37,o),
(278,389,o),
(278,824,cs,{name = ._.2631343126256;}),
(278,1227,o),
(552,1612,o),
(1015,1612,cs,{name = ._.2631343127296;}),
(1252,1612,o),
(1453,1511,o),
(1581,1358,c),
(1639,1399,l),
(1504,1563,o),
(1294,1680,o),
(1018,1680,cs,{name = ._.2631343124816;}),
(492,1680,o),
(198,1254,o),
(198,823,cs,{name = ._.2631343127696;}),
(198,350,o),
(552,-32,o),
(1013,-32,cs,{name = ._.2631343124096;})
);
}
);
width = 1944;
},
{
anchors = (
{
name = bottom;
position = "{1000, 0}";
},
{
name = top;
position = "{1000, 1650}";
}
);
hints = (
{
horizontal = 1;
origin = (0,29);
target = (0,10);
type = Stem;
},
{
horizontal = 1;
origin = (0,6);
target = (0,3);
type = Stem;
},
{
horizontal = 1;
origin = (0,16);
target = (0,23);
type = Stem;
},
{
origin = (0,26);
target = (0,13);
type = Stem;
},
{
origin = (0,7);
target = (0,2);
type = Stem;
}
);
layerId = "F24CAE32-9A56-4E55-8360-BB7561E69AAD";
shapes = (
{
closed = 1;
nodes = (
(1365,-32,o),
(1773,181,o),
(1773,684,cs,{name = ._.2631343130576;}),
(1773,774,l,{name = ._.2631343130656;}),
(1009,774,l),
(1009,722,l),
(1715,722,l,{name = ._.2631343131296;}),
(1715,646,ls,{name = ._.2631343128096;}),
(1715,257,o),
(1359,18,o),
(1015,18,cs,{name = ._.2631343128816;}),
(593,18,o),
(263,378,o),
(263,824,cs,{name = ._.2631343131776;}),
(263,1236,o),
(545,1630,o),
(1019,1630,cs,{name = ._.2631343132576;}),
(1263,1630,o),
(1469,1526,o),
(1600,1369,c),
(1647,1398,l),
(1514,1562,o),
(1302,1680,o),
(1024,1680,cs,{name = ._.2631343133776;}),
(496,1680,o),
(205,1252,o),
(205,823,cs,{name = ._.2631343135616;}),
(205,350,o),
(559,-32,o),
(1020,-32,cs,{name = ._.2631343130736;})
);
}
);
width = 1958;
}
);
unicode = 71;
},
{
color = (153, 255, 154, 255);
glyphname = H;
layers = (
{
anchors = (
{
name = bottom;
position = "{848, 0}";
},
{
name = center;
position = "{848, 825}";
},
{
name = top;
position = "{848, 1650}";
}
);
hints = (
{
horizontal = 1;
origin = (0,1);
target = (0,8);
type = Stem;
},
{
origin = (0,10);
target = (0,0);
type = Stem;
},
{
origin = (0,6);
target = (0,4);
type = Stem;
},
{
horizontal = 1;
origin = (0,9);
target = down;
type = TopGhost;
},
{
horizontal = 1;
origin = (0,11);
target = up;
type = BottomGhost;
}
);
layerId = "0219FCCD-76EF-4311-8338-E1F0504E85BF";
shapes = (
{
closed = 1;
nodes = (
(636,0,l,{name = ._.2631344193552;}),
(636,634,l,{name = ._.2631344195072;}),
(1060,634,l),
(1060,0,l),
(1500,0,l,{name = ._.2631344196992;}),
(1500,1650,l),
(1060,1650,l,{name = ._.2631344196592;}),
(1060,1020,l),
(636,1020,l,{name = ._.2631344193072;}),
(636,1650,l,{name = ._.2631344195552;}),
(196,1650,l,{name = ._.2631344193312;}),
(196,0,l,{name = ._.2631344196192;})
);
}
);
width = 1696;
},
{
anchors = (
{
name = bottom;
position = "{853, 0}";
},
{
name = center;
position = "{853, 825}";
},
{
name = top;
position = "{853, 1650}";
}
);
hints = (
{
horizontal = 1;
origin = (0,1);
target = (0,8);
type = Stem;
},
{
origin = (0,10);
target = (0,0);
type = Stem;
},
{
origin = (0,6);
target = (0,4);
type = Stem;
},
{
horizontal = 1;
origin = (0,9);
target = down;
type = TopGhost;
},
{
horizontal = 1;
origin = (0,11);
target = up;
type = BottomGhost;
}
);
layerId = "EF133E1C-A42C-4162-B993-78888479ABEC";
shapes = (
{
closed = 1;
nodes = (
(588,0,l,{name = ._.2631344200272;}),
(588,662,l,{name = ._.2631344198592;}),
(1118,662,l),
(1118,0,l),
(1494,0,l,{name = ._.2631344198832;}),
(1494,1650,l),
(1118,1650,l,{name = ._.2631344201472;}),
(1118,992,l),
(588,992,l,{name = ._.2631344199312;}),
(588,1650,l,{name = ._.2631344202032;}),
(212,1650,l,{name = ._.2631344201232;}),
(212,0,l,{name = ._.2631344198992;})
);
}
);
width = 1707;
},
{
anchors = (
{
name = bottom;
position = "{858, 0}";
},
{
name = center;
position = "{858, 825}";
},
{
name = top;
position = "{858, 1650}";
}
);
hints = (
{
horizontal = 1;
origin = (0,1);
target = (0,8);
type = Stem;
},
{
origin = (0,10);
target = (0,0);
type = Stem;
},
{
origin = (0,6);
target = (0,4);
type = Stem;
},
{
horizontal = 1;
origin = (0,9);
target = down;
type = TopGhost;
},
{
horizontal = 1;
origin = (0,11);
target = up;
type = BottomGhost;
}
);
layerId = "11DBA8EB-E381-4810-A5CC-CC1A00595979";
shapes = (
{
closed = 1;
nodes = (
(537,0,l,{name = ._.2631344205552;}),
(537,692,l,{name = ._.2631344203872;}),
(1179,692,l),
(1179,0,l),
(1487,0,l,{name = ._.2631344207552;}),
(1487,1651,l),
(1179,1651,l,{name = ._.2631344207792;}),
(1179,963,l),
(537,963,l,{name = ._.2631344204752;}),
(537,1651,l,{name = ._.2631344203792;}),
(229,1651,l,{name = ._.2631344205392;}),
(229,0,l,{name = ._.2631344204912;})
);
}
);
width = 1718;
},
{
anchors = (
{
name = bottom;
position = "{863, 0}";
},
{
name = center;
position = "{863, 825}";
},
{
name = top;
position = "{863, 1650}";
}
);
hints = (
{
horizontal = 1;
origin = (0,1);
target = (0,8);
type = Stem;
},
{
origin = (0,10);
target = (0,0);
type = Stem;
},
{
origin = (0,6);
target = (0,4);
type = Stem;
},
{
horizontal = 1;
origin = (0,9);
target = down;
type = TopGhost;
},
{
horizontal = 1;
origin = (0,11);
target = up;
type = BottomGhost;
}
);
layerId = "226AFDD0-2700-445C-A4CF-7C4B26695C22";
shapes = (
{
closed = 1;
nodes = (
(494,0,l,{name = ._.2631344203472;}),
(494,717,l,{name = ._.2631344203632;}),
(1232,717,l),
(1232,0,l),
(1482,0,l,{name = ._.2631344210752;}),
(1482,1650,l),
(1232,1650,l,{name = ._.2631344212672;}),
(1232,937,l),
(494,937,l,{name = ._.2631344212912;}),
(494,1650,l,{name = ._.2631344212752;}),
(244,1650,l,{name = ._.2631344209792;}),
(244,0,l,{name = ._.2631344208912;})
);
}
);
width = 1727;
},
{
anchors = (
{
name = bottom;
position = "{867, 0}";
},
{
name = center;
position = "{867, 825}";
},
{
name = top;
position = "{867, 1650}";
}
);
hints = (
{
horizontal = 1;
origin = (0,1);
target = (0,8);
type = Stem;
},
{
origin = (0,10);
target = (0,0);
type = Stem;
},
{
origin = (0,6);
target = (0,4);
type = Stem;
},
{
horizontal = 1;
origin = (0,9);
target = down;
type = TopGhost;
},
{
horizontal = 1;
origin = (0,11);
target = up;
type = BottomGhost;
}
);
layerId = "8E8E586A-81E9-433C-8BD9-4265646900C1";
shapes = (
{
closed = 1;
nodes = (
(460,0,l,{name = ._.2631344208992;}),
(460,737,l,{name = ._.2631344210432;}),
(1274,737,l),
(1274,0,l),
(1478,0,l,{name = ._.2631344212112;}),
(1478,1650,l),
(1274,1650,l,{name = ._.2631344212352;}),
(1274,917,l),
(460,917,l,{name = ._.2631344214912;}),
(460,1650,l,{name = ._.2631344216272;}),
(256,1650,l,{name = ._.2631344213392;}),
(256,0,l,{name = ._.2631344215792;})
);
}
);
width = 1734;
},
{
anchors = (
{
name = bottom;
position = "{872, 0}";
},
{
name = center;
position = "{872, 825}";
},
{
name = top;
position = "{872, 1650}";
}
);
hints = (
{
horizontal = 1;
origin = (0,1);
target = (0,8);
type = Stem;
},
{
origin = (0,10);
target = (0,0);
type = Stem;
},
{
origin = (0,6);
target = (0,4);
type = Stem;
},
{
horizontal = 1;
origin = (0,9);
target = down;
type = TopGhost;
},
{
horizontal = 1;
origin = (0,11);
target = up;
type = BottomGhost;
}
);
layerId = "24B4D503-66A8-4B4A-943D-7DAB8AE883B0";
shapes = (
{
closed = 1;
nodes = (
(417,0,l,{name = ._.2631344214352;}),
(417,762,l,{name = ._.2631344215072;}),
(1327,762,l),
(1327,0,l),
(1473,0,l,{name = ._.2631344218112;}),
(1473,1650,l),
(1327,1650,l,{name = ._.2631344216752;}),
(1327,891,l),
(417,891,l,{name = ._.2631344214752;}),
(417,1650,l,{name = ._.2631344215312;}),
(271,1650,l,{name = ._.2631344218192;}),
(271,0,l,{name = ._.2631344216832;})
);
}
);
width = 1743;
},
{
anchors = (
{
name = bottom;
position = "{875, 0}";
},
{
name = center;
position = "{875, 825}";
},
{
name = top;
position = "{875, 1650}";
}
);
hints = (
{
horizontal = 1;
origin = (0,1);
target = (0,8);
type = Stem;
},
{
origin = (0,10);
target = (0,0);
type = Stem;
},
{
origin = (0,6);
target = (0,4);
type = Stem;
},
{
horizontal = 1;
origin = (0,9);
target = down;
type = TopGhost;
},
{
horizontal = 1;
origin = (0,11);
target = up;
type = BottomGhost;
}
);
layerId = "E09A619D-4294-46CA-BAB2-AF903DA4D17A";
shapes = (
{
closed = 1;
nodes = (
(387,0,l,{name = ._.2631344219392;}),
(387,780,l,{name = ._.2631344219872;}),
(1363,780,l),
(1363,0,l),
(1469,0,l,{name = ._.2631344220672;}),
(1469,1650,l),
(1363,1650,l,{name = ._.2631344222272;}),
(1363,874,l),
(387,874,l,{name = ._.2631344220192;}),
(387,1650,l,{name = ._.2631344220272;}),
(281,1650,l,{name = ._.2631344221872;}),
(281,0,l,{name = ._.2631344220352;})
);
}
);
width = 1750;
},
{
anchors = (
{
name = bottom;
position = "{877, 0}";
},
{
name = center;
position = "{877, 825}";
},
{
name = top;
position = "{877, 1650}";
}
);
hints = (
{
horizontal = 1;
origin = (0,1);
target = (0,8);
type = Stem;
},
{
origin = (0,10);
target = (0,0);
type = Stem;
},
{
origin = (0,6);
target = (0,4);
type = Stem;
},
{
horizontal = 1;
origin = (0,9);
target = down;
type = TopGhost;
},
{
horizontal = 1;
origin = (0,11);
target = up;
type = BottomGhost;
}
);
layerId = "EF8C5D96-1952-40CF-ADD4-E541C160E9A9";
shapes = (
{
closed = 1;
nodes = (
(364,0,l,{name = ._.2631344228592;}),
(364,793,l,{name = ._.2631344225712;}),
(1390,793,l),
(1390,0,l),
(1466,0,l,{name = ._.2631344225872;}),
(1466,1650,l),
(1390,1650,l,{name = ._.2631344226032;}),
(1390,861,l),
(364,861,l,{name = ._.2631344226832;}),
(364,1650,l,{name = ._.2631344225952;}),
(288,1650,l,{name = ._.2631344226512;}),
(288,0,l,{name = ._.2631344227232;})
);
}
);
width = 1754;
},
{
anchors = (
{
name = bottom;
position = "{879, 0}";
},
{
name = center;
position = "{879, 825}";
},
{
name = top;
position = "{879, 1650}";
}
);
hints = (
{
horizontal = 1;
origin = (0,1);
target = (0,8);
type = Stem;
},
{
origin = (0,10);
target = (0,0);
type = Stem;
},
{
origin = (0,6);
target = (0,4);
type = Stem;
},
{
horizontal = 1;
origin = (0,9);
target = down;
type = TopGhost;
},
{
horizontal = 1;
origin = (0,11);
target = up;
type = BottomGhost;
}
);
layerId = "F24CAE32-9A56-4E55-8360-BB7561E69AAD";
shapes = (
{
closed = 1;
nodes = (
(349,0,l,{name = ._.2631344232752;}),
(349,802,l,{name = ._.2631344232032;}),
(1409,802,l),
(1409,0,l),
(1465,0,l,{name = ._.2631344230432;}),
(1465,1650,l),
(1409,1650,l,{name = ._.2631344229472;}),
(1409,852,l),
(349,852,l,{name = ._.2631344233232;}),
(349,1650,l,{name = ._.2631344231152;}),
(293,1650,l,{name = ._.2631344231872;}),
(293,0,l,{name = ._.2631344232112;})
);
}
);
width = 1758;
}
);
unicode = 72;
},
{
color = (153, 255, 154, 255);
glyphname = Hbar;
layers = (
{
hints = (
{
horizontal = 1;
origin = (0,1);
target = (0,8);
type = Stem;
},
{
horizontal = 1;
origin = (1,3);
target = (1,2);
type = Stem;
},
{
origin = (0,10);
target = (0,0);
type = Stem;
},
{
origin = (0,6);
target = (0,4);
type = Stem;
},
{
horizontal = 1;
origin = (0,11);
target = up;
type = BottomGhost;
},
{
horizontal = 1;
origin = (0,9);
target = down;
type = TopGhost;
}
);
layerId = "0219FCCD-76EF-4311-8338-E1F0504E85BF";
shapes = (
{
closed = 1;
nodes = (
(636,0,l,{name = ._.2631344237552;}),
(636,580,l,{name = ._.2631344236592;}),
(1060,580,l),
(1060,0,l),
(1500,0,l,{name = ._.2631344235392;}),
(1500,1650,l),
(1060,1650,l,{name = ._.2631344238032;}),
(1060,874,l),
(636,874,l,{name = ._.2631344236672;}),
(636,1650,l,{name = ._.2631344236832;}),
(196,1650,l,{name = ._.2631344233792;}),
(196,0,l,{name = ._.2631344234432;})
);
},
{
closed = 1;
nodes = (
(1630,1064,l),
(1630,1358,l),
(66,1358,l,{name = ._.2631344235952;}),
(66,1064,l,{name = ._.2631344236032;})
);
}
);
width = 1696;
},
{
hints = (
{
horizontal = 1;
origin = (0,1);
target = (0,8);
type = Stem;
},
{
horizontal = 1;
origin = (1,3);
target = (1,2);
type = Stem;
},
{
origin = (0,10);
target = (0,0);
type = Stem;
},
{
origin = (0,6);
target = (0,4);
type = Stem;
},
{
horizontal = 1;
origin = (0,11);
target = up;
type = BottomGhost;
},
{
horizontal = 1;
origin = (0,9);
target = down;
type = TopGhost;
}
);
layerId = "EF133E1C-A42C-4162-B993-78888479ABEC";
shapes = (
{
closed = 1;
nodes = (
(588,0,l,{name = ._.2631344240832;}),
(588,612,l,{name = ._.2631344241872;}),
(1118,612,l),
(1118,0,l),
(1494,0,l,{name = ._.2631344240272;}),
(1494,1650,l),
(1118,1650,l,{name = ._.2631344240512;}),
(1118,865,l),
(588,865,l,{name = ._.2631344241312;}),
(588,1650,l,{name = ._.2631344242432;}),
(212,1650,l,{name = ._.2631344242112;}),
(212,0,l,{name = ._.2631344241952;})
);
},
{
closed = 1;
nodes = (
(1624,1065,l),
(1624,1318,l),
(82,1318,l,{name = ._.2631344243872;}),
(82,1065,l,{name = ._.2631344238912;})
);
}
);
width = 1706;
},
{
hints = (
{
horizontal = 1;
origin = (0,1);
target = (0,8);
type = Stem;
},
{
horizontal = 1;
origin = (1,3);
target = (1,2);
type = Stem;
},
{
origin = (0,10);
target = (0,0);
type = Stem;
},
{
origin = (0,6);
target = (0,4);
type = Stem;
},
{
horizontal = 1;
origin = (0,11);
target = up;
type = BottomGhost;
},
{
horizontal = 1;
origin = (0,9);
target = down;
type = TopGhost;
}
);
layerId = "11DBA8EB-E381-4810-A5CC-CC1A00595979";
shapes = (
{
closed = 1;
nodes = (
(537,0,l,{name = ._.2631344244352;}),
(537,646,l,{name = ._.2631344248592;}),
(1179,646,l),
(1179,0,l),
(1487,0,l,{name = ._.2631344245872;}),
(1487,1650,l),
(1179,1650,l,{name = ._.2631344247232;}),
(1179,856,l),
(537,856,l,{name = ._.2631344246592;}),
(537,1650,l,{name = ._.2631344249072;}),
(229,1650,l,{name = ._.2631344244032;}),
(229,0,l,{name = ._.2631344244272;})
);
},
{
closed = 1;
nodes = (
(1618,1066,l),
(1618,1276,l),
(98,1276,l,{name = ._.2631344246752;}),
(98,1066,l,{name = ._.2631344246832;})
);
}
);
width = 1716;
},
{
hints = (
{
horizontal = 1;
origin = (0,1);
target = (0,8);
type = Stem;
},
{
horizontal = 1;
origin = (1,3);
target = (1,2);
type = Stem;
},
{
origin = (0,10);
target = (0,0);
type = Stem;
},
{
origin = (0,6);
target = (0,4);
type = Stem;
},
{
horizontal = 1;
origin = (0,11);
target = up;
type = BottomGhost;
},
{
horizontal = 1;
origin = (0,9);
target = down;
type = TopGhost;
}
);
layerId = "226AFDD0-2700-445C-A4CF-7C4B26695C22";
shapes = (
{
closed = 1;
nodes = (
(494,0,l,{name = ._.2631344251232;}),
(494,675,l,{name = ._.2631344249232;}),
(1232,675,l),
(1232,0,l),
(1482,0,l,{name = ._.2631344253552;}),
(1482,1650,l),
(1232,1650,l,{name = ._.2631344253712;}),
(1232,848,l),
(494,848,l,{name = ._.2631344253952;}),
(494,1650,l,{name = ._.2631344254032;}),
(244,1650,l,{name = ._.2631344254112;}),
(244,0,l,{name = ._.2631344250832;})
);
},
{
closed = 1;
nodes = (
(1614,1067,l),
(1614,1240,l),
(112,1240,l,{name = ._.2631344250352;}),
(112,1067,l,{name = ._.2631344258752;})
);
}
);
width = 1726;
},
{
hints = (
{
horizontal = 1;
origin = (0,1);
target = (0,8);
type = Stem;
},
{
horizontal = 1;
origin = (1,3);
target = (1,2);
type = Stem;
},
{
origin = (0,10);
target = (0,0);
type = Stem;
},
{
origin = (0,6);
target = (0,4);
type = Stem;
},
{
horizontal = 1;
origin = (0,11);
target = up;
type = BottomGhost;
},
{
horizontal = 1;
origin = (0,9);
target = down;
type = TopGhost;
}
);
layerId = "8E8E586A-81E9-433C-8BD9-4265646900C1";
shapes = (
{
closed = 1;
nodes = (
(460,0,l,{name = ._.2631344257792;}),
(460,698,l,{name = ._.2631344259072;}),
(1274,698,l),
(1274,0,l),
(1478,0,l,{name = ._.2631344254512;}),
(1478,1650,l),
(1274,1650,l,{name = ._.2631344258032;}),
(1274,842,l),
(460,842,l,{name = ._.2631344256192;}),
(460,1650,l,{name = ._.2631344256512;}),
(256,1650,l,{name = ._.2631344256832;}),
(256,0,l,{name = ._.2631344258432;})
);
},
{
closed = 1;
nodes = (
(1611,1068,l),
(1611,1212,l),
(123,1212,l,{name = ._.2631344261712;}),
(123,1068,l,{name = ._.2631344261792;})
);
}
);
width = 1733;
},
{
hints = (
{
horizontal = 1;
origin = (0,1);
target = (0,8);
type = Stem;
},
{
horizontal = 1;
origin = (1,3);
target = (1,2);
type = Stem;
},
{
origin = (0,10);
target = (0,0);
type = Stem;
},
{
origin = (0,6);
target = (0,4);
type = Stem;
},
{
horizontal = 1;
origin = (0,11);
target = up;
type = BottomGhost;
},
{
horizontal = 1;
origin = (0,9);
target = down;
type = TopGhost;
}
);
layerId = "24B4D503-66A8-4B4A-943D-7DAB8AE883B0";
shapes = (
{
closed = 1;
nodes = (
(417,0,l,{name = ._.2631344263152;}),
(417,727,l,{name = ._.2631344263472;}),
(1327,727,l),
(1327,0,l),
(1473,0,l,{name = ._.2631344259632;}),
(1473,1650,l),
(1327,1650,l,{name = ._.2631344259952;}),
(1327,834,l),
(417,834,l,{name = ._.2631344260672;}),
(417,1650,l,{name = ._.2631344264352;}),
(271,1650,l,{name = ._.2631344259552;}),
(271,0,l,{name = ._.2631344263632;})
);
},
{
closed = 1;
nodes = (
(1607,1069,l),
(1607,1176,l),
(137,1176,l,{name = ._.2631344269312;}),
(137,1069,l,{name = ._.2631344265872;})
);
}
);
width = 1744;
},
{
hints = (
{
horizontal = 1;
origin = (0,1);
target = (0,8);
type = Stem;
},
{
horizontal = 1;
origin = (1,3);
target = (1,2);
type = Stem;
},
{
origin = (0,10);
target = (0,0);
type = Stem;
},
{
origin = (0,6);
target = (0,4);
type = Stem;
},
{
horizontal = 1;
origin = (0,11);
target = up;
type = BottomGhost;
},
{
horizontal = 1;
origin = (0,9);
target = down;
type = TopGhost;
}
);
layerId = "E09A619D-4294-46CA-BAB2-AF903DA4D17A";
shapes = (
{
closed = 1;
nodes = (
(387,0,l,{name = ._.2631344268752;}),
(387,747,l,{name = ._.2631344265152;}),
(1364,747,l),
(1364,0,l),
(1470,0,l,{name = ._.2631344267472;}),
(1470,1651,l),
(1364,1651,l,{name = ._.2631344269072;}),
(1364,829,l),
(387,829,l,{name = ._.2631344266032;}),
(387,1651,l,{name = ._.2631344269232;}),
(281,1651,l,{name = ._.2631344265072;}),
(281,0,l,{name = ._.2631344266512;})
);
},
{
closed = 1;
nodes = (
(1605,1070,l),
(1605,1152,l),
(146,1152,l,{name = ._.2631344274112;}),
(146,1070,l,{name = ._.2631344272112;})
);
}
);
width = 1751;
},
{
hints = (
{
horizontal = 1;
origin = (0,1);
target = (0,8);
type = Stem;
},
{
horizontal = 1;
origin = (1,3);
target = (1,2);
type = Stem;
},
{
origin = (0,10);
target = (0,0);
type = Stem;
},
{
origin = (0,6);
target = (0,4);
type = Stem;
},
{
horizontal = 1;
origin = (0,11);
target = up;
type = BottomGhost;
},
{
horizontal = 1;
origin = (0,9);
target = down;
type = TopGhost;
}
);
layerId = "EF8C5D96-1952-40CF-ADD4-E541C160E9A9";
shapes = (
{
closed = 1;
nodes = (
(364,0,l,{name = ._.2631344270352;}),
(364,762,l,{name = ._.2631344270912;}),
(1391,762,l),
(1391,0,l),
(1467,0,l,{name = ._.2631344270992;}),
(1467,1651,l),
(1391,1651,l,{name = ._.2631344271072;}),
(1391,825,l),
(364,825,l,{name = ._.2631344272992;}),
(364,1651,l,{name = ._.2631344269872;}),
(288,1651,l,{name = ._.2631344273472;}),
(288,0,l,{name = ._.2631344274592;})
);
},
{
closed = 1;
nodes = (
(1602,1070,l),
(1602,1133,l),
(153,1133,l,{name = ._.2631344276272;}),
(153,1070,l,{name = ._.2631344276512;})
);
}
);
width = 1755;
},
{
hints = (
{
horizontal = 1;
origin = (0,1);
target = (0,8);
type = Stem;
},
{
horizontal = 1;
origin = (1,3);
target = (1,2);
type = Stem;
},
{
origin = (0,10);
target = (0,0);
type = Stem;
},
{
origin = (0,6);
target = (0,4);
type = Stem;
},
{
horizontal = 1;
origin = (0,11);
target = up;
type = BottomGhost;
},
{
horizontal = 1;
origin = (0,9);
target = down;
type = TopGhost;
}
);
layerId = "F24CAE32-9A56-4E55-8360-BB7561E69AAD";
shapes = (
{
closed = 1;
nodes = (
(349,0,l,{name = ._.2631344278992;}),
(349,772,l,{name = ._.2631344278272;}),
(1409,772,l),
(1409,0,l),
(1465,0,l,{name = ._.2631344278112;}),
(1465,1650,l),
(1409,1650,l,{name = ._.2631344279232;}),
(1409,822,l),
(349,822,l,{name = ._.2631344279472;}),
(349,1650,l,{name = ._.2631344279552;}),
(293,1650,l,{name = ._.2631344279632;}),
(293,0,l,{name = ._.2631344279712;})
);
},
{
closed = 1;
nodes = (
(1600,1070,l),
(1600,1120,l),
(158,1120,l,{name = ._.2631344281072;}),
(158,1070,l,{name = ._.2631344284752;})
);
}
);
width = 1758;
}
);
unicode = 294;
},
{
color = (153, 255, 154, 255);
glyphname = I;
layers = (
{
anchors = (
{
name = bottom;
position = "{416, 0}";
},
{
name = ogonek;
position = "{636, 0}";
},
{
name = top;
position = "{416, 1650}";
}
);
hints = (
{
origin = (0,2);
target = (0,0);
type = Stem;
},
{
horizontal = 1;
origin = (0,3);
target = up;
type = BottomGhost;
},
{
horizontal = 1;
origin = (0,1);
target = down;
type = TopGhost;
}
);
layerId = "0219FCCD-76EF-4311-8338-E1F0504E85BF";
shapes = (
{
closed = 1;
nodes = (
(636,0,l,{name = ._.2631344282192;}),
(636,1650,l,{name = ._.2631344286352;}),
(196,1650,l,{name = ._.2631344289552;}),
(196,0,l,{name = ._.2631344289072;})
);
}
);
width = 832;
},
{
anchors = (
{
name = bottom;
position = "{400, 0}";
},
{
name = ogonek;
position = "{588, 0}";
},
{
name = top;
position = "{400, 1650}";
}
);
hints = (
{
origin = (0,2);
target = (0,0);
type = Stem;
},
{
horizontal = 1;
origin = (0,3);
target = up;
type = BottomGhost;
},
{
horizontal = 1;
origin = (0,1);
target = down;
type = TopGhost;
}
);
layerId = "EF133E1C-A42C-4162-B993-78888479ABEC";
shapes = (
{
closed = 1;
nodes = (
(588,0,l,{name = ._.2631344289632;}),
(588,1650,l,{name = ._.2631344288672;}),
(212,1650,l,{name = ._.2631344285872;}),
(212,0,l,{name = ._.2631344288752;})
);
}
);
width = 800;
},
{
anchors = (
{
name = bottom;
position = "{383, 0}";
},
{
name = ogonek;
position = "{537, 0}";
},
{
name = top;
position = "{383, 1650}";
}
);
hints = (
{
origin = (0,2);
target = (0,0);
type = Stem;
},
{
horizontal = 1;
origin = (0,3);
target = up;
type = BottomGhost;
},
{
horizontal = 1;
origin = (0,1);
target = down;
type = TopGhost;
}
);
layerId = "11DBA8EB-E381-4810-A5CC-CC1A00595979";
shapes = (
{
closed = 1;
nodes = (
(537,0,l,{name = ._.2631344294592;}),
(537,1650,l,{name = ._.2631344293312;}),
(229,1650,l,{name = ._.2631344294672;}),
(229,0,l,{name = ._.2631344292592;})
);
}
);
width = 766;
},
{
anchors = (
{
name = bottom;
position = "{369, 0}";
},
{
name = ogonek;
position = "{494, 0}";
},
{
name = top;
position = "{369, 1650}";
}
);
hints = (
{
origin = (0,2);
target = (0,0);
type = Stem;
},
{
horizontal = 1;
origin = (0,3);
target = up;
type = BottomGhost;
},
{
horizontal = 1;
origin = (0,1);
target = down;
type = TopGhost;
}
);
layerId = "226AFDD0-2700-445C-A4CF-7C4B26695C22";
shapes = (
{
closed = 1;
nodes = (
(494,0,l,{name = ._.2631344292272;}),
(494,1650,l,{name = ._.2631344293792;}),
(244,1650,l,{name = ._.2631344291312;}),
(244,0,l,{name = ._.2631344294352;})
);
}
);
width = 737;
},
{
anchors = (
{
name = bottom;
position = "{357, 0}";
},
{
name = ogonek;
position = "{459, 0}";
},
{
name = top;
position = "{357, 1650}";
}
);
hints = (
{
origin = (0,2);
target = (0,0);
type = Stem;
},
{
horizontal = 1;
origin = (0,3);
target = up;
type = BottomGhost;
},
{
horizontal = 1;
origin = (0,1);
target = down;
type = TopGhost;
}
);
layerId = "8E8E586A-81E9-433C-8BD9-4265646900C1";
shapes = (
{
closed = 1;
nodes = (
(459,0,l,{name = ._.2631344297072;}),
(459,1650,l,{name = ._.2631344299712;}),
(255,1650,l,{name = ._.2631344298432;}),
(255,0,l,{name = ._.2631344299792;})
);
}
);
width = 714;
},
{
anchors = (
{
name = bottom;
position = "{343, 0}";
},
{
name = ogonek;
position = "{416, 0}";
},
{
name = top;
position = "{343, 1650}";
}
);
hints = (
{
origin = (0,2);
target = (0,0);
type = Stem;
},
{
horizontal = 1;
origin = (0,3);
target = up;
type = BottomGhost;
},
{
horizontal = 1;
origin = (0,1);
target = down;
type = TopGhost;
}
);
layerId = "24B4D503-66A8-4B4A-943D-7DAB8AE883B0";
shapes = (
{
closed = 1;
nodes = (
(416,0,l,{name = ._.2631344296432;}),
(416,1650,l,{name = ._.2631344300032;}),
(270,1650,l,{name = ._.2631344297232;}),
(270,0,l,{name = ._.2631344300192;})
);
}
);
width = 686;
},
{
anchors = (
{
name = bottom;
position = "{333, 0}";
},
{
name = ogonek;
position = "{386, 0}";
},
{
name = top;
position = "{333, 1650}";
}
);
hints = (
{
origin = (0,2);
target = (0,0);
type = Stem;
},
{
horizontal = 1;
origin = (0,3);
target = up;
type = BottomGhost;
},
{
horizontal = 1;
origin = (0,1);
target = down;
type = TopGhost;
}
);
layerId = "E09A619D-4294-46CA-BAB2-AF903DA4D17A";
shapes = (
{
closed = 1;
nodes = (
(386,0,l,{name = ._.2631344301472;}),
(386,1650,l,{name = ._.2631344301632;}),
(280,1650,l,{name = ._.2631344304192;}),
(280,0,l,{name = ._.2631344303232;})
);
}
);
width = 667;
},
{
anchors = (
{
name = bottom;
position = "{326, 0}";
},
{
name = ogonek;
position = "{364, 0}";
},
{
name = top;
position = "{326, 1650}";
}
);
hints = (
{
origin = (0,2);
target = (0,0);
type = Stem;
},
{
horizontal = 1;
origin = (0,3);
target = up;
type = BottomGhost;
},
{
horizontal = 1;
origin = (0,1);
target = down;
type = TopGhost;
}
);
layerId = "EF8C5D96-1952-40CF-ADD4-E541C160E9A9";
shapes = (
{
closed = 1;
nodes = (
(364,0,l,{name = ._.2631344302512;}),
(364,1650,l,{name = ._.2631344300992;}),
(288,1650,l,{name = ._.2631344301152;}),
(288,0,l,{name = ._.2631344301312;})
);
}
);
width = 652;
},
{
anchors = (
{
name = bottom;
position = "{321, 0}";
},
{
name = ogonek;
position = "{349, 0}";
},
{
name = top;
position = "{321, 1650}";
}
);
hints = (
{
origin = (0,2);
target = (0,0);
type = Stem;
},
{
horizontal = 1;
origin = (0,3);
target = up;
type = BottomGhost;
},
{
horizontal = 1;
origin = (0,1);
target = down;
type = TopGhost;
}
);
layerId = "F24CAE32-9A56-4E55-8360-BB7561E69AAD";
shapes = (
{
closed = 1;
nodes = (
(349,0,l,{name = ._.2631344307712;}),
(349,1650,l,{name = ._.2631344309792;}),
(293,1650,l,{name = ._.2631344308592;}),
(293,0,l,{name = ._.2631344308272;})
);
}
);
width = 642;
}
);
unicode = 73;
},
{
color = (153, 255, 154, 255);
glyphname = J;
layers = (
{
anchors = (
{
name = bottom;
position = "{422, -32}";
},
{
name = top;
position = "{699, 1650}";
}
);
layerId = "0219FCCD-76EF-4311-8338-E1F0504E85BF";
shapes = (
{
closed = 1;
nodes = (
(722,-32,o),
(908,148,o),
(908,464,cs),
(908,1650,l),
(468,1650,l),
(468,574,ls),
(468,462,o),
(417,390,o),
(338,390,cs),
(293,390,o),
(230,413,o),
(170,472,c),
(-70,208,l),
(71,41,o),
(218,-32,o),
(415,-32,cs)
);
}
);
width = 1085;
},
{
anchors = (
{
name = bottom;
position = "{447, -26}";
},
{
name = top;
position = "{690, 1650}";
}
);
layerId = "EF133E1C-A42C-4162-B993-78888479ABEC";
shapes = (
{
closed = 1;
nodes = (
(747,-32,o),
(933,148,o),
(933,464,cs),
(933,1650,l),
(557,1650,l),
(557,559,ls),
(557,416,o),
(489,328,o),
(377,328,cs),
(317,328,o),
(246,355,o),
(180,421,c),
(-26,193,l),
(110,37,o),
(251,-32,o),
(440,-32,cs)
);
}
);
width = 1127;
},
{
anchors = (
{
name = bottom;
position = "{473, -20}";
},
{
name = top;
position = "{681, 1650}";
}
);
layerId = "11DBA8EB-E381-4810-A5CC-CC1A00595979";
shapes = (
{
closed = 1;
nodes = (
(775,-32,o),
(960,149,o),
(960,464,cs),
(960,1650,l),
(652,1650,l),
(652,544,ls),
(652,368,o),
(565,263,o),
(418,263,cs),
(342,263,o),
(263,294,o),
(191,367,c),
(22,178,l),
(151,32,o),
(287,-32,o),
(467,-32,cs)
);
}
);
width = 1171;
},
{
anchors = (
{
name = bottom;
position = "{496, -16}";
},
{
name = top;
position = "{673, 1650}";
}
);
layerId = "226AFDD0-2700-445C-A4CF-7C4B26695C22";
shapes = (
{
closed = 1;
nodes = (
(799,-32,o),
(983,150,o),
(983,464,cs),
(983,1650,l),
(733,1650,l),
(733,531,ls),
(733,327,o),
(630,207,o),
(454,207,cs),
(363,207,o),
(277,242,o),
(200,321,c),
(62,164,l),
(186,28,o),
(318,-32,o),
(490,-32,cs)
);
}
);
width = 1209;
},
{
anchors = (
{
name = bottom;
position = "{515, -12}";
},
{
name = top;
position = "{668, 1650}";
}
);
layerId = "8E8E586A-81E9-433C-8BD9-4265646900C1";
shapes = (
{
closed = 1;
nodes = (
(817,-32,o),
(1001,151,o),
(1001,464,cs),
(1001,1650,l),
(797,1650,l),
(797,521,ls),
(797,295,o),
(681,163,o),
(482,163,cs),
(380,163,o),
(288,201,o),
(207,285,c),
(94,154,l),
(214,25,o),
(342,-32,o),
(508,-32,cs)
);
}
);
width = 1239;
},
{
anchors = (
{
name = bottom;
position = "{537, -7}";
},
{
name = top;
position = "{659, 1650}";
}
);
layerId = "24B4D503-66A8-4B4A-943D-7DAB8AE883B0";
shapes = (
{
closed = 1;
nodes = (
(840,-32,o),
(1023,152,o),
(1023,464,cs),
(1023,1650,l),
(877,1650,l),
(877,508,ls),
(877,254,o),
(745,107,o),
(517,107,cs),
(401,107,o),
(301,149,o),
(216,239,c),
(134,141,l),
(248,21,o),
(371,-32,o),
(531,-32,cs)
);
}
);
width = 1277;
},
{
anchors = (
{
name = bottom;
position = "{553, -4}";
},
{
name = top;
position = "{654, 1650}";
}
);
layerId = "E09A619D-4294-46CA-BAB2-AF903DA4D17A";
shapes = (
{
closed = 1;
nodes = (
(856,-32,o),
(1039,152,o),
(1039,464,cs),
(1039,1650,l),
(933,1650,l),
(933,499,ls),
(933,225,o),
(790,68,o),
(542,68,cs),
(416,68,o),
(311,113,o),
(223,207,c),
(162,131,l),
(273,18,o),
(392,-32,o),
(547,-32,cs)
);
}
);
width = 1303;
},
{
anchors = (
{
name = bottom;
position = "{565, -2}";
},
{
name = top;
position = "{651, 1650}";
}
);
layerId = "EF8C5D96-1952-40CF-ADD4-E541C160E9A9";
shapes = (
{
closed = 1;
nodes = (
(868,-32,o),
(1051,152,o),
(1051,464,cs),
(1051,1650,l),
(975,1650,l),
(975,492,ls),
(975,204,o),
(824,39,o),
(561,39,cs),
(427,39,o),
(319,86,o),
(228,183,c),
(183,124,l),
(292,16,o),
(408,-32,o),
(559,-32,cs)
);
}
);
width = 1322;
},
{
anchors = (
{
name = bottom;
position = "{573, 0}";
},
{
name = top;
position = "{648, 1650}";
}
);
layerId = "F24CAE32-9A56-4E55-8360-BB7561E69AAD";
shapes = (
{
closed = 1;
nodes = (
(876,-32,o),
(1059,153,o),
(1059,464,cs),
(1059,1650,l),
(1003,1650,l),
(1003,488,ls),
(1003,190,o),
(847,20,o),
(573,20,cs),
(435,20,o),
(324,68,o),
(231,167,c),
(197,120,l),
(304,15,o),
(419,-32,o),
(567,-32,cs)
);
}
);
width = 1335;
}
);
unicode = 74;
},
{
color = (153, 255, 154, 255);
glyphname = K;
layers = (
{
anchors = (
{
name = bottom;
position = "{865, 0}";
},
{
name = top;
position = "{865, 1650}";
}
);
hints = (
{
origin = (0,9);
target = (0,0);
type = Stem;
},
{
horizontal = 1;
origin = (0,6);
target = down;
type = TopGhost;
},
{
horizontal = 1;
origin = (0,2);
target = up;
type = BottomGhost;
}
);
layerId = "0219FCCD-76EF-4311-8338-E1F0504E85BF";
shapes = (
{
closed = 1;
nodes = (
(636,0,l,{name = ._.2631345259184;}),
(636,662,l),
(1188,0,l,{name = ._.2631345257024;}),
(1794,0,l),
(1044,872,l),
(1684,1650,l),
(1150,1650,l,{name = ._.2631345258624;}),
(636,1008,l),
(636,1650,l),
(196,1650,l,{name = ._.2631345257744;}),
(196,0,l)
);
}
);
width = 1740;
},
{
anchors = (
{
name = bottom;
position = "{842, 0}";
},
{
name = top;
position = "{842, 1650}";
}
);
hints = (
{
origin = (0,9);
target = (0,0);
type = Stem;
},
{
horizontal = 1;
origin = (0,6);
target = down;
type = TopGhost;
},
{
horizontal = 1;
origin = (0,2);
target = up;
type = BottomGhost;
}
);
layerId = "EF133E1C-A42C-4162-B993-78888479ABEC";
shapes = (
{
closed = 1;
nodes = (
(588,0,l,{name = ._.2631345255184;}),
(588,681,l),
(1196,0,l,{name = ._.2631345259744;}),
(1714,0,l),
(934,863,l),
(1610,1650,l),
(1152,1650,l,{name = ._.2631345255264;}),
(588,983,l),
(588,1650,l),
(212,1650,l,{name = ._.2631345257104;}),
(212,0,l)
);
}
);
width = 1688;
},
{
anchors = (
{
name = bottom;
position = "{818, 0}";
},
{
name = top;
position = "{818, 1650}";
}
);
hints = (
{
origin = (0,9);
target = (0,0);
type = Stem;
},
{
horizontal = 1;
origin = (0,6);
target = down;
type = TopGhost;
},
{
horizontal = 1;
origin = (0,2);
target = up;
type = BottomGhost;
}
);
layerId = "11DBA8EB-E381-4810-A5CC-CC1A00595979";
shapes = (
{
closed = 1;
nodes = (
(537,0,l,{name = ._.2631345262064;}),
(537,702,l),
(1204,0,l,{name = ._.2631345262864;}),
(1630,0,l),
(818,854,l),
(1532,1650,l),
(1155,1650,l,{name = ._.2631345262704;}),
(537,956,l),
(537,1650,l),
(229,1650,l,{name = ._.2631345261024;}),
(229,0,l)
);
}
);
width = 1633;
},
{
anchors = (
{
name = bottom;
position = "{797, 0}";
},
{
name = top;
position = "{798, 1650}";
}
);
hints = (
{
origin = (0,9);
target = (0,0);
type = Stem;
},
{
horizontal = 1;
origin = (0,6);
target = down;
type = TopGhost;
},
{
horizontal = 1;
origin = (0,2);
target = up;
type = BottomGhost;
}
);
layerId = "226AFDD0-2700-445C-A4CF-7C4B26695C22";
shapes = (
{
closed = 1;
nodes = (
(494,0,l,{name = ._.2631345264064;}),
(494,719,l),
(1211,0,l,{name = ._.2631345264784;}),
(1558,0,l),
(719,846,l),
(1466,1650,l),
(1157,1650,l,{name = ._.2631345265424;}),
(494,933,l),
(494,1650,l),
(244,1650,l,{name = ._.2631345266224;}),
(244,0,l)
);
}
);
width = 1586;
},
{
anchors = (
{
name = bottom;
position = "{781, 0}";
},
{
name = top;
position = "{782, 1650}";
}
);
hints = (
{
origin = (0,9);
target = (0,0);
type = Stem;
},
{
horizontal = 1;
origin = (0,6);
target = down;
type = TopGhost;
},
{
horizontal = 1;
origin = (0,2);
target = up;
type = BottomGhost;
}
);
layerId = "8E8E586A-81E9-433C-8BD9-4265646900C1";
shapes = (
{
closed = 1;
nodes = (
(460,0,l,{name = ._.2631345268224;}),
(460,733,l),
(1217,0,l,{name = ._.2631345268864;}),
(1501,0,l),
(641,840,l),
(1413,1650,l),
(1159,1650,l,{name = ._.2631345265664;}),
(460,915,l),
(460,1650,l),
(256,1650,l,{name = ._.2631345269184;}),
(256,0,l)
);
}
);
width = 1549;
},
{
anchors = (
{
name = bottom;
position = "{761, 0}";
},
{
name = top;
position = "{761, 1650}";
}
);
hints = (
{
origin = (0,9);
target = (0,0);
type = Stem;
},
{
horizontal = 1;
origin = (0,6);
target = down;
type = TopGhost;
},
{
horizontal = 1;
origin = (0,2);
target = up;
type = BottomGhost;
}
);
layerId = "24B4D503-66A8-4B4A-943D-7DAB8AE883B0";
shapes = (
{
closed = 1;
nodes = (
(417,0,l,{name = ._.2631345273424;}),
(417,751,l),
(1225,0,l,{name = ._.2631345273344;}),
(1430,0,l),
(543,832,l),
(1347,1650,l),
(1162,1650,l,{name = ._.2631345272464;}),
(417,892,l),
(417,1650,l),
(271,1650,l,{name = ._.2631345272384;}),
(271,0,l)
);
}
);
width = 1502;
},
{
anchors = (
{
name = bottom;
position = "{747, 0}";
},
{
name = top;
position = "{748, 1650}";
}
);
hints = (
{
origin = (0,9);
target = (0,0);
type = Stem;
},
{
horizontal = 1;
origin = (0,6);
target = down;
type = TopGhost;
},
{
horizontal = 1;
origin = (0,2);
target = up;
type = BottomGhost;
}
);
layerId = "E09A619D-4294-46CA-BAB2-AF903DA4D17A";
shapes = (
{
closed = 1;
nodes = (
(387,0,l,{name = ._.2631345271664;}),
(387,763,l),
(1230,0,l,{name = ._.2631345270864;}),
(1381,0,l),
(475,827,l),
(1301,1650,l),
(1163,1650,l,{name = ._.2631345272304;}),
(387,876,l),
(387,1650,l),
(281,1650,l,{name = ._.2631345274784;}),
(281,0,l)
);
}
);
width = 1469;
},
{
anchors = (
{
name = bottom;
position = "{738, 0}";
},
{
name = top;
position = "{738, 1650}";
}
);
hints = (
{
origin = (0,9);
target = (0,0);
type = Stem;
},
{
horizontal = 1;
origin = (0,6);
target = down;
type = TopGhost;
},
{
horizontal = 1;
origin = (0,2);
target = up;
type = BottomGhost;
}
);
layerId = "EF8C5D96-1952-40CF-ADD4-E541C160E9A9";
shapes = (
{
closed = 1;
nodes = (
(364,0,l,{name = ._.2631345278464;}),
(364,772,l),
(1233,0,l,{name = ._.2631345278864;}),
(1343,0,l),
(423,823,l),
(1266,1650,l),
(1164,1650,l,{name = ._.2631345280224;}),
(364,864,l),
(364,1650,l),
(288,1650,l,{name = ._.2631345279104;}),
(288,0,l)
);
}
);
width = 1445;
},
{
anchors = (
{
name = bottom;
position = "{731, 0}";
},
{
name = top;
position = "{731, 1650}";
}
);
hints = (
{
origin = (0,9);
target = (0,0);
type = Stem;
},
{
horizontal = 1;
origin = (0,6);
target = down;
type = TopGhost;
},
{
horizontal = 1;
origin = (0,2);
target = up;
type = BottomGhost;
}
);
layerId = "F24CAE32-9A56-4E55-8360-BB7561E69AAD";
shapes = (
{
closed = 1;
nodes = (
(349,0,l,{name = ._.2631345283264;}),
(349,778,l),
(1235,0,l,{name = ._.2631345282544;}),
(1318,0,l),
(389,820,l),
(1243,1650,l),
(1165,1650,l,{name = ._.2631345281104;}),
(349,856,l),
(349,1650,l),
(293,1650,l,{name = ._.2631345281984;}),
(293,0,l)
);
}
);
width = 1429;
}
);
unicode = 75;
},
{
color = (153, 255, 154, 255);
glyphname = L;
layers = (
{
anchors = (
{
name = bottom;
position = "{722, 0}";
},
{
name = center;
position = "{579, 825}";
},
{
name = top;
position = "{591, 1650}";
},
{
name = topright;
position = "{1137, 1650}";
}
);
hints = (
{
horizontal = 1;
origin = (0,5);
target = (0,2);
type = Stem;
},
{
origin = (0,5);
target = (0,2);
type = Stem;
},
{
horizontal = 1;
origin = (0,4);
target = down;
type = TopGhost;
}
);
layerId = "0219FCCD-76EF-4311-8338-E1F0504E85BF";
shapes = (
{
closed = 1;
nodes = (
(1168,0,l),
(1168,386,l),
(636,386,l,{name = ._.2631346596640;}),
(636,1650,l),
(196,1650,l,{name = ._.2631346596400;}),
(196,0,l,{name = ._.2631346598960;})
);
}
);
width = 1157;
},
{
anchors = (
{
name = bottom;
position = "{705, 0}";
},
{
name = center;
position = "{586, 825}";
},
{
name = top;
position = "{593, 1650}";
},
{
name = topright;
position = "{1151, 1650}";
}
);
hints = (
{
horizontal = 1;
origin = (0,5);
target = (0,2);
type = Stem;
},
{
origin = (0,5);
target = (0,2);
type = Stem;
},
{
horizontal = 1;
origin = (0,4);
target = down;
type = TopGhost;
}
);
layerId = "EF133E1C-A42C-4162-B993-78888479ABEC";
shapes = (
{
closed = 1;
nodes = (
(1155,0,l),
(1155,330,l),
(588,330,l,{name = ._.2631346601040;}),
(588,1650,l),
(212,1650,l,{name = ._.2631346597120;}),
(212,0,l,{name = ._.2631346597680;})
);
}
);
width = 1172;
},
{
anchors = (
{
name = bottom;
position = "{687, 0}";
},
{
name = center;
position = "{594, 825}";
},
{
name = top;
position = "{597, 1650}";
},
{
name = topright;
position = "{1167, 1650}";
}
);
hints = (
{
horizontal = 1;
origin = (0,5);
target = (0,2);
type = Stem;
},
{
origin = (0,5);
target = (0,2);
type = Stem;
},
{
horizontal = 1;
origin = (0,4);
target = down;
type = TopGhost;
}
);
layerId = "11DBA8EB-E381-4810-A5CC-CC1A00595979";
shapes = (
{
closed = 1;
nodes = (
(1142,0,l),
(1142,271,l),
(537,271,l,{name = ._.2631346604720;}),
(537,1650,l),
(229,1650,l,{name = ._.2631346602640;}),
(229,0,l,{name = ._.2631346605760;})
);
}
);
width = 1187;
},
{
anchors = (
{
name = bottom;
position = "{673, 0}";
},
{
name = center;
position = "{601, 825}";
},
{
name = top;
position = "{600, 1650}";
},
{
name = topright;
position = "{1180, 1650}";
}
);
hints = (
{
horizontal = 1;
origin = (0,5);
target = (0,2);
type = Stem;
},
{
origin = (0,5);
target = (0,2);
type = Stem;
},
{
horizontal = 1;
origin = (0,4);
target = down;
type = TopGhost;
}
);
layerId = "226AFDD0-2700-445C-A4CF-7C4B26695C22";
shapes = (
{
closed = 1;
nodes = (
(1131,0,l),
(1131,220,l),
(494,220,l,{name = ._.2631346606000;}),
(494,1650,l),
(244,1650,l,{name = ._.2631346601600;}),
(244,0,l,{name = ._.2631346606240;})
);
}
);
width = 1200;
},
{
anchors = (
{
name = bottom;
position = "{661, 0}";
},
{
name = center;
position = "{606, 825}";
},
{
name = top;
position = "{602, 1650}";
},
{
name = topright;
position = "{1191, 1650}";
}
);
hints = (
{
horizontal = 1;
origin = (0,5);
target = (0,2);
type = Stem;
},
{
origin = (0,5);
target = (0,2);
type = Stem;
},
{
horizontal = 1;
origin = (0,4);
target = down;
type = TopGhost;
}
);
layerId = "8E8E586A-81E9-433C-8BD9-4265646900C1";
shapes = (
{
closed = 1;
nodes = (
(1122,0,l),
(1122,180,l),
(460,180,l,{name = ._.2631346610240;}),
(460,1650,l),
(256,1650,l,{name = ._.2631346610720;}),
(256,0,l,{name = ._.2631346609040;})
);
}
);
width = 1211;
},
{
anchors = (
{
name = bottom;
position = "{646, 0}";
},
{
name = center;
position = "{612, 825}";
},
{
name = top;
position = "{578, 1650}";
},
{
name = topright;
position = "{1204, 1650}";
}
);
hints = (
{
horizontal = 1;
origin = (0,5);
target = (0,2);
type = Stem;
},
{
origin = (0,5);
target = (0,2);
type = Stem;
},
{
horizontal = 1;
origin = (0,4);
target = down;
type = TopGhost;
}
);
layerId = "24B4D503-66A8-4B4A-943D-7DAB8AE883B0";
shapes = (
{
closed = 1;
nodes = (
(1111,0,l),
(1111,129,l),
(417,129,l,{name = ._.2631346615360;}),
(417,1650,l),
(271,1650,l,{name = ._.2631346615520;}),
(271,0,l,{name = ._.2631346612960;})
);
}
);
width = 1224;
},
{
anchors = (
{
name = bottom;
position = "{636, 0}";
},
{
name = center;
position = "{617, 825}";
},
{
name = top;
position = "{562, 1650}";
},
{
name = topright;
position = "{1213, 1650}";
}
);
hints = (
{
horizontal = 1;
origin = (0,5);
target = (0,2);
type = Stem;
},
{
origin = (0,5);
target = (0,2);
type = Stem;
},
{
horizontal = 1;
origin = (0,4);
target = down;
type = TopGhost;
}
);
layerId = "E09A619D-4294-46CA-BAB2-AF903DA4D17A";
shapes = (
{
closed = 1;
nodes = (
(1103,0,l),
(1103,94,l),
(387,94,l,{name = ._.2631346613200;}),
(387,1650,l),
(281,1650,l,{name = ._.2631346612160;}),
(281,0,l,{name = ._.2631346616480;})
);
}
);
width = 1233;
},
{
anchors = (
{
name = bottom;
position = "{628, 0}";
},
{
name = center;
position = "{621, 825}";
},
{
name = top;
position = "{551, 1650}";
},
{
name = topright;
position = "{1220, 1650}";
}
);
hints = (
{
horizontal = 1;
origin = (0,5);
target = (0,2);
type = Stem;
},
{
origin = (0,5);
target = (0,2);
type = Stem;
},
{
horizontal = 1;
origin = (0,4);
target = down;
type = TopGhost;
}
);
layerId = "EF8C5D96-1952-40CF-ADD4-E541C160E9A9";
shapes = (
{
closed = 1;
nodes = (
(1097,0,l),
(1097,68,l),
(364,68,l,{name = ._.2631346616800;}),
(364,1650,l),
(288,1650,l,{name = ._.2631346620400;}),
(288,0,l,{name = ._.2631346621120;})
);
}
);
width = 1240;
},
{
anchors = (
{
name = bottom;
position = "{623, 0}";
},
{
name = center;
position = "{623, 825}";
},
{
name = top;
position = "{543, 1650}";
},
{
name = topright;
position = "{1225, 1650}";
}
);
hints = (
{
horizontal = 1;
origin = (0,5);
target = (0,2);
type = Stem;
},
{
origin = (0,5);
target = (0,2);
type = Stem;
},
{
horizontal = 1;
origin = (0,4);
target = down;
type = TopGhost;
}
);
layerId = "F24CAE32-9A56-4E55-8360-BB7561E69AAD";
shapes = (
{
closed = 1;
nodes = (
(1093,0,l),
(1093,50,l),
(349,50,l,{name = ._.2631346616880;}),
(349,1650,l),
(293,1650,l,{name = ._.2631346619760;}),
(293,0,l,{name = ._.2631346620320;})
);
}
);
width = 1245;
}
);
unicode = 76;
},
{
color = (153, 255, 154, 255);
glyphname = Lslash;
layers = (
{
layerId = "0219FCCD-76EF-4311-8338-E1F0504E85BF";
shapes = (
{
closed = 1;
nodes = (
(889,1104,l),
(889,1462,l),
(93,836,l),
(93,478,l)
);
},
{
alignment = -1;
pos = (45,0);
ref = L;
}
);
width = 1202;
},
{
layerId = "EF133E1C-A42C-4162-B993-78888479ABEC";
shapes = (
{
closed = 1;
nodes = (
(841,1079,l),
(841,1385,l),
(104,806,l),
(104,500,l)
);
},
{
alignment = -1;
pos = (43,0);
ref = L;
}
);
width = 1214;
},
{
layerId = "11DBA8EB-E381-4810-A5CC-CC1A00595979";
shapes = (
{
closed = 1;
nodes = (
(789,1053,l),
(789,1304,l),
(115,774,l),
(115,523,l)
);
},
{
alignment = -1;
pos = (41,0);
ref = L;
}
);
width = 1227;
},
{
layerId = "226AFDD0-2700-445C-A4CF-7C4B26695C22";
shapes = (
{
closed = 1;
nodes = (
(745,1031,l),
(745,1234,l),
(125,747,l),
(125,543,l)
);
},
{
alignment = -1;
pos = (39,0);
ref = L;
}
);
width = 1238;
},
{
layerId = "8E8E586A-81E9-433C-8BD9-4265646900C1";
shapes = (
{
closed = 1;
nodes = (
(710,1013,l),
(710,1179,l),
(133,725,l),
(133,559,l)
);
},
{
alignment = -1;
pos = (37,0);
ref = L;
}
);
width = 1247;
},
{
layerId = "24B4D503-66A8-4B4A-943D-7DAB8AE883B0";
shapes = (
{
closed = 1;
nodes = (
(666,991,l),
(666,1110,l),
(143,698,l),
(143,579,l)
);
},
{
alignment = -1;
pos = (35,0);
ref = L;
}
);
width = 1258;
},
{
layerId = "E09A619D-4294-46CA-BAB2-AF903DA4D17A";
shapes = (
{
closed = 1;
nodes = (
(636,975,l),
(636,1062,l),
(150,679,l),
(150,593,l)
);
},
{
alignment = -1;
pos = (34,0);
ref = L;
}
);
width = 1266;
},
{
layerId = "EF8C5D96-1952-40CF-ADD4-E541C160E9A9";
shapes = (
{
closed = 1;
nodes = (
(613,964,l),
(613,1026,l),
(155,665,l),
(155,603,l)
);
},
{
alignment = -1;
pos = (34,0);
ref = L;
}
);
width = 1272;
},
{
layerId = "F24CAE32-9A56-4E55-8360-BB7561E69AAD";
shapes = (
{
closed = 1;
nodes = (
(598,956,l),
(598,1002,l),
(158,656,l),
(158,610,l)
);
},
{
alignment = -1;
pos = (33,0);
ref = L;
}
);
width = 1276;
}
);
unicode = 321;
},
{
color = (153, 255, 154, 255);
glyphname = M;
layers = (
{
anchors = (
{
name = bottom;
position = "{1068, 0}";
},
{
name = top;
position = "{1068, 1650}";
}
);
hints = (
{
origin = (0,11);
target = (0,1);
type = Stem;
},
{
origin = (0,4);
target = (0,7);
type = Stem;
},
{
horizontal = 1;
origin = (0,12);
target = up;
type = BottomGhost;
},
{
horizontal = 1;
origin = (0,10);
target = down;
type = TopGhost;
}
);
layerId = "0219FCCD-76EF-4311-8338-E1F0504E85BF";
shapes = (
{
closed = 1;
nodes = (
(636,0,l),
(636,730,l,{name = ._.2631346679920;}),
(940,0,l),
(1196,0,l),
(1500,730,l,{name = ._.2631346681680;}),
(1500,0,l),
(1940,0,l),
(1940,1650,l,{name = ._.2631346680000;}),
(1436,1650,l),
(1068,794,l),
(700,1650,l,{name = ._.2631346680080;}),
(196,1650,l,{name = ._.2631346680640;}),
(196,0,l,{name = ._.2631346681760;})
);
}
);
width = 2136;
},
{
anchors = (
{
name = bottom;
position = "{1048, 22}";
},
{
name = top;
position = "{1048, 1650}";
}
);
hints = (
{
origin = (0,11);
target = (0,1);
type = Stem;
},
{
origin = (0,4);
target = (0,7);
type = Stem;
},
{
horizontal = 1;
origin = (0,12);
target = up;
type = BottomGhost;
},
{
horizontal = 1;
origin = (0,10);
target = down;
type = TopGhost;
}
);
layerId = "EF133E1C-A42C-4162-B993-78888479ABEC";
shapes = (
{
closed = 1;
nodes = (
(588,0,l),
(588,858,l,{name = ._.2631346685920;}),
(936,22,l),
(1160,22,l),
(1508,858,l,{name = ._.2631346685680;}),
(1508,0,l),
(1884,0,l),
(1884,1650,l,{name = ._.2631346684640;}),
(1454,1650,l),
(1048,698,l),
(642,1650,l,{name = ._.2631346686160;}),
(212,1650,l,{name = ._.2631346687840;}),
(212,0,l,{name = ._.2631346684240;})
);
}
);
width = 2096;
},
{
anchors = (
{
name = bottom;
position = "{1027, 46}";
},
{
name = top;
position = "{1027, 1650}";
}
);
hints = (
{
origin = (0,11);
target = (0,1);
type = Stem;
},
{
origin = (0,4);
target = (0,7);
type = Stem;
},
{
horizontal = 1;
origin = (0,12);
target = up;
type = BottomGhost;
},
{
horizontal = 1;
origin = (0,10);
target = down;
type = TopGhost;
}
);
layerId = "11DBA8EB-E381-4810-A5CC-CC1A00595979";
shapes = (
{
closed = 1;
nodes = (
(537,0,l),
(537,995,l,{name = ._.2631346686720;}),
(932,46,l),
(1122,46,l),
(1517,995,l,{name = ._.2631346687760;}),
(1517,0,l),
(1825,0,l),
(1825,1650,l,{name = ._.2631346686320;}),
(1474,1650,l),
(1027,595,l),
(580,1650,l,{name = ._.2631346683280;}),
(229,1650,l,{name = ._.2631346685440;}),
(229,0,l,{name = ._.2631346684160;})
);
}
);
width = 2054;
},
{
anchors = (
{
name = bottom;
position = "{1009, 66}";
},
{
name = top;
position = "{1009, 1650}";
}
);
hints = (
{
origin = (0,11);
target = (0,1);
type = Stem;
},
{
origin = (0,4);
target = (0,7);
type = Stem;
},
{
horizontal = 1;
origin = (0,12);
target = up;
type = BottomGhost;
},
{
horizontal = 1;
origin = (0,10);
target = down;
type = TopGhost;
}
);
layerId = "226AFDD0-2700-445C-A4CF-7C4B26695C22";
shapes = (
{
closed = 1;
nodes = (
(494,0,l),
(494,1111,l,{name = ._.2631346691920;}),
(929,66,l),
(1089,66,l),
(1524,1111,l,{name = ._.2631346691600;}),
(1524,0,l),
(1774,0,l),
(1774,1650,l,{name = ._.2631346693120;}),
(1490,1650,l),
(1009,507,l),
(528,1650,l,{name = ._.2631346689360;}),
(244,1650,l,{name = ._.2631346692960;}),
(244,0,l,{name = ._.2631346692000;})
);
}
);
width = 2018;
},
{
anchors = (
{
name = bottom;
position = "{995, 82}";
},
{
name = top;
position = "{995, 1650}";
}
);
hints = (
{
origin = (0,11);
target = (0,1);
type = Stem;
},
{
origin = (0,4);
target = (0,7);
type = Stem;
},
{
horizontal = 1;
origin = (0,12);
target = up;
type = BottomGhost;
},
{
horizontal = 1;
origin = (0,10);
target = down;
type = TopGhost;
}
);
layerId = "8E8E586A-81E9-433C-8BD9-4265646900C1";
shapes = (
{
closed = 1;
nodes = (
(460,0,l),
(460,1203,l,{name = ._.2631346697440;}),
(927,82,l),
(1063,82,l),
(1530,1203,l,{name = ._.2631346697760;}),
(1530,0,l),
(1734,0,l),
(1734,1650,l,{name = ._.2631346694480;}),
(1503,1650,l),
(995,438,l),
(487,1650,l,{name = ._.2631346695680;}),
(256,1650,l,{name = ._.2631346695760;}),
(256,0,l,{name = ._.2631346693600;})
);
}
);
width = 1990;
},
{
anchors = (
{
name = bottom;
position = "{977, 102}";
},
{
name = top;
position = "{977, 1650}";
}
);
hints = (
{
origin = (0,11);
target = (0,1);
type = Stem;
},
{
origin = (0,4);
target = (0,7);
type = Stem;
},
{
horizontal = 1;
origin = (0,12);
target = up;
type = BottomGhost;
},
{
horizontal = 1;
origin = (0,10);
target = down;
type = TopGhost;
}
);
layerId = "24B4D503-66A8-4B4A-943D-7DAB8AE883B0";
shapes = (
{
closed = 1;
nodes = (
(417,0,l),
(417,1320,l,{name = ._.2631346698880;}),
(924,102,l),
(1030,102,l),
(1537,1320,l,{name = ._.2631346703120;}),
(1537,0,l),
(1683,0,l),
(1683,1650,l,{name = ._.2631346698960;}),
(1519,1650,l),
(977,350,l),
(435,1650,l,{name = ._.2631346699040;}),
(271,1650,l,{name = ._.2631346703360;}),
(271,0,l,{name = ._.2631346703600;})
);
}
);
width = 1954;
},
{
anchors = (
{
name = bottom;
position = "{963, 116}";
},
{
name = top;
position = "{964, 1650}";
}
);
hints = (
{
origin = (0,11);
target = (0,1);
type = Stem;
},
{
origin = (0,4);
target = (0,7);
type = Stem;
},
{
horizontal = 1;
origin = (0,12);
target = up;
type = BottomGhost;
},
{
horizontal = 1;
origin = (0,10);
target = down;
type = TopGhost;
}
);
layerId = "E09A619D-4294-46CA-BAB2-AF903DA4D17A";
shapes = (
{
closed = 1;
nodes = (
(386,0,l),
(386,1400,l,{name = ._.2631346701520;}),
(921,116,l),
(1007,116,l),
(1542,1400,l,{name = ._.2631346700800;}),
(1542,0,l),
(1648,0,l),
(1648,1650,l,{name = ._.2631346701200;}),
(1530,1650,l),
(964,289,l),
(398,1650,l,{name = ._.2631346708160;}),
(280,1650,l,{name = ._.2631346708240;}),
(280,0,l,{name = ._.2631346708320;})
);
}
);
width = 1929;
},
{
anchors = (
{
name = bottom;
position = "{955, 127}";
},
{
name = top;
position = "{955, 1650}";
}
);
hints = (
{
origin = (0,11);
target = (0,1);
type = Stem;
},
{
origin = (0,4);
target = (0,7);
type = Stem;
},
{
horizontal = 1;
origin = (0,12);
target = up;
type = BottomGhost;
},
{
horizontal = 1;
origin = (0,10);
target = down;
type = TopGhost;
}
);
layerId = "EF8C5D96-1952-40CF-ADD4-E541C160E9A9";
shapes = (
{
closed = 1;
nodes = (
(364,0,l),
(364,1460,l,{name = ._.2631346705440;}),
(920,127,l),
(990,127,l),
(1546,1460,l,{name = ._.2631346704960;}),
(1546,0,l),
(1622,0,l),
(1622,1650,l,{name = ._.2631346706880;}),
(1539,1650,l),
(955,244,l),
(371,1650,l,{name = ._.2631346704880;}),
(288,1650,l,{name = ._.2631346704480;}),
(288,0,l,{name = ._.2631346705040;})
);
}
);
width = 1910;
},
{
anchors = (
{
name = bottom;
position = "{979, 134}";
},
{
name = top;
position = "{949, 1650}";
}
);
hints = (
{
origin = (0,11);
target = (0,1);
type = Stem;
},
{
origin = (0,4);
target = (0,7);
type = Stem;
},
{
horizontal = 1;
origin = (0,12);
target = up;
type = BottomGhost;
},
{
horizontal = 1;
origin = (0,10);
target = down;
type = TopGhost;
}
);
layerId = "F24CAE32-9A56-4E55-8360-BB7561E69AAD";
shapes = (
{
closed = 1;
nodes = (
(349,0,l),
(349,1500,l,{name = ._.2631346710400;}),
(919,134,l),
(979,134,l),
(1549,1500,l,{name = ._.2631346710000;}),
(1549,0,l),
(1605,0,l),
(1605,1650,l,{name = ._.2631346713120;}),
(1545,1650,l),
(949,214,l),
(353,1650,l,{name = ._.2631346710720;}),
(293,1650,l,{name = ._.2631346710800;}),
(293,0,l,{name = ._.2631346710240;})
);
}
);
width = 1898;
}
);
tags = (ss01);
unicode = 77;
},
{
color = (153, 255, 154, 255);
glyphname = N;
layers = (
{
anchors = (
{
name = bottom;
position = "{932, 0}";
},
{
name = top;
position = "{932, 1650}";
}
);
hints = (
{
origin = (0,8);
target = (0,1);
type = Stem;
},
{
origin = (0,6);
target = (0,3);
type = Stem;
},
{
horizontal = 1;
origin = (0,2);
target = up;
type = BottomGhost;
},
{
horizontal = 1;
origin = (0,7);
target = down;
type = TopGhost;
}
);
layerId = "0219FCCD-76EF-4311-8338-E1F0504E85BF";
shapes = (
{
closed = 1;
nodes = (
(636,0,l),
(636,920,l,{name = ._.2631346715120;}),
(1228,0,l,{name = ._.2631346716720;}),
(1668,0,l,{name = ._.2631346714640;}),
(1668,1650,l),
(1228,1650,l),
(1228,730,l,{name = ._.2631346714880;}),
(636,1650,l,{name = ._.2631346718320;}),
(196,1650,l,{name = ._.2631346718400;}),
(196,0,l)
);
}
);
width = 1864;
},
{
anchors = (
{
name = bottom;
position = "{917, 0}";
},
{
name = top;
position = "{917, 1650}";
}
);
hints = (
{
origin = (0,8);
target = (0,1);
type = Stem;
},
{
origin = (0,6);
target = (0,3);
type = Stem;
},
{
horizontal = 1;
origin = (0,2);
target = up;
type = BottomGhost;
},
{
horizontal = 1;
origin = (0,7);
target = down;
type = TopGhost;
}
);
layerId = "EF133E1C-A42C-4162-B993-78888479ABEC";
shapes = (
{
closed = 1;
nodes = (
(588,0,l),
(588,1024,l,{name = ._.2631346719600;}),
(1246,0,l,{name = ._.2631346719680;}),
(1622,0,l,{name = ._.2631346719760;}),
(1622,1650,l),
(1246,1650,l),
(1246,625,l,{name = ._.2631346719120;}),
(588,1650,l,{name = ._.2631346720240;}),
(212,1650,l,{name = ._.2631346719200;}),
(212,0,l)
);
}
);
width = 1833;
},
{
anchors = (
{
name = bottom;
position = "{900, 0}";
},
{
name = top;
position = "{900, 1650}";
}
);
hints = (
{
origin = (0,8);
target = (0,1);
type = Stem;
},
{
origin = (0,6);
target = (0,3);
type = Stem;
},
{
horizontal = 1;
origin = (0,2);
target = up;
type = BottomGhost;
},
{
horizontal = 1;
origin = (0,7);
target = down;
type = TopGhost;
}
);
layerId = "11DBA8EB-E381-4810-A5CC-CC1A00595979";
shapes = (
{
closed = 1;
nodes = (
(537,0,l),
(537,1135,l,{name = ._.2631346587440;}),
(1263,0,l,{name = ._.2631346587280;}),
(1571,0,l,{name = ._.2631346589920;}),
(1571,1650,l),
(1263,1650,l),
(1263,514,l,{name = ._.2631346586240;}),
(537,1650,l,{name = ._.2631346586480;}),
(229,1650,l,{name = ._.2631346589040;}),
(229,0,l)
);
}
);
width = 1800;
},
{
anchors = (
{
name = bottom;
position = "{887, 0}";
},
{
name = top;
position = "{887, 1650}";
}
);
hints = (
{
origin = (0,8);
target = (0,1);
type = Stem;
},
{
origin = (0,6);
target = (0,3);
type = Stem;
},
{
horizontal = 1;
origin = (0,2);
target = up;
type = BottomGhost;
},
{
horizontal = 1;
origin = (0,7);
target = down;
type = TopGhost;
}
);
layerId = "226AFDD0-2700-445C-A4CF-7C4B26695C22";
shapes = (
{
closed = 1;
nodes = (
(494,0,l),
(494,1230,l,{name = ._.2631348097808;}),
(1280,0,l,{name = ._.2631348093568;}),
(1530,0,l,{name = ._.2631348094848;}),
(1530,1650,l),
(1280,1650,l),
(1280,419,l,{name = ._.2631348097888;}),
(494,1650,l,{name = ._.2631348097248;}),
(244,1650,l,{name = ._.2631348095168;}),
(244,0,l)
);
}
);
width = 1774;
},
{
anchors = (
{
name = bottom;
position = "{876, 0}";
},
{
name = top;
position = "{876, 1650}";
}
);
hints = (
{
origin = (0,8);
target = (0,1);
type = Stem;
},
{
origin = (0,6);
target = (0,3);
type = Stem;
},
{
horizontal = 1;
origin = (0,2);
target = up;
type = BottomGhost;
},
{
horizontal = 1;
origin = (0,7);
target = down;
type = TopGhost;
}
);
layerId = "8E8E586A-81E9-433C-8BD9-4265646900C1";
shapes = (
{
closed = 1;
nodes = (
(459,0,l),
(459,1305,l,{name = ._.2631348096928;}),
(1293,0,l,{name = ._.2631348100368;}),
(1497,0,l,{name = ._.2631348102208;}),
(1497,1650,l),
(1293,1650,l),
(1293,344,l,{name = ._.2631348100768;}),
(459,1650,l,{name = ._.2631348101968;}),
(255,1650,l,{name = ._.2631348102688;}),
(255,0,l)
);
}
);
width = 1752;
},
{
anchors = (
{
name = bottom;
position = "{862, 0}";
},
{
name = top;
position = "{862, 1650}";
}
);
hints = (
{
origin = (0,8);
target = (0,1);
type = Stem;
},
{
origin = (0,6);
target = (0,3);
type = Stem;
},
{
horizontal = 1;
origin = (0,2);
target = up;
type = BottomGhost;
},
{
horizontal = 1;
origin = (0,7);
target = down;
type = TopGhost;
}
);
layerId = "24B4D503-66A8-4B4A-943D-7DAB8AE883B0";
shapes = (
{
closed = 1;
nodes = (
(416,0,l),
(416,1399,l,{name = ._.2631348099328;}),
(1308,0,l,{name = ._.2631348098768;}),
(1454,0,l,{name = ._.2631348102608;}),
(1454,1650,l),
(1308,1650,l),
(1308,249,l,{name = ._.2631348100208;}),
(416,1650,l,{name = ._.2631348098848;}),
(270,1650,l,{name = ._.2631348098928;}),
(270,0,l)
);
}
);
width = 1724;
},
{
anchors = (
{
name = bottom;
position = "{853, 0}";
},
{
name = top;
position = "{853, 1650}";
}
);
hints = (
{
origin = (0,8);
target = (0,1);
type = Stem;
},
{
origin = (0,6);
target = (0,3);
type = Stem;
},
{
horizontal = 1;
origin = (0,2);
target = up;
type = BottomGhost;
},
{
horizontal = 1;
origin = (0,7);
target = down;
type = TopGhost;
}
);
layerId = "E09A619D-4294-46CA-BAB2-AF903DA4D17A";
shapes = (
{
closed = 1;
nodes = (
(386,0,l),
(386,1464,l,{name = ._.2631348105488;}),
(1320,0,l,{name = ._.2631348108448;}),
(1426,0,l,{name = ._.2631348105248;}),
(1426,1650,l),
(1320,1650,l),
(1320,184,l,{name = ._.2631348107088;}),
(386,1650,l,{name = ._.2631348105728;}),
(280,1650,l,{name = ._.2631348104768;}),
(280,0,l)
);
}
);
width = 1705;
},
{
anchors = (
{
name = bottom;
position = "{846, 0}";
},
{
name = top;
position = "{846, 1650}";
}
);
hints = (
{
origin = (0,8);
target = (0,1);
type = Stem;
},
{
origin = (0,6);
target = (0,3);
type = Stem;
},
{
horizontal = 1;
origin = (0,2);
target = up;
type = BottomGhost;
},
{
horizontal = 1;
origin = (0,7);
target = down;
type = TopGhost;
}
);
layerId = "EF8C5D96-1952-40CF-ADD4-E541C160E9A9";
shapes = (
{
closed = 1;
nodes = (
(364,0,l),
(364,1513,l,{name = ._.2631348112608;}),
(1328,0,l,{name = ._.2631348112688;}),
(1404,0,l,{name = ._.2631348112768;}),
(1404,1650,l),
(1328,1650,l),
(1328,135,l,{name = ._.2631348111568;}),
(364,1650,l,{name = ._.2631348111328;}),
(288,1650,l,{name = ._.2631348109008;}),
(288,0,l)
);
}
);
width = 1691;
},
{
anchors = (
{
name = bottom;
position = "{841, 0}";
},
{
name = top;
position = "{841, 1650}";
}
);
hints = (
{
origin = (0,8);
target = (0,1);
type = Stem;
},
{
origin = (0,6);
target = (0,3);
type = Stem;
},
{
horizontal = 1;
origin = (0,2);
target = up;
type = BottomGhost;
},
{
horizontal = 1;
origin = (0,7);
target = down;
type = TopGhost;
}
);
layerId = "F24CAE32-9A56-4E55-8360-BB7561E69AAD";
shapes = (
{
closed = 1;
nodes = (
(349,0,l),
(349,1546,l,{name = ._.2631348113248;}),
(1333,0,l,{name = ._.2631348112128;}),
(1389,0,l,{name = ._.2631348112368;}),
(1389,1650,l),
(1333,1650,l),
(1333,102,l,{name = ._.2631348112848;}),
(349,1650,l,{name = ._.2631348113328;}),
(293,1650,l,{name = ._.2631348113488;}),
(293,0,l)
);
}
);
width = 1682;
}
);
unicode = 78;
},
{
color = (153, 255, 154, 255);
glyphname = Eng;
leftMetricsKey = N;
rightMetricsKey = J;
layers = (
{
layerId = "0219FCCD-76EF-4311-8338-E1F0504E85BF";
shapes = (
{
closed = 1;
nodes = (
(196,1650,l),
(196,0,l),
(636,0,l),
(636,920,l),
(1228,0,l),
(1228,-1,l),
(1228,-57,o),
(1177,-129,o),
(1098,-129,cs),
(1053,-129,o),
(990,-106,o),
(930,-47,c),
(690,-311,l),
(831,-478,o),
(978,-551,o),
(1175,-551,cs),
(1482,-551,o),
(1668,-371,o),
(1668,-55,cs),
(1668,1650,l),
(1228,1650,l),
(1228,730,l),
(636,1650,l)
);
}
);
width = 1845;
},
{
layerId = "EF133E1C-A42C-4162-B993-78888479ABEC";
shapes = (
{
closed = 1;
nodes = (
(212,1650,l),
(212,0,l),
(588,0,l),
(588,1024,l),
(1246,0,l),
(1246,-6,ls),
(1246,-101,o),
(1179,-191,o),
(1066,-191,cs),
(1007,-191,o),
(935,-165,o),
(869,-98,c),
(663,-326,l),
(798,-483,o),
(939,-551,o),
(1129,-551,cs),
(1436,-551,o),
(1622,-371,o),
(1622,-55,cs),
(1622,1650,l),
(1246,1650,l),
(1246,625,l),
(588,1650,l)
);
}
);
width = 1816;
},
{
layerId = "11DBA8EB-E381-4810-A5CC-CC1A00595979";
shapes = (
{
closed = 1;
nodes = (
(229,1650,l),
(229,0,l),
(537,0,l),
(537,1135,l),
(1264,0,l),
(1264,-11,ls),
(1264,-148,o),
(1179,-256,o),
(1030,-256,cs),
(957,-256,o),
(876,-227,o),
(803,-152,c),
(633,-341,l),
(761,-488,o),
(896,-551,o),
(1079,-551,cs),
(1387,-551,o),
(1572,-370,o),
(1572,-55,cs),
(1572,1650,l),
(1264,1650,l),
(1264,514,l),
(537,1650,l)
);
}
);
width = 1783;
},
{
layerId = "226AFDD0-2700-445C-A4CF-7C4B26695C22";
shapes = (
{
closed = 1;
nodes = (
(244,1650,l),
(244,0,l),
(494,0,l),
(494,1230,l),
(1280,0,l),
(1280,-15,ls),
(1280,-188,o),
(1180,-312,o),
(1001,-312,cs),
(915,-312,o),
(826,-280,o),
(747,-198,c),
(609,-354,l),
(731,-492,o),
(861,-551,o),
(1037,-551,cs),
(1345,-551,o),
(1530,-369,o),
(1530,-55,cs),
(1530,1650,l),
(1280,1650,l),
(1280,419,l),
(494,1650,l)
);
}
);
width = 1756;
},
{
layerId = "8E8E586A-81E9-433C-8BD9-4265646900C1";
shapes = (
{
closed = 1;
nodes = (
(255,1650,l),
(255,0,l),
(459,0,l),
(459,1305,l),
(1292,0,l),
(1292,-19,ls),
(1292,-220,o),
(1180,-356,o),
(977,-356,cs),
(881,-356,o),
(786,-322,o),
(702,-234,c),
(589,-365,l),
(706,-495,o),
(832,-551,o),
(1003,-551,cs),
(1311,-551,o),
(1496,-368,o),
(1496,-55,cs),
(1496,1650,l),
(1292,1650,l),
(1292,344,l),
(459,1650,l)
);
}
);
width = 1734;
},
{
layerId = "24B4D503-66A8-4B4A-943D-7DAB8AE883B0";
shapes = (
{
closed = 1;
nodes = (
(270,1650,l),
(270,0,l),
(416,0,l),
(416,1399,l),
(1308,0,l),
(1308,-24,ls),
(1308,-260,o),
(1181,-412,o),
(948,-412,cs),
(839,-412,o),
(736,-375,o),
(647,-280,c),
(564,-378,l),
(676,-499,o),
(797,-551,o),
(962,-551,cs),
(1270,-551,o),
(1454,-367,o),
(1454,-55,cs),
(1454,1650,l),
(1308,1650,l),
(1308,249,l),
(416,1650,l)
);
}
);
width = 1708;
},
{
layerId = "E09A619D-4294-46CA-BAB2-AF903DA4D17A";
shapes = (
{
closed = 1;
nodes = (
(280,1650,l),
(280,0,l),
(386,0,l),
(386,1464,l),
(1319,0,l),
(1319,-27,ls),
(1319,-287,o),
(1182,-451,o),
(928,-451,cs),
(810,-451,o),
(702,-412,o),
(608,-312,c),
(547,-387,l),
(655,-502,o),
(772,-551,o),
(933,-551,cs),
(1241,-551,o),
(1425,-366,o),
(1425,-55,cs),
(1425,1650,l),
(1319,1650,l),
(1319,184,l),
(386,1650,l)
);
}
);
width = 1689;
},
{
layerId = "EF8C5D96-1952-40CF-ADD4-E541C160E9A9";
shapes = (
{
closed = 1;
nodes = (
(288,1650,l),
(288,0,l),
(364,0,l),
(364,1513,l),
(1327,0,l),
(1327,-29,ls),
(1327,-308,o),
(1183,-480,o),
(913,-480,cs),
(788,-480,o),
(677,-440,o),
(580,-336,c),
(535,-394,l),
(639,-504,o),
(754,-551,o),
(911,-551,cs),
(1220,-551,o),
(1403,-366,o),
(1403,-55,cs),
(1403,1650,l),
(1327,1650,l),
(1327,135,l),
(364,1650,l)
);
}
);
width = 1674;
},
{
layerId = "F24CAE32-9A56-4E55-8360-BB7561E69AAD";
shapes = (
{
closed = 1;
nodes = (
(293,1650,l),
(293,0,l),
(349,0,l),
(349,1546,l),
(1333,0,l),
(1333,-31,ls),
(1333,-322,o),
(1184,-499,o),
(903,-499,cs),
(774,-499,o),
(660,-458,o),
(561,-352,c),
(527,-399,l),
(629,-505,o),
(742,-551,o),
(897,-551,cs),
(1206,-551,o),
(1389,-366,o),
(1389,-55,cs),
(1389,1650,l),
(1333,1650,l),
(1333,102,l),
(349,1650,l)
);
}
);
width = 1665;
}
);
unicode = 330;
},
{
color = (153, 255, 154, 255);
glyphname = O;
layers = (
{
anchors = (
{
name = bottom;
position = "{894, 0}";
},
{
name = center;
position = "{894, 824}";
},
{
name = ogonek;
position = "{1006, 0}";
},
{
name = top;
position = "{894, 1650}";
},
{
name = topleft;
position = "{20, 1650}";
},
{
name = topright;
position = "{1768, 1650}";
}
);
hints = (
{
horizontal = 1;
origin = (0,11);
target = (1,11);
type = Stem;
},
{
horizontal = 1;
origin = (1,5);
target = (0,5);
type = Stem;
},
{
origin = (0,8);
target = (1,2);
type = Stem;
},
{
origin = (1,8);
target = (0,2);
type = Stem;
}
);
layerId = "0219FCCD-76EF-4311-8338-E1F0504E85BF";
shapes = (
{
closed = 1;
nodes = (
(1355,-32,o),
(1726,349,o),
(1726,824,cs,{name = ._.2631348170128;}),
(1726,1299,o),
(1355,1680,o),
(894,1680,cs,{name = ._.2631348175248;}),
(433,1680,o),
(62,1299,o),
(62,824,cs,{name = ._.2631348179568;}),
(62,349,o),
(433,-32,o),
(894,-32,cs,{name = ._.2631348175008;})
);
},
{
closed = 1;
nodes = (
(677,392,o),
(536,563,o),
(536,824,cs,{name = ._.2631348175808;}),
(536,1085,o),
(677,1256,o),
(894,1256,cs,{name = ._.2631348177008;}),
(1111,1256,o),
(1252,1085,o),
(1252,824,cs,{name = ._.2631348178368;}),
(1252,563,o),
(1111,392,o),
(894,392,cs,{name = ._.2631348175328;})
);
}
);
width = 1788;
},
{
anchors = (
{
name = bottom;
position = "{918, 0}";
},
{
name = center;
position = "{918, 824}";
},
{
name = ogonek;
position = "{1005, 0}";
},
{
name = top;
position = "{918, 1650}";
},
{
name = topleft;
position = "{20, 1650}";
},
{
name = topright;
position = "{1814, 1650}";
}
);
hints = (
{
horizontal = 1;
origin = (0,11);
target = (1,11);
type = Stem;
},
{
horizontal = 1;
origin = (1,5);
target = (0,5);
type = Stem;
},
{
origin = (0,8);
target = (1,2);
type = Stem;
},
{
origin = (1,8);
target = (0,2);
type = Stem;
}
);
layerId = "EF133E1C-A42C-4162-B993-78888479ABEC";
shapes = (
{
closed = 1;
nodes = (
(1380,-32,o),
(1750,349,o),
(1750,824,cs,{name = ._.2631348183888;}),
(1750,1299,o),
(1380,1680,o),
(918,1680,cs,{name = ._.2631348181168;}),
(456,1680,o),
(86,1299,o),
(86,824,cs,{name = ._.2631348184688;}),
(86,349,o),
(456,-32,o),
(918,-32,cs,{name = ._.2631348178768;})
);
},
{
closed = 1;
nodes = (
(665,330,o),
(491,532,o),
(491,824,cs,{name = ._.2631348182928;}),
(491,1116,o),
(665,1318,o),
(918,1318,cs,{name = ._.2631348180288;}),
(1171,1318,o),
(1345,1116,o),
(1345,824,cs,{name = ._.2631348183328;}),
(1345,532,o),
(1171,330,o),
(918,330,cs,{name = ._.2631348183248;})
);
}
);
width = 1835;
},
{
anchors = (
{
name = bottom;
position = "{942, 0}";
},
{
name = center;
position = "{942, 824}";
},
{
name = ogonek;
position = "{1003, 0}";
},
{
name = top;
position = "{942, 1650}";
},
{
name = topleft;
position = "{19, 1650}";
},
{
name = topright;
position = "{1864, 1650}";
}
);
hints = (
{
horizontal = 1;
origin = (0,11);
target = (1,11);
type = Stem;
},
{
horizontal = 1;
origin = (1,5);
target = (0,5);
type = Stem;
},
{
origin = (0,8);
target = (1,2);
type = Stem;
},
{
origin = (1,8);
target = (0,2);
type = Stem;
}
);
layerId = "11DBA8EB-E381-4810-A5CC-CC1A00595979";
shapes = (
{
closed = 1;
nodes = (
(1404,-32,o),
(1774,348,o),
(1774,824,cs,{name = ._.2631348189248;}),
(1774,1300,o),
(1404,1680,o),
(942,1680,cs,{name = ._.2631348188048;}),
(480,1680,o),
(110,1300,o),
(110,824,cs,{name = ._.2631348187168;}),
(110,348,o),
(480,-32,o),
(942,-32,cs,{name = ._.2631348186688;})
);
},
{
closed = 1;
nodes = (
(652,265,o),
(442,500,o),
(442,824,cs,{name = ._.2631348189888;}),
(442,1148,o),
(652,1383,o),
(942,1383,cs,{name = ._.2631348190208;}),
(1232,1383,o),
(1442,1148,o),
(1442,824,cs,{name = ._.2631348185648;}),
(1442,500,o),
(1232,265,o),
(942,265,cs,{name = ._.2631348187568;})
);
}
);
width = 1884;
},
{
anchors = (
{
name = bottom;
position = "{963, 0}";
},
{
name = center;
position = "{963, 824}";
},
{
name = ogonek;
position = "{1001, 0}";
},
{
name = top;
position = "{963, 1650}";
},
{
name = topleft;
position = "{19, 1650}";
},
{
name = topright;
position = "{1906, 1650}";
}
);
hints = (
{
horizontal = 1;
origin = (0,11);
target = (1,11);
type = Stem;
},
{
horizontal = 1;
origin = (1,5);
target = (0,5);
type = Stem;
},
{
origin = (0,8);
target = (1,2);
type = Stem;
},
{
origin = (1,8);
target = (0,2);
type = Stem;
}
);
layerId = "226AFDD0-2700-445C-A4CF-7C4B26695C22";
shapes = (
{
closed = 1;
nodes = (
(1425,-32,o),
(1795,348,o),
(1795,824,cs,{name = ._.2631348192848;}),
(1795,1300,o),
(1425,1680,o),
(963,1680,cs,{name = ._.2631348191328;}),
(501,1680,o),
(131,1300,o),
(131,824,cs,{name = ._.2631348193088;}),
(131,348,o),
(501,-32,o),
(963,-32,cs,{name = ._.2631348191248;})
);
},
{
closed = 1;
nodes = (
(641,209,o),
(401,473,o),
(401,824,cs,{name = ._.2631348192528;}),
(401,1175,o),
(641,1439,o),
(963,1439,cs,{name = ._.2631348191408;}),
(1285,1439,o),
(1526,1175,o),
(1526,824,cs,{name = ._.2631348191968;}),
(1526,473,o),
(1285,209,o),
(963,209,cs,{name = ._.2631348192368;})
);
}
);
width = 1926;
},
{
anchors = (
{
name = bottom;
position = "{980, 0}";
},
{
name = center;
position = "{980, 824}";
},
{
name = ogonek;
position = "{1000, 0}";
},
{
name = top;
position = "{980, 1650}";
},
{
name = topleft;
position = "{19, 1650}";
},
{
name = topright;
position = "{1940, 1650}";
}
);
hints = (
{
horizontal = 1;
origin = (0,11);
target = (1,11);
type = Stem;
},
{
horizontal = 1;
origin = (1,5);
target = (0,5);
type = Stem;
},
{
origin = (0,8);
target = (1,2);
type = Stem;
},
{
origin = (1,8);
target = (0,2);
type = Stem;
}
);
layerId = "8E8E586A-81E9-433C-8BD9-4265646900C1";
shapes = (
{
closed = 1;
nodes = (
(1442,-32,o),
(1812,348,o),
(1812,824,cs,{name = ._.2631348200528;}),
(1812,1300,o),
(1442,1680,o),
(980,1680,cs,{name = ._.2631348199888;}),
(518,1680,o),
(148,1300,o),
(148,824,cs,{name = ._.2631348197808;}),
(148,348,o),
(518,-32,o),
(980,-32,cs,{name = ._.2631348196848;})
);
},
{
closed = 1;
nodes = (
(633,165,o),
(368,451,o),
(368,824,cs,{name = ._.2631348197248;}),
(368,1197,o),
(633,1483,o),
(980,1483,cs,{name = ._.2631348199328;}),
(1327,1483,o),
(1592,1197,o),
(1592,824,cs,{name = ._.2631348198848;}),
(1592,451,o),
(1327,165,o),
(980,165,cs,{name = ._.2631348197168;})
);
}
);
width = 1960;
},
{
anchors = (
{
name = bottom;
position = "{1001, 0}";
},
{
name = center;
position = "{1001, 824}";
},
{
name = ogonek;
position = "{1026, 0}";
},
{
name = top;
position = "{1001, 1650}";
},
{
name = topleft;
position = "{19, 1650}";
},
{
name = topright;
position = "{1983, 1650}";
}
);
hints = (
{
horizontal = 1;
origin = (0,11);
target = (1,11);
type = Stem;
},
{
horizontal = 1;
origin = (1,5);
target = (0,5);
type = Stem;
},
{
origin = (0,8);
target = (1,2);
type = Stem;
},
{
origin = (1,8);
target = (0,2);
type = Stem;
}
);
layerId = "24B4D503-66A8-4B4A-943D-7DAB8AE883B0";
shapes = (
{
closed = 1;
nodes = (
(1463,-32,o),
(1833,348,o),
(1833,824,cs,{name = ._.2631348201088;}),
(1833,1300,o),
(1463,1680,o),
(1001,1680,cs,{name = ._.2631348201488;}),
(539,1680,o),
(169,1300,o),
(169,824,cs,{name = ._.2631348203008;}),
(169,348,o),
(539,-32,o),
(1001,-32,cs,{name = ._.2631348203648;})
);
},
{
closed = 1;
nodes = (
(622,109,o),
(327,423,o),
(327,824,cs,{name = ._.2631348202768;}),
(327,1225,o),
(622,1539,o),
(1001,1539,cs,{name = ._.2631348204208;}),
(1380,1539,o),
(1676,1225,o),
(1676,824,cs,{name = ._.2631348203248;}),
(1676,423,o),
(1380,109,o),
(1001,109,cs,{name = ._.2631348202608;})
);
}
);
width = 2003;
},
{
anchors = (
{
name = bottom;
position = "{1017, 0}";
},
{
name = center;
position = "{1017, 824}";
},
{
name = ogonek;
position = "{1045, 0}";
},
{
name = top;
position = "{1017, 1650}";
},
{
name = topleft;
position = "{19, 1650}";
},
{
name = topright;
position = "{2013, 1650}";
}
);
hints = (
{
horizontal = 1;
origin = (0,11);
target = (1,11);
type = Stem;
},
{
horizontal = 1;
origin = (1,5);
target = (0,5);
type = Stem;
},
{
origin = (0,8);
target = (1,2);
type = Stem;
},
{
origin = (1,8);
target = (0,2);
type = Stem;
}
);
layerId = "E09A619D-4294-46CA-BAB2-AF903DA4D17A";
shapes = (
{
closed = 1;
nodes = (
(1479,-32,o),
(1849,348,o),
(1849,824,cs,{name = ._.2631348206608;}),
(1849,1300,o),
(1479,1680,o),
(1017,1680,cs,{name = ._.2631348208208;}),
(555,1680,o),
(185,1300,o),
(185,824,cs,{name = ._.2631348206688;}),
(185,348,o),
(555,-32,o),
(1017,-32,cs,{name = ._.2631348206528;})
);
},
{
closed = 1;
nodes = (
(616,70,o),
(299,404,o),
(299,824,cs,{name = ._.2631348207168;}),
(299,1244,o),
(616,1578,o),
(1017,1578,cs,{name = ._.2631348208448;}),
(1418,1578,o),
(1735,1244,o),
(1735,824,cs,{name = ._.2631348206448;}),
(1735,404,o),
(1418,70,o),
(1017,70,cs,{name = ._.2631348208768;})
);
}
);
width = 2033;
},
{
anchors = (
{
name = bottom;
position = "{1028, 0}";
},
{
name = center;
position = "{1028, 825}";
},
{
name = ogonek;
position = "{1058, 0}";
},
{
name = top;
position = "{1028, 1650}";
},
{
name = topleft;
position = "{20, 1650}";
},
{
name = topright;
position = "{2035, 1650}";
}
);
hints = (
{
horizontal = 1;
origin = (0,11);
target = (1,11);
type = Stem;
},
{
horizontal = 1;
origin = (1,5);
target = (0,5);
type = Stem;
},
{
origin = (0,8);
target = (1,2);
type = Stem;
},
{
origin = (1,8);
target = (0,2);
type = Stem;
}
);
layerId = "EF8C5D96-1952-40CF-ADD4-E541C160E9A9";
shapes = (
{
closed = 1;
nodes = (
(1490,-32,o),
(1860,348,o),
(1860,824,cs,{name = ._.2631348212048;}),
(1860,1300,o),
(1490,1680,o),
(1028,1680,cs,{name = ._.2631348212928;}),
(566,1680,o),
(196,1300,o),
(196,824,cs,{name = ._.2631348213168;}),
(196,348,o),
(566,-32,o),
(1028,-32,cs,{name = ._.2631348214208;})
);
},
{
closed = 1;
nodes = (
(611,41,o),
(277,390,o),
(277,824,cs,{name = ._.2631348213888;}),
(277,1258,o),
(611,1607,o),
(1028,1607,cs,{name = ._.2631348211648;}),
(1445,1607,o),
(1778,1258,o),
(1778,824,cs,{name = ._.2631348211728;}),
(1778,390,o),
(1445,41,o),
(1028,41,cs,{name = ._.2631348214368;})
);
}
);
width = 2055;
},
{
anchors = (
{
name = bottom;
position = "{1035, 0}";
},
{
name = center;
position = "{1035, 825}";
},
{
name = ogonek;
position = "{1067, 0}";
},
{
name = top;
position = "{1035, 1650}";
},
{
name = topleft;
position = "{20, 1650}";
},
{
name = topright;
position = "{2050, 1650}";
}
);
hints = (
{
horizontal = 1;
origin = (0,11);
target = (1,11);
type = Stem;
},
{
horizontal = 1;
origin = (1,5);
target = (0,5);
type = Stem;
},
{
origin = (0,8);
target = (1,2);
type = Stem;
},
{
origin = (1,8);
target = (0,2);
type = Stem;
}
);
layerId = "F24CAE32-9A56-4E55-8360-BB7561E69AAD";
shapes = (
{
closed = 1;
nodes = (
(1497,-32,o),
(1867,348,o),
(1867,824,cs,{name = ._.2631348219328;}),
(1867,1300,o),
(1497,1680,o),
(1035,1680,cs,{name = ._.2631348216528;}),
(573,1680,o),
(203,1300,o),
(203,824,cs,{name = ._.2631348220928;}),
(203,348,o),
(573,-32,o),
(1035,-32,cs,{name = ._.2631348219808;})
);
},
{
closed = 1;
nodes = (
(607,22,o),
(263,380,o),
(263,824,cs,{name = ._.2631348216128;}),
(263,1268,o),
(607,1626,o),
(1035,1626,cs,{name = ._.2631348219008;}),
(1463,1626,o),
(1807,1268,o),
(1807,824,cs,{name = ._.2631348218848;}),
(1807,380,o),
(1463,22,o),
(1035,22,cs,{name = ._.2631348216768;})
);
}
);
width = 2070;
}
);
unicode = 79;
},
{
color = (153, 255, 154, 255);
glyphname = Oslash;
leftMetricsKey = O;
rightMetricsKey = O;
layers = (
{
anchors = (
{
name = bottom;
position = "{924, 0}";
},
{
name = center;
position = "{894, 825}";
},
{
name = ogonek;
position = "{1006, 10}";
},
{
name = top;
position = "{894, 1680}";
},
{
name = topleft;
position = "{20, 1650}";
},
{
name = topright;
position = "{1768, 1650}";
}
);
layerId = "0219FCCD-76EF-4311-8338-E1F0504E85BF";
shapes = (
{
closed = 1;
nodes = (
(1658,1518,l),
(1398,1718,l),
(144,155,l),
(404,-35,l)
);
},
{
alignment = -1;
ref = O;
}
);
width = 1788;
},
{
anchors = (
{
name = bottom;
position = "{890, 0}";
},
{
name = center;
position = "{865, 825}";
},
{
name = ogonek;
position = "{964, 9}";
},
{
name = top;
position = "{865, 1675}";
},
{
name = topleft;
position = "{-33, 1650}";
},
{
name = topright;
position = "{1762, 1650}";
}
);
layerId = "EF133E1C-A42C-4162-B993-78888479ABEC";
shapes = (
{
closed = 1;
nodes = (
(1663,1534,l),
(1438,1706,l),
(186,136,l),
(410,-28,l)
);
},
{
alignment = -1;
ref = O;
}
);
width = 1835;
},
{
anchors = (
{
name = bottom;
position = "{853, 0}";
},
{
name = center;
position = "{834, 825}";
},
{
name = ogonek;
position = "{918, 7}";
},
{
name = top;
position = "{834, 1670}";
},
{
name = topleft;
position = "{-89, 1650}";
},
{
name = topright;
position = "{1756, 1650}";
}
);
layerId = "11DBA8EB-E381-4810-A5CC-CC1A00595979";
shapes = (
{
closed = 1;
nodes = (
(1667,1550,l),
(1480,1693,l),
(229,116,l),
(415,-20,l)
);
},
{
alignment = -1;
ref = O;
}
);
width = 1884;
},
{
anchors = (
{
name = bottom;
position = "{823, 0}";
},
{
name = center;
position = "{808, 825}";
},
{
name = ogonek;
position = "{880, 5}";
},
{
name = top;
position = "{808, 1665}";
},
{
name = topleft;
position = "{-136, 1650}";
},
{
name = topright;
position = "{1751, 1650}";
}
);
layerId = "226AFDD0-2700-445C-A4CF-7C4B26695C22";
shapes = (
{
closed = 1;
nodes = (
(1671,1564,l),
(1517,1682,l),
(267,99,l),
(420,-14,l)
);
},
{
alignment = -1;
ref = O;
}
);
width = 1926;
},
{
layerId = "8E8E586A-81E9-433C-8BD9-4265646900C1";
shapes = (
{
closed = 1;
nodes = (
(1674,1575,l),
(1546,1673,l),
(297,86,l),
(424,-9,l)
);
},
{
alignment = -1;
ref = O;
}
);
width = 1960;
},
{
anchors = (
{
name = bottom;
position = "{934, 0}";
},
{
name = center;
position = "{927, 825}";
},
{
name = ogonek;
position = "{977, 3}";
},
{
name = top;
position = "{927, 1657}";
},
{
name = topleft;
position = "{-56, 1650}";
},
{
name = topright;
position = "{1908, 1650}";
}
);
layerId = "24B4D503-66A8-4B4A-943D-7DAB8AE883B0";
shapes = (
{
closed = 1;
nodes = (
(1679,1589,l),
(1582,1662,l),
(335,69,l),
(429,-2,l)
);
},
{
alignment = -1;
ref = O;
}
);
width = 2003;
},
{
anchors = (
{
name = bottom;
position = "{993, 0}";
},
{
name = center;
position = "{989, 825}";
},
{
name = ogonek;
position = "{1031, 2}";
},
{
name = top;
position = "{989, 1654}";
},
{
name = topleft;
position = "{-8, 1650}";
},
{
name = topright;
position = "{1985, 1650}";
}
);
layerId = "E09A619D-4294-46CA-BAB2-AF903DA4D17A";
shapes = (
{
closed = 1;
nodes = (
(1682,1598,l),
(1607,1654,l),
(361,57,l),
(433,2,l)
);
},
{
alignment = -1;
ref = O;
}
);
width = 2033;
},
{
anchors = (
{
name = bottom;
position = "{1029, 0}";
},
{
name = center;
position = "{1028, 825}";
},
{
name = ogonek;
position = "{1064, 1}";
},
{
name = top;
position = "{1028, 1652}";
},
{
name = topleft;
position = "{20, 1650}";
},
{
name = topright;
position = "{2035, 1650}";
}
);
layerId = "EF8C5D96-1952-40CF-ADD4-E541C160E9A9";
shapes = (
{
closed = 1;
nodes = (
(1684,1605,l),
(1626,1648,l),
(380,48,l),
(435,6,l)
);
},
{
alignment = -1;
ref = O;
}
);
width = 2055;
},
{
anchors = (
{
name = bottom;
position = "{1035, 0}";
},
{
name = center;
position = "{1035, 825}";
},
{
name = ogonek;
position = "{1067, 0}";
},
{
name = top;
position = "{1035, 1650}";
},
{
name = topleft;
position = "{20, 1650}";
},
{
name = topright;
position = "{2050, 1650}";
}
);
layerId = "F24CAE32-9A56-4E55-8360-BB7561E69AAD";
shapes = (
{
closed = 1;
nodes = (
(1685,1610,l),
(1639,1644,l),
(393,42,l),
(437,8,l)
);
},
{
alignment = -1;
ref = O;
}
);
width = 2070;
}
);
unicode = 216;
},
{
color = (153, 255, 154, 255);
glyphname = OE;
leftMetricsKey = O;
rightMetricsKey = E;
layers = (
{
anchors = (
{
name = bottom;
position = "{1082, 0}";
},
{
name = top;
position = "{1082, 1650}";
}
);
hints = (
{
horizontal = 1;
origin = (1,6);
target = (0,10);
type = Stem;
},
{
horizontal = 1;
origin = (0,16);
target = (1,0);
type = Stem;
},
{
horizontal = 1;
origin = (0,3);
target = (0,6);
type = Stem;
},
{
origin = (1,6);
target = (0,7);
type = Stem;
},
{
origin = (0,13);
target = (1,3);
type = Stem;
}
);
layerId = "0219FCCD-76EF-4311-8338-E1F0504E85BF";
shapes = (
{
closed = 1;
nodes = (
(1994,0,l),
(1994,386,l),
(1458,386,l),
(1458,634,l,{name = ._.2631349651072;}),
(1970,634,l),
(1970,1020,l),
(1458,1020,l,{name = ._.2631349654272;}),
(1458,1264,l,{name = ._.2631349652432;}),
(1994,1264,l),
(1994,1650,l),
(1104,1650,ls,{name = ._.2631349651552;}),
(401,1650,o),
(62,1312,o),
(62,825,cs,{name = ._.2631349651152;}),
(62,338,o),
(401,0,o),
(1104,0,cs,{name = ._.2631349653872;})
);
},
{
closed = 1;
nodes = (
(1018,392,l,{name = ._.2631349652912;}),
(715,392,o),
(536,550,o),
(536,825,cs,{name = ._.2631349654672;}),
(536,1100,o),
(715,1258,o),
(1018,1258,c,{name = ._.2631349654592;})
);
}
);
width = 2162;
},
{
anchors = (
{
name = bottom;
position = "{1068, 0}";
},
{
name = top;
position = "{1068, 1650}";
}
);
hints = (
{
horizontal = 1;
origin = (1,6);
target = (0,10);
type = Stem;
},
{
horizontal = 1;
origin = (0,16);
target = (1,0);
type = Stem;
},
{
horizontal = 1;
origin = (0,3);
target = (0,6);
type = Stem;
},
{
origin = (1,6);
target = (0,7);
type = Stem;
},
{
origin = (0,13);
target = (1,3);
type = Stem;
}
);
layerId = "EF133E1C-A42C-4162-B993-78888479ABEC";
shapes = (
{
closed = 1;
nodes = (
(1964,0,l),
(1964,330,l),
(1396,330,l),
(1396,662,l,{name = ._.2631349659152;}),
(1940,662,l),
(1940,992,l),
(1396,992,l,{name = ._.2631349657792;}),
(1396,1320,l,{name = ._.2631349657872;}),
(1964,1320,l),
(1964,1650,l),
(1092,1650,ls,{name = ._.2631349659312;}),
(429,1650,o),
(86,1308,o),
(86,825,cs,{name = ._.2631349656592;}),
(86,341,o),
(429,0,o),
(1092,0,cs,{name = ._.2631349654912;})
);
},
{
closed = 1;
nodes = (
(1020,336,l,{name = ._.2631349656432;}),
(694,336,o),
(491,523,o),
(491,825,cs,{name = ._.2631349658432;}),
(491,1127,o),
(697,1314,o),
(1020,1314,c,{name = ._.2631349658112;})
);
}
);
width = 2133;
},
{
anchors = (
{
name = bottom;
position = "{1051, 0}";
},
{
name = top;
position = "{1051, 1650}";
}
);
hints = (
{
horizontal = 1;
origin = (1,6);
target = (0,10);
type = Stem;
},
{
horizontal = 1;
origin = (0,16);
target = (1,0);
type = Stem;
},
{
horizontal = 1;
origin = (0,3);
target = (0,6);
type = Stem;
},
{
origin = (1,6);
target = (0,7);
type = Stem;
},
{
origin = (0,13);
target = (1,3);
type = Stem;
}
);
layerId = "11DBA8EB-E381-4810-A5CC-CC1A00595979";
shapes = (
{
closed = 1;
nodes = (
(1931,0,l),
(1931,271,l),
(1329,271,l),
(1329,692,l,{name = ._.2631350340320;}),
(1907,692,l),
(1907,963,l),
(1329,963,l,{name = ._.2631350340160;}),
(1329,1380,l,{name = ._.2631350338640;}),
(1931,1380,l),
(1931,1650,l),
(1078,1650,ls,{name = ._.2631350341920;}),
(458,1650,o),
(110,1305,o),
(110,825,cs,{name = ._.2631350338320;}),
(110,345,o),
(458,0,o),
(1078,0,cs,{name = ._.2631350340880;})
);
},
{
closed = 1;
nodes = (
(1021,276,l,{name = ._.2631350338240;}),
(670,276,o),
(442,495,o),
(442,825,cs,{name = ._.2631350338080;}),
(442,1156,o),
(676,1375,o),
(1021,1375,c,{name = ._.2631350342160;})
);
}
);
width = 2102;
},
{
anchors = (
{
name = bottom;
position = "{1038, 0}";
},
{
name = top;
position = "{1038, 1650}";
}
);
hints = (
{
horizontal = 1;
origin = (1,6);
target = (0,10);
type = Stem;
},
{
horizontal = 1;
origin = (0,16);
target = (1,0);
type = Stem;
},
{
horizontal = 1;
origin = (0,3);
target = (0,6);
type = Stem;
},
{
origin = (1,6);
target = (0,7);
type = Stem;
},
{
origin = (0,13);
target = (1,3);
type = Stem;
}
);
layerId = "226AFDD0-2700-445C-A4CF-7C4B26695C22";
shapes = (
{
closed = 1;
nodes = (
(1904,0,l),
(1904,220,l),
(1273,220,l),
(1273,717,l,{name = ._.2631350345920;}),
(1880,717,l),
(1880,937,l),
(1273,937,l,{name = ._.2631350345600;}),
(1273,1431,l,{name = ._.2631350347200;}),
(1904,1431,l),
(1904,1650,l),
(1067,1650,ls,{name = ._.2631350344640;}),
(483,1650,o),
(131,1302,o),
(131,825,cs,{name = ._.2631350347440;}),
(131,348,o),
(483,0,o),
(1067,0,cs,{name = ._.2631350343760;})
);
},
{
closed = 1;
nodes = (
(1023,224,l,{name = ._.2631350346720;}),
(651,224,o),
(401,470,o),
(401,825,cs,{name = ._.2631350346160;}),
(401,1180,o),
(659,1427,o),
(1023,1427,c,{name = ._.2631350343040;})
);
}
);
width = 2076;
},
{
hints = (
{
horizontal = 1;
origin = (1,6);
target = (0,10);
type = Stem;
},
{
horizontal = 1;
origin = (0,16);
target = (1,0);
type = Stem;
},
{
horizontal = 1;
origin = (0,3);
target = (0,6);
type = Stem;
},
{
origin = (1,6);
target = (0,7);
type = Stem;
},
{
origin = (0,13);
target = (1,3);
type = Stem;
}
);
layerId = "8E8E586A-81E9-433C-8BD9-4265646900C1";
shapes = (
{
closed = 1;
nodes = (
(1882,0,l),
(1882,180,l),
(1228,180,l),
(1228,737,l,{name = ._.2631350350080;}),
(1858,737,l),
(1858,917,l),
(1228,917,l,{name = ._.2631350352800;}),
(1228,1471,l,{name = ._.2631350349280;}),
(1882,1471,l),
(1882,1650,l),
(1058,1650,ls,{name = ._.2631350350400;}),
(503,1650,o),
(148,1299,o),
(148,825,cs,{name = ._.2631350351200;}),
(148,351,o),
(503,0,o),
(1058,0,cs,{name = ._.2631350352320;})
);
},
{
closed = 1;
nodes = (
(1024,183,l,{name = ._.2631350350880;}),
(635,183,o),
(368,451,o),
(368,825,cs,{name = ._.2631350349360;}),
(368,1199,o),
(645,1467,o),
(1024,1467,c,{name = ._.2631350348480;})
);
}
);
width = 2055;
},
{
anchors = (
{
name = bottom;
position = "{1014, 0}";
},
{
name = top;
position = "{1014, 1650}";
}
);
hints = (
{
horizontal = 1;
origin = (1,6);
target = (0,10);
type = Stem;
},
{
horizontal = 1;
origin = (0,16);
target = (1,0);
type = Stem;
},
{
horizontal = 1;
origin = (0,3);
target = (0,6);
type = Stem;
},
{
origin = (1,6);
target = (0,7);
type = Stem;
},
{
origin = (0,13);
target = (1,3);
type = Stem;
}
);
layerId = "24B4D503-66A8-4B4A-943D-7DAB8AE883B0";
shapes = (
{
closed = 1;
nodes = (
(1854,0,l),
(1854,129,l),
(1171,129,l),
(1171,762,l,{name = ._.2631350358080;}),
(1830,762,l),
(1830,891,l),
(1171,891,l,{name = ._.2631350353280;}),
(1171,1522,l,{name = ._.2631350356560;}),
(1854,1522,l),
(1854,1650,l),
(1046,1650,ls,{name = ._.2631350355920;}),
(523,1650,o),
(169,1296,o),
(169,825,cs,{name = ._.2631350353440;}),
(169,354,o),
(523,0,o),
(1046,0,cs,{name = ._.2631350355280;})
);
},
{
closed = 1;
nodes = (
(1025,131,l,{name = ._.2631350353600;}),
(617,131,o),
(326,426,o),
(326,825,cs,{name = ._.2631350357840;}),
(326,1224,o),
(623,1519,o),
(1025,1519,c,{name = ._.2631350356160;})
);
}
);
width = 2028;
},
{
anchors = (
{
name = bottom;
position = "{1007, 0}";
},
{
name = top;
position = "{1007, 1650}";
}
);
hints = (
{
horizontal = 1;
origin = (1,6);
target = (0,10);
type = Stem;
},
{
horizontal = 1;
origin = (0,16);
target = (1,0);
type = Stem;
},
{
horizontal = 1;
origin = (0,3);
target = (0,6);
type = Stem;
},
{
origin = (1,6);
target = (0,7);
type = Stem;
},
{
origin = (0,13);
target = (1,3);
type = Stem;
}
);
layerId = "E09A619D-4294-46CA-BAB2-AF903DA4D17A";
shapes = (
{
closed = 1;
nodes = (
(1836,0,l),
(1836,94,l),
(1133,94,l),
(1133,780,l,{name = ._.2631350359040;}),
(1812,780,l),
(1812,874,l),
(1133,874,l,{name = ._.2631350360640;}),
(1133,1557,l,{name = ._.2631350358400;}),
(1836,1557,l),
(1836,1650,l),
(1039,1650,ls,{name = ._.2631350358720;}),
(539,1650,o),
(185,1294,o),
(185,825,cs,{name = ._.2631350359280;}),
(185,356,o),
(539,0,o),
(1039,0,cs,{name = ._.2631350360320;})
);
},
{
closed = 1;
nodes = (
(1027,96,l,{name = ._.2631350362560;}),
(607,96,o),
(299,410,o),
(299,825,cs,{name = ._.2631350358800;}),
(299,1241,o),
(610,1555,o),
(1027,1555,c,{name = ._.2631350358640;})
);
}
);
width = 2011;
},
{
anchors = (
{
name = bottom;
position = "{1000, 0}";
},
{
name = top;
position = "{1000, 1650}";
}
);
hints = (
{
horizontal = 1;
origin = (1,6);
target = (0,10);
type = Stem;
},
{
horizontal = 1;
origin = (0,16);
target = (1,0);
type = Stem;
},
{
horizontal = 1;
origin = (0,3);
target = (0,6);
type = Stem;
},
{
origin = (1,6);
target = (0,7);
type = Stem;
},
{
origin = (0,13);
target = (1,3);
type = Stem;
}
);
layerId = "EF8C5D96-1952-40CF-ADD4-E541C160E9A9";
shapes = (
{
closed = 1;
nodes = (
(1822,0,l),
(1822,68,l),
(1104,68,l),
(1104,793,l,{name = ._.2631350365520;}),
(1798,793,l),
(1798,861,l),
(1104,861,l,{name = ._.2631350367120;}),
(1104,1583,l,{name = ._.2631350367200;}),
(1822,1583,l),
(1822,1650,l),
(1033,1650,ls,{name = ._.2631350366720;}),
(550,1650,o),
(196,1292,o),
(196,825,cs,{name = ._.2631350366800;}),
(196,358,o),
(550,0,o),
(1033,0,cs,{name = ._.2631350368320;})
);
},
{
closed = 1;
nodes = (
(1028,70,l,{name = ._.2631350364880;}),
(598,70,o),
(278,397,o),
(278,825,cs,{name = ._.2631350367520;}),
(278,1254,o),
(599,1581,o),
(1028,1581,c,{name = ._.2631350365040;})
);
}
);
width = 1998;
},
{
anchors = (
{
name = bottom;
position = "{996, 0}";
},
{
name = top;
position = "{996, 1650}";
}
);
hints = (
{
horizontal = 1;
origin = (1,6);
target = (0,10);
type = Stem;
},
{
horizontal = 1;
origin = (0,16);
target = (1,0);
type = Stem;
},
{
horizontal = 1;
origin = (0,3);
target = (0,6);
type = Stem;
},
{
origin = (1,6);
target = (0,7);
type = Stem;
},
{
origin = (0,13);
target = (1,3);
type = Stem;
}
);
layerId = "F24CAE32-9A56-4E55-8360-BB7561E69AAD";
shapes = (
{
closed = 1;
nodes = (
(1813,0,l),
(1813,50,l),
(1085,50,l),
(1085,802,l,{name = ._.2631350370880;}),
(1789,802,l),
(1789,852,l),
(1085,852,l,{name = ._.2631350373200;}),
(1085,1600,l,{name = ._.2631350371120;}),
(1813,1600,l),
(1813,1650,l),
(1029,1650,ls,{name = ._.2631350371680;}),
(557,1650,o),
(203,1291,o),
(203,825,cs,{name = ._.2631350372000;}),
(203,359,o),
(557,0,o),
(1029,0,cs,{name = ._.2631350375840;})
);
},
{
closed = 1;
nodes = (
(1029,52,l,{name = ._.2631350369040;}),
(592,52,o),
(263,388,o),
(263,825,cs,{name = ._.2631350369920;}),
(263,1262,o),
(592,1598,o),
(1029,1598,c,{name = ._.2631350372480;})
);
}
);
width = 1990;
}
);
unicode = 338;
},
{
color = (153, 255, 154, 255);
glyphname = P;
layers = (
{
hints = (
{
horizontal = 1;
origin = (0,2);
target = (1,7);
type = Stem;
},
{
horizontal = 1;
origin = (1,1);
target = (0,8);
type = Stem;
},
{
origin = (1,4);
target = (0,5);
type = Stem;
},
{
horizontal = 1;
origin = (0,10);
target = up;
type = BottomGhost;
},
{
origin = (0,9);
target = (1,0);
type = Stem;
}
);
layerId = "0219FCCD-76EF-4311-8338-E1F0504E85BF";
shapes = (
{
closed = 1;
nodes = (
(636,0,l),
(636,588,l),
(848,588,ls,{name = ._.2631350382560;}),
(1168,588,o),
(1422,764,o),
(1422,1119,cs,{name = ._.2631350381360;}),
(1422,1474,o),
(1168,1650,o),
(848,1650,cs,{name = ._.2631350383680;}),
(196,1650,l,{name = ._.2631350382800;}),
(196,0,l,{name = ._.2631350381040;})
);
},
{
closed = 1;
nodes = (
(636,1300,l,{name = ._.2631350381120;}),
(704,1300,ls,{name = ._.2631350380880;}),
(822,1300,o),
(958,1275,o),
(958,1119,cs,{name = ._.2631350382080;}),
(958,965,o),
(822,938,o),
(704,938,cs,{name = ._.2631350383520;}),
(636,938,l)
);
}
);
width = 1448;
},
{
anchors = (
{
name = bottom;
position = "{716, 0}";
},
{
name = top;
position = "{716, 1650}";
}
);
hints = (
{
horizontal = 1;
origin = (0,2);
target = (1,7);
type = Stem;
},
{
horizontal = 1;
origin = (1,1);
target = (0,8);
type = Stem;
},
{
origin = (1,4);
target = (0,5);
type = Stem;
},
{
horizontal = 1;
origin = (0,10);
target = up;
type = BottomGhost;
},
{
origin = (0,9);
target = (1,0);
type = Stem;
}
);
layerId = "EF133E1C-A42C-4162-B993-78888479ABEC";
shapes = (
{
closed = 1;
nodes = (
(588,0,l),
(588,612,l),
(814,612,ls,{name = ._.2631350385040;}),
(1135,612,o),
(1377,790,o),
(1377,1131,cs,{name = ._.2631350388480;}),
(1377,1472,o),
(1135,1650,o),
(814,1650,cs,{name = ._.2631350385600;}),
(212,1650,l,{name = ._.2631350388720;}),
(212,0,l,{name = ._.2631350388560;})
);
},
{
closed = 1;
nodes = (
(588,1350,l,{name = ._.2631350386880;}),
(694,1350,ls,{name = ._.2631350387680;}),
(841,1350,o),
(982,1300,o),
(982,1131,cs,{name = ._.2631350385680;}),
(982,963,o),
(841,912,o),
(694,912,cs,{name = ._.2631350386960;}),
(588,912,l)
);
}
);
width = 1431;
},
{
anchors = (
{
name = bottom;
position = "{708, 0}";
},
{
name = top;
position = "{708, 1650}";
}
);
hints = (
{
horizontal = 1;
origin = (0,2);
target = (1,7);
type = Stem;
},
{
horizontal = 1;
origin = (1,1);
target = (0,8);
type = Stem;
},
{
origin = (1,4);
target = (0,5);
type = Stem;
},
{
horizontal = 1;
origin = (0,10);
target = up;
type = BottomGhost;
},
{
origin = (0,9);
target = (1,0);
type = Stem;
}
);
layerId = "11DBA8EB-E381-4810-A5CC-CC1A00595979";
shapes = (
{
closed = 1;
nodes = (
(537,0,l),
(537,638,l),
(778,638,ls,{name = ._.2631350390240;}),
(1100,638,o),
(1330,818,o),
(1330,1144,cs,{name = ._.2631350392560;}),
(1330,1470,o),
(1100,1650,o),
(778,1650,cs,{name = ._.2631350391120;}),
(229,1650,l,{name = ._.2631350391600;}),
(229,0,l,{name = ._.2631350392080;})
);
},
{
closed = 1;
nodes = (
(537,1404,l,{name = ._.2631350391760;}),
(684,1404,ls,{name = ._.2631350391440;}),
(861,1404,o),
(1008,1328,o),
(1008,1144,cs,{name = ._.2631350390400;}),
(1008,960,o),
(861,884,o),
(684,884,cs,{name = ._.2631350391840;}),
(537,884,l)
);
}
);
width = 1412;
},
{
anchors = (
{
name = bottom;
position = "{699, 0}";
},
{
name = top;
position = "{699, 1650}";
}
);
hints = (
{
horizontal = 1;
origin = (0,2);
target = (1,7);
type = Stem;
},
{
horizontal = 1;
origin = (1,1);
target = (0,8);
type = Stem;
},
{
origin = (1,4);
target = (0,5);
type = Stem;
},
{
horizontal = 1;
origin = (0,10);
target = up;
type = BottomGhost;
},
{
origin = (0,9);
target = (1,0);
type = Stem;
}
);
layerId = "226AFDD0-2700-445C-A4CF-7C4B26695C22";
shapes = (
{
closed = 1;
nodes = (
(494,0,l),
(494,660,l),
(748,660,ls,{name = ._.2631350395200;}),
(1070,660,o),
(1290,842,o),
(1290,1155,cs,{name = ._.2631350397120;}),
(1290,1468,o),
(1070,1650,o),
(748,1650,cs,{name = ._.2631350394320;}),
(244,1650,l,{name = ._.2631350397280;}),
(244,0,l,{name = ._.2631350395920;})
);
},
{
closed = 1;
nodes = (
(494,1450,l,{name = ._.2631350396400;}),
(675,1450,ls,{name = ._.2631350398480;}),
(879,1450,o),
(1030,1352,o),
(1030,1155,cs,{name = ._.2631350394880;}),
(1030,958,o),
(879,860,o),
(675,860,cs,{name = ._.2631350395120;}),
(494,860,l)
);
}
);
width = 1396;
},
{
anchors = (
{
name = bottom;
position = "{692, 0}";
},
{
name = top;
position = "{692, 1650}";
}
);
hints = (
{
horizontal = 1;
origin = (0,2);
target = (1,7);
type = Stem;
},
{
horizontal = 1;
origin = (1,1);
target = (0,8);
type = Stem;
},
{
origin = (1,4);
target = (0,5);
type = Stem;
},
{
horizontal = 1;
origin = (0,10);
target = up;
type = BottomGhost;
},
{
origin = (0,9);
target = (1,0);
type = Stem;
}
);
layerId = "8E8E586A-81E9-433C-8BD9-4265646900C1";
shapes = (
{
closed = 1;
nodes = (
(460,0,l),
(460,678,l),
(724,678,ls,{name = ._.2631350399520;}),
(1047,678,o),
(1259,862,o),
(1259,1164,cs,{name = ._.2631350400240;}),
(1259,1466,o),
(1047,1650,o),
(724,1650,cs,{name = ._.2631350402880;}),
(256,1650,l,{name = ._.2631350403840;}),
(256,0,l,{name = ._.2631350402720;})
);
},
{
closed = 1;
nodes = (
(460,1486,l,{name = ._.2631350404080;}),
(669,1486,ls,{name = ._.2631350403920;}),
(893,1486,o),
(1048,1371,o),
(1048,1164,cs,{name = ._.2631350401760;}),
(1048,957,o),
(893,842,o),
(669,842,cs,{name = ._.2631350399600;}),
(460,842,l)
);
}
);
width = 1383;
},
{
anchors = (
{
name = bottom;
position = "{684, 0}";
},
{
name = top;
position = "{684, 1650}";
}
);
hints = (
{
horizontal = 1;
origin = (0,2);
target = (1,7);
type = Stem;
},
{
horizontal = 1;
origin = (1,1);
target = (0,8);
type = Stem;
},
{
origin = (1,4);
target = (0,5);
type = Stem;
},
{
horizontal = 1;
origin = (0,10);
target = up;
type = BottomGhost;
},
{
origin = (0,9);
target = (1,0);
type = Stem;
}
);
layerId = "24B4D503-66A8-4B4A-943D-7DAB8AE883B0";
shapes = (
{
closed = 1;
nodes = (
(417,0,l),
(417,700,l),
(694,700,ls,{name = ._.2631350408400;}),
(1017,700,o),
(1218,885,o),
(1218,1175,cs,{name = ._.2631350405600;}),
(1218,1465,o),
(1017,1650,o),
(694,1650,cs,{name = ._.2631350407040;}),
(271,1650,l,{name = ._.2631350404880;}),
(271,0,l,{name = ._.2631350407120;})
);
},
{
closed = 1;
nodes = (
(417,1531,l,{name = ._.2631350405680;}),
(661,1531,ls,{name = ._.2631350408000;}),
(910,1531,o),
(1070,1395,o),
(1070,1175,cs,{name = ._.2631350407600;}),
(1070,955,o),
(910,819,o),
(661,819,cs,{name = ._.2631350404480;}),
(417,819,l)
);
}
);
width = 1367;
},
{
anchors = (
{
name = bottom;
position = "{678, 0}";
},
{
name = top;
position = "{678, 1650}";
}
);
hints = (
{
horizontal = 1;
origin = (0,2);
target = (1,7);
type = Stem;
},
{
horizontal = 1;
origin = (1,1);
target = (0,8);
type = Stem;
},
{
origin = (1,4);
target = (0,5);
type = Stem;
},
{
horizontal = 1;
origin = (0,10);
target = up;
type = BottomGhost;
},
{
origin = (0,9);
target = (1,0);
type = Stem;
}
);
layerId = "E09A619D-4294-46CA-BAB2-AF903DA4D17A";
shapes = (
{
closed = 1;
nodes = (
(387,0,l),
(387,716,l),
(673,716,ls,{name = ._.2631350412560;}),
(997,716,o),
(1191,902,o),
(1191,1183,cs,{name = ._.2631350414000;}),
(1191,1464,o),
(997,1650,o),
(673,1650,cs,{name = ._.2631350414560;}),
(281,1650,l,{name = ._.2631350411520;}),
(281,0,l,{name = ._.2631350411680;})
);
},
{
closed = 1;
nodes = (
(387,1562,l,{name = ._.2631350413920;}),
(655,1562,ls,{name = ._.2631350409760;}),
(923,1562,o),
(1086,1412,o),
(1086,1183,cs,{name = ._.2631350413840;}),
(1086,954,o),
(923,804,o),
(655,804,cs,{name = ._.2631350412960;}),
(387,804,l)
);
}
);
width = 1356;
},
{
anchors = (
{
name = bottom;
position = "{675, 0}";
},
{
name = top;
position = "{675, 1650}";
}
);
hints = (
{
horizontal = 1;
origin = (0,2);
target = (1,7);
type = Stem;
},
{
horizontal = 1;
origin = (1,1);
target = (0,8);
type = Stem;
},
{
origin = (1,4);
target = (0,5);
type = Stem;
},
{
horizontal = 1;
origin = (0,10);
target = up;
type = BottomGhost;
},
{
origin = (0,9);
target = (1,0);
type = Stem;
}
);
layerId = "EF8C5D96-1952-40CF-ADD4-E541C160E9A9";
shapes = (
{
closed = 1;
nodes = (
(364,0,l),
(364,728,l),
(657,728,ls,{name = ._.2631350419200;}),
(981,728,o),
(1170,915,o),
(1170,1189,cs,{name = ._.2631350415920;}),
(1170,1463,o),
(981,1650,o),
(657,1650,cs,{name = ._.2631350418160;}),
(288,1650,l,{name = ._.2631350414960;}),
(288,0,l,{name = ._.2631350416880;})
);
},
{
closed = 1;
nodes = (
(364,1585,l,{name = ._.2631350419520;}),
(650,1585,ls,{name = ._.2631350419280;}),
(931,1585,o),
(1097,1424,o),
(1097,1189,cs,{name = ._.2631350415280;}),
(1097,954,o),
(931,793,o),
(650,793,cs,{name = ._.2631350419600;}),
(364,793,l)
);
}
);
width = 1348;
},
{
anchors = (
{
name = bottom;
position = "{672, 0}";
},
{
name = top;
position = "{672, 1650}";
}
);
hints = (
{
horizontal = 1;
origin = (0,2);
target = (1,7);
type = Stem;
},
{
horizontal = 1;
origin = (1,1);
target = (0,8);
type = Stem;
},
{
origin = (1,4);
target = (0,5);
type = Stem;
},
{
horizontal = 1;
origin = (0,10);
target = up;
type = BottomGhost;
},
{
origin = (0,9);
target = (1,0);
type = Stem;
}
);
layerId = "F24CAE32-9A56-4E55-8360-BB7561E69AAD";
shapes = (
{
closed = 1;
nodes = (
(349,0,l),
(349,736,l),
(647,736,ls,{name = ._.2631350421440;}),
(971,736,o),
(1157,924,o),
(1157,1193,cs,{name = ._.2631350423360;}),
(1157,1462,o),
(971,1650,o),
(647,1650,cs,{name = ._.2631350422400;}),
(293,1650,l,{name = ._.2631350420800;}),
(293,0,l,{name = ._.2631350424720;})
);
},
{
closed = 1;
nodes = (
(349,1600,l,{name = ._.2631350424160;}),
(647,1600,ls,{name = ._.2631350422000;}),
(937,1600,o),
(1105,1432,o),
(1105,1193,cs,{name = ._.2631350420400;}),
(1105,954,o),
(937,786,o),
(647,786,cs,{name = ._.2631350423440;}),
(349,786,l)
);
}
);
width = 1343;
}
);
unicode = 80;
},
{
color = (153, 255, 154, 255);
glyphname = Thorn;
leftMetricsKey = P;
rightMetricsKey = P;
layers = (
{
anchors = (
{
name = bottom;
position = "{724, 0}";
},
{
name = top;
position = "{724, 1650}";
}
);
hints = (
{
horizontal = 1;
origin = (0,2);
target = (1,7);
type = Stem;
},
{
horizontal = 1;
origin = (1,1);
target = (0,8);
type = Stem;
},
{
horizontal = 1;
origin = (0,11);
target = down;
type = TopGhost;
},
{
origin = (0,11);
target = (0,9);
type = Stem;
},
{
origin = (1,4);
target = (0,5);
type = Stem;
}
);
layerId = "0219FCCD-76EF-4311-8338-E1F0504E85BF";
shapes = (
{
closed = 1;
nodes = (
(636,0,l),
(636,296,l),
(848,296,ls,{name = ._.2631350427840;}),
(1168,296,o),
(1422,472,o),
(1422,827,cs,{name = ._.2631350429920;}),
(1422,1182,o),
(1168,1358,o),
(848,1358,cs,{name = ._.2631350427680;}),
(636,1358,l,{name = ._.2631350427920;}),
(636,1650,l),
(196,1650,l,{name = ._.2631350426960;}),
(196,0,l)
);
},
{
closed = 1;
nodes = (
(636,1008,l),
(704,1008,ls,{name = ._.2631350429120;}),
(822,1008,o),
(958,983,o),
(958,827,cs,{name = ._.2631350426880;}),
(958,673,o),
(822,646,o),
(704,646,cs,{name = ._.2631350425120;}),
(636,646,l)
);
}
);
width = 1448;
},
{
anchors = (
{
name = bottom;
position = "{715, 0}";
},
{
name = top;
position = "{715, 1650}";
}
);
hints = (
{
horizontal = 1;
origin = (0,2);
target = (1,7);
type = Stem;
},
{
horizontal = 1;
origin = (1,1);
target = (0,8);
type = Stem;
},
{
horizontal = 1;
origin = (0,11);
target = down;
type = TopGhost;
},
{
origin = (0,11);
target = (0,9);
type = Stem;
},
{
origin = (1,4);
target = (0,5);
type = Stem;
}
);
layerId = "EF133E1C-A42C-4162-B993-78888479ABEC";
shapes = (
{
closed = 1;
nodes = (
(588,0,l),
(588,306,l),
(814,306,ls,{name = ._.2631350432800;}),
(1135,306,o),
(1377,484,o),
(1377,825,cs,{name = ._.2631350432400;}),
(1377,1166,o),
(1135,1344,o),
(814,1344,cs,{name = ._.2631350431520;}),
(588,1344,l,{name = ._.2631350434080;}),
(588,1651,l),
(212,1651,l,{name = ._.2631350432480;}),
(212,0,l)
);
},
{
closed = 1;
nodes = (
(588,1044,l),
(694,1044,ls,{name = ._.2631350431680;}),
(841,1044,o),
(982,995,o),
(982,825,cs,{name = ._.2631350434160;}),
(982,657,o),
(841,606,o),
(694,606,cs,{name = ._.2631350431920;}),
(588,606,l)
);
}
);
width = 1431;
},
{
anchors = (
{
name = bottom;
position = "{706, 0}";
},
{
name = top;
position = "{706, 1650}";
}
);
hints = (
{
horizontal = 1;
origin = (0,2);
target = (1,7);
type = Stem;
},
{
horizontal = 1;
origin = (1,1);
target = (0,8);
type = Stem;
},
{
horizontal = 1;
origin = (0,11);
target = down;
type = TopGhost;
},
{
origin = (0,11);
target = (0,9);
type = Stem;
},
{
origin = (1,4);
target = (0,5);
type = Stem;
}
);
layerId = "11DBA8EB-E381-4810-A5CC-CC1A00595979";
shapes = (
{
closed = 1;
nodes = (
(537,0,l),
(537,317,l),
(778,317,ls,{name = ._.2631350435280;}),
(1100,317,o),
(1330,497,o),
(1330,823,cs,{name = ._.2631350437040;}),
(1330,1148,o),
(1100,1328,o),
(778,1328,cs,{name = ._.2631350438880;}),
(537,1328,l,{name = ._.2631350438000;}),
(537,1650,l),
(229,1650,l,{name = ._.2631350436480;}),
(229,0,l)
);
},
{
closed = 1;
nodes = (
(537,1082,l),
(684,1082,ls,{name = ._.2631350436960;}),
(861,1082,o),
(1008,1007,o),
(1008,823,cs,{name = ._.2631350439360;}),
(1008,639,o),
(861,563,o),
(684,563,cs,{name = ._.2631350435920;}),
(537,563,l)
);
}
);
width = 1412;
},
{
anchors = (
{
name = bottom;
position = "{698, 0}";
},
{
name = top;
position = "{698, 1650}";
}
);
hints = (
{
horizontal = 1;
origin = (0,2);
target = (1,7);
type = Stem;
},
{
horizontal = 1;
origin = (1,1);
target = (0,8);
type = Stem;
},
{
horizontal = 1;
origin = (0,11);
target = down;
type = TopGhost;
},
{
origin = (0,11);
target = (0,9);
type = Stem;
},
{
origin = (1,4);
target = (0,5);
type = Stem;
}
);
layerId = "226AFDD0-2700-445C-A4CF-7C4B26695C22";
shapes = (
{
closed = 1;
nodes = (
(494,0,l),
(494,326,l),
(748,326,ls,{name = ._.2631350442960;}),
(1070,326,o),
(1290,508,o),
(1290,821,cs,{name = ._.2631350442080;}),
(1290,1133,o),
(1070,1315,o),
(748,1315,cs,{name = ._.2631350443440;}),
(494,1315,l,{name = ._.2631350443680;}),
(494,1650,l),
(244,1650,l,{name = ._.2631350444240;}),
(244,0,l)
);
},
{
closed = 1;
nodes = (
(494,1115,l),
(675,1115,ls,{name = ._.2631350440320;}),
(879,1115,o),
(1030,1018,o),
(1030,821,cs,{name = ._.2631350444400;}),
(1030,624,o),
(879,526,o),
(675,526,cs,{name = ._.2631350444640;}),
(494,526,l)
);
}
);
width = 1396;
},
{
anchors = (
{
name = bottom;
position = "{692, 0}";
},
{
name = top;
position = "{692, 1650}";
}
);
hints = (
{
horizontal = 1;
origin = (0,2);
target = (1,7);
type = Stem;
},
{
horizontal = 1;
origin = (1,1);
target = (0,8);
type = Stem;
},
{
horizontal = 1;
origin = (0,11);
target = down;
type = TopGhost;
},
{
origin = (0,11);
target = (0,9);
type = Stem;
},
{
origin = (1,4);
target = (0,5);
type = Stem;
}
);
layerId = "8E8E586A-81E9-433C-8BD9-4265646900C1";
shapes = (
{
closed = 1;
nodes = (
(460,0,l),
(460,333,l),
(724,333,ls,{name = ._.2631350445600;}),
(1047,333,o),
(1259,517,o),
(1259,819,cs,{name = ._.2631350446640;}),
(1259,1121,o),
(1047,1305,o),
(724,1305,cs,{name = ._.2631350445920;}),
(460,1305,l,{name = ._.2631350448560;}),
(460,1650,l),
(256,1650,l,{name = ._.2631350446000;}),
(256,0,l)
);
},
{
closed = 1;
nodes = (
(460,1141,l),
(669,1141,ls,{name = ._.2631350449280;}),
(893,1141,o),
(1048,1026,o),
(1048,819,cs,{name = ._.2631350449760;}),
(1048,612,o),
(893,497,o),
(669,497,cs,{name = ._.2631350450160;}),
(460,497,l)
);
}
);
width = 1383;
},
{
anchors = (
{
name = bottom;
position = "{684, 0}";
},
{
name = top;
position = "{684, 1650}";
}
);
hints = (
{
horizontal = 1;
origin = (0,2);
target = (1,7);
type = Stem;
},
{
horizontal = 1;
origin = (1,1);
target = (0,8);
type = Stem;
},
{
horizontal = 1;
origin = (0,11);
target = down;
type = TopGhost;
},
{
origin = (0,11);
target = (0,9);
type = Stem;
},
{
origin = (1,4);
target = (0,5);
type = Stem;
}
);
layerId = "24B4D503-66A8-4B4A-943D-7DAB8AE883B0";
shapes = (
{
closed = 1;
nodes = (
(417,0,l),
(417,343,l),
(694,343,ls,{name = ._.2631350452000;}),
(1017,343,o),
(1218,528,o),
(1218,818,cs,{name = ._.2631350452400;}),
(1218,1107,o),
(1017,1292,o),
(694,1292,cs,{name = ._.2631350454640;}),
(417,1292,l,{name = ._.2631350454800;}),
(417,1650,l),
(271,1650,l,{name = ._.2631350455200;}),
(271,0,l)
);
},
{
closed = 1;
nodes = (
(417,1173,l),
(661,1173,ls,{name = ._.2631350455360;}),
(910,1173,o),
(1070,1037,o),
(1070,818,cs,{name = ._.2631350455520;}),
(1070,598,o),
(910,462,o),
(661,462,cs,{name = ._.2631350450960;}),
(417,462,l)
);
}
);
width = 1367;
},
{
anchors = (
{
name = bottom;
position = "{678, 0}";
},
{
name = top;
position = "{678, 1650}";
}
);
hints = (
{
horizontal = 1;
origin = (0,2);
target = (1,7);
type = Stem;
},
{
horizontal = 1;
origin = (1,1);
target = (0,8);
type = Stem;
},
{
horizontal = 1;
origin = (0,11);
target = down;
type = TopGhost;
},
{
origin = (0,11);
target = (0,9);
type = Stem;
},
{
origin = (1,4);
target = (0,5);
type = Stem;
}
);
layerId = "E09A619D-4294-46CA-BAB2-AF903DA4D17A";
shapes = (
{
closed = 1;
nodes = (
(387,0,l),
(387,350,l),
(673,350,ls,{name = ._.2631350456080;}),
(997,350,o),
(1191,536,o),
(1191,817,cs,{name = ._.2631350456160;}),
(1191,1097,o),
(997,1283,o),
(673,1283,cs,{name = ._.2631350457760;}),
(387,1283,l,{name = ._.2631350460320;}),
(387,1650,l),
(281,1650,l,{name = ._.2631350456720;}),
(281,0,l)
);
},
{
closed = 1;
nodes = (
(387,1195,l),
(655,1195,ls,{name = ._.2631350456800;}),
(923,1195,o),
(1086,1045,o),
(1086,817,cs,{name = ._.2631350455760;}),
(1086,588,o),
(923,438,o),
(655,438,cs,{name = ._.2631350456000;}),
(387,438,l)
);
}
);
width = 1356;
},
{
anchors = (
{
name = bottom;
position = "{675, 0}";
},
{
name = top;
position = "{675, 1650}";
}
);
hints = (
{
horizontal = 1;
origin = (0,2);
target = (1,7);
type = Stem;
},
{
horizontal = 1;
origin = (1,1);
target = (0,8);
type = Stem;
},
{
horizontal = 1;
origin = (0,11);
target = down;
type = TopGhost;
},
{
origin = (0,11);
target = (0,9);
type = Stem;
},
{
origin = (1,4);
target = (0,5);
type = Stem;
}
);
layerId = "EF8C5D96-1952-40CF-ADD4-E541C160E9A9";
shapes = (
{
closed = 1;
nodes = (
(364,0,l),
(364,355,l),
(657,355,ls,{name = ._.2631350464400;}),
(981,355,o),
(1170,542,o),
(1170,816,cs,{name = ._.2631350464240;}),
(1170,1089,o),
(981,1276,o),
(657,1276,cs,{name = ._.2631350460800;}),
(364,1276,l,{name = ._.2631350465440;}),
(364,1650,l),
(288,1650,l,{name = ._.2631350464560;}),
(288,0,l)
);
},
{
closed = 1;
nodes = (
(364,1211,l),
(650,1211,ls,{name = ._.2631350464800;}),
(931,1211,o),
(1097,1050,o),
(1097,816,cs,{name = ._.2631350465120;}),
(1097,581,o),
(931,420,o),
(650,420,cs,{name = ._.2631350465760;}),
(364,420,l)
);
}
);
width = 1348;
},
{
anchors = (
{
name = bottom;
position = "{672, 0}";
},
{
name = top;
position = "{672, 1650}";
}
);
hints = (
{
horizontal = 1;
origin = (0,2);
target = (1,7);
type = Stem;
},
{
horizontal = 1;
origin = (1,1);
target = (0,8);
type = Stem;
},
{
horizontal = 1;
origin = (0,11);
target = down;
type = TopGhost;
},
{
origin = (0,11);
target = (0,9);
type = Stem;
},
{
origin = (1,4);
target = (0,5);
type = Stem;
}
);
layerId = "F24CAE32-9A56-4E55-8360-BB7561E69AAD";
shapes = (
{
closed = 1;
nodes = (
(349,0,l),
(349,358,l),
(647,358,ls,{name = ._.2631350469600;}),
(971,358,o),
(1157,546,o),
(1157,815,cs,{name = ._.2631350469200;}),
(1157,1084,o),
(971,1272,o),
(647,1272,cs,{name = ._.2631350468480;}),
(349,1272,l,{name = ._.2631350466640;}),
(349,1650,l),
(293,1650,l,{name = ._.2631350470480;}),
(293,0,l)
);
},
{
closed = 1;
nodes = (
(349,1222,l),
(647,1222,ls,{name = ._.2631350467040;}),
(937,1222,o),
(1105,1054,o),
(1105,815,cs,{name = ._.2631350468320;}),
(1105,576,o),
(937,408,o),
(647,408,cs,{name = ._.2631350471360;}),
(349,408,l)
);
}
);
width = 1343;
}
);
unicode = 222;
},
{
color = (153, 255, 154, 255);
glyphname = Q;
layers = (
{
layerId = "0219FCCD-76EF-4311-8338-E1F0504E85BF";
shapes = (
{
closed = 1;
nodes = (
(768,614,l),
(957,339,o),
(1304,72,o),
(1636,-54,c),
(1830,338,l),
(1458,434,o),
(1189,585,o),
(993,807,c)
);
},
{
alignment = -1;
ref = O;
}
);
width = 1871;
},
{
layerId = "EF133E1C-A42C-4162-B993-78888479ABEC";
shapes = (
{
closed = 1;
nodes = (
(824,587,l),
(1016,323,o),
(1350,69,o),
(1668,-54,c),
(1834,281,l),
(1486,377,o),
(1218,532,o),
(1018,751,c)
);
},
{
alignment = -1;
pos = (-7,0);
ref = O;
}
);
width = 1895;
},
{
layerId = "11DBA8EB-E381-4810-A5CC-CC1A00595979";
shapes = (
{
closed = 1;
nodes = (
(884,558,l),
(1078,306,o),
(1398,65,o),
(1703,-54,c),
(1839,221,l),
(1515,316,o),
(1249,475,o),
(1044,691,c)
);
},
{
alignment = -1;
pos = (-14,-1);
ref = O;
}
);
width = 1921;
},
{
layerId = "226AFDD0-2700-445C-A4CF-7C4B26695C22";
shapes = (
{
closed = 1;
nodes = (
(935,533,l),
(1131,292,o),
(1440,62,o),
(1732,-54,c),
(1843,170,l),
(1540,264,o),
(1276,426,o),
(1066,640,c)
);
},
{
alignment = -1;
pos = (-20,-1);
ref = O;
}
);
width = 1943;
},
{
layerId = "8E8E586A-81E9-433C-8BD9-4265646900C1";
shapes = (
{
closed = 1;
nodes = (
(975,513,l),
(1173,280,o),
(1473,59,o),
(1755,-54,c),
(1846,129,l),
(1560,223,o),
(1297,387,o),
(1084,599,c)
);
},
{
alignment = -1;
pos = (-25,-1);
ref = O;
}
);
width = 1961;
},
{
layerId = "24B4D503-66A8-4B4A-943D-7DAB8AE883B0";
shapes = (
{
closed = 1;
nodes = (
(1026,489,l),
(1223,265,o),
(1509,56,o),
(1785,-54,c),
(1847,78,l),
(1574,172,o),
(1308,347,o),
(1104,551,c)
);
},
{
alignment = -1;
pos = (-31,-1);
ref = O;
}
);
width = 1983;
},
{
layerId = "E09A619D-4294-46CA-BAB2-AF903DA4D17A";
shapes = (
{
closed = 1;
nodes = (
(1061,472,l),
(1257,255,o),
(1533,54,o),
(1805,-54,c),
(1848,43,l),
(1583,136,o),
(1315,320,o),
(1117,518,c)
);
},
{
alignment = -1;
pos = (-36,-1);
ref = O;
}
);
width = 1999;
},
{
layerId = "EF8C5D96-1952-40CF-ADD4-E541C160E9A9";
shapes = (
{
closed = 1;
nodes = (
(1087,459,l),
(1283,247,o),
(1552,53,o),
(1820,-54,c),
(1849,17,l),
(1590,110,o),
(1320,300,o),
(1127,493,c)
);
},
{
alignment = -1;
pos = (-39,-1);
ref = O;
}
);
width = 2010;
},
{
layerId = "F24CAE32-9A56-4E55-8360-BB7561E69AAD";
shapes = (
{
closed = 1;
nodes = (
(1104,450,l),
(1300,242,o),
(1564,52,o),
(1830,-54,c),
(1849,0,l),
(1595,92,o),
(1324,286,o),
(1134,476,c)
);
},
{
alignment = -1;
pos = (-41,-1);
ref = O;
}
);
width = 2018;
}
);
unicode = 81;
},
{
color = (153, 255, 154, 255);
glyphname = R;
layers = (
{
anchors = (
{
name = bottom;
position = "{792, 0}";
},
{
name = top;
position = "{792, 1650}";
}
);
hints = (
{
horizontal = 1;
origin = (0,1);
target = (1,11);
type = Stem;
},
{
horizontal = 1;
origin = (1,2);
target = (0,7);
type = Stem;
},
{
origin = (1,12);
target = (0,0);
type = Stem;
},
{
horizontal = 1;
origin = (1,13);
target = up;
type = BottomGhost;
},
{
origin = (0,4);
target = (1,8);
type = Stem;
}
);
layerId = "0219FCCD-76EF-4311-8338-E1F0504E85BF";
shapes = (
{
closed = 1;
nodes = (
(636,1300,l,{name = ._.2631366143312;}),
(704,1300,ls,{name = ._.2631366145552;}),
(822,1300,o),
(958,1282,o),
(958,1129,cs,{name = ._.2631366146992;}),
(958,978,o),
(822,957,o),
(704,957,cs,{name = ._.2631366142272;}),
(636,957,l)
);
},
{
closed = 1;
nodes = (
(636,0,l),
(636,572,l),
(637,572,l,{name = ._.2631366148992;}),
(1080,0,l),
(1638,0,l),
(1088,645,l),
(1286,713,o),
(1422,874,o),
(1422,1129,cs,{name = ._.2631366150592;}),
(1422,1477,o),
(1168,1650,o),
(848,1650,cs,{name = ._.2631366147472;}),
(196,1650,l,{name = ._.2631366152112;}),
(196,0,l,{name = ._.2631366149152;})
);
}
);
width = 1584;
},
{
anchors = (
{
name = bottom;
position = "{771, 0}";
},
{
name = top;
position = "{771, 1650}";
}
);
hints = (
{
horizontal = 1;
origin = (0,1);
target = (1,11);
type = Stem;
},
{
horizontal = 1;
origin = (1,2);
target = (0,7);
type = Stem;
},
{
origin = (1,12);
target = (0,0);
type = Stem;
},
{
horizontal = 1;
origin = (1,13);
target = up;
type = BottomGhost;
},
{
origin = (0,4);
target = (1,8);
type = Stem;
}
);
layerId = "EF133E1C-A42C-4162-B993-78888479ABEC";
shapes = (
{
closed = 1;
nodes = (
(588,1350,l,{name = ._.2631366152192;}),
(695,1350,ls,{name = ._.2631366150912;}),
(845,1350,o),
(982,1305,o),
(982,1139,cs,{name = ._.2631366148192;}),
(982,975,o),
(845,927,o),
(695,927,cs,{name = ._.2631366148352;}),
(588,927,l)
);
},
{
closed = 1;
nodes = (
(588,0,l),
(588,599,l),
(631,599,l,{name = ._.2631366156192;}),
(1092,0,l),
(1569,0,l),
(1021,658,l),
(1236,718,o),
(1378,882,o),
(1378,1139,cs,{name = ._.2631366154512;}),
(1378,1474,o),
(1136,1650,o),
(815,1650,cs,{name = ._.2631366156272;}),
(212,1650,l,{name = ._.2631366156432;}),
(212,0,l,{name = ._.2631366157072;})
);
}
);
width = 1543;
},
{
anchors = (
{
name = bottom;
position = "{749, 0}";
},
{
name = top;
position = "{749, 1650}";
}
);
hints = (
{
horizontal = 1;
origin = (0,1);
target = (1,11);
type = Stem;
},
{
horizontal = 1;
origin = (1,2);
target = (0,7);
type = Stem;
},
{
origin = (1,12);
target = (0,0);
type = Stem;
},
{
horizontal = 1;
origin = (1,13);
target = up;
type = BottomGhost;
},
{
origin = (0,4);
target = (1,8);
type = Stem;
}
);
layerId = "11DBA8EB-E381-4810-A5CC-CC1A00595979";
shapes = (
{
closed = 1;
nodes = (
(537,1404,l,{name = ._.2631366152832;}),
(685,1404,ls,{name = ._.2631366152912;}),
(869,1404,o),
(1008,1329,o),
(1008,1150,cs,{name = ._.2631366153312;}),
(1008,972,o),
(869,895,o),
(685,895,cs,{name = ._.2631366161952;}),
(537,895,l)
);
},
{
closed = 1;
nodes = (
(537,0,l),
(537,628,l),
(624,628,l,{name = ._.2631366158912;}),
(1105,0,l),
(1496,0,l),
(949,671,l),
(1182,723,o),
(1331,891,o),
(1331,1150,cs,{name = ._.2631366161392;}),
(1331,1470,o),
(1103,1650,o),
(779,1650,cs,{name = ._.2631366158432;}),
(229,1650,l,{name = ._.2631366159152;}),
(229,0,l,{name = ._.2631366158672;})
);
}
);
width = 1499;
},
{
anchors = (
{
name = bottom;
position = "{730, 0}";
},
{
name = top;
position = "{730, 1650}";
}
);
hints = (
{
horizontal = 1;
origin = (0,1);
target = (1,11);
type = Stem;
},
{
horizontal = 1;
origin = (1,2);
target = (0,7);
type = Stem;
},
{
origin = (1,12);
target = (0,0);
type = Stem;
},
{
horizontal = 1;
origin = (1,13);
target = up;
type = BottomGhost;
},
{
origin = (0,4);
target = (1,8);
type = Stem;
}
);
layerId = "226AFDD0-2700-445C-A4CF-7C4B26695C22";
shapes = (
{
closed = 1;
nodes = (
(494,1450,l,{name = ._.2631366159792;}),
(676,1450,ls,{name = ._.2631366167632;}),
(890,1450,o),
(1030,1349,o),
(1030,1159,cs,{name = ._.2631366164752;}),
(1030,969,o),
(890,868,o),
(676,868,cs,{name = ._.2631366162992;}),
(494,868,l)
);
},
{
closed = 1;
nodes = (
(494,0,l),
(494,653,l),
(618,653,l,{name = ._.2631366165232;}),
(1116,0,l),
(1434,0,l),
(888,682,l),
(1136,727,o),
(1291,898,o),
(1291,1159,cs,{name = ._.2631366166352;}),
(1291,1467,o),
(1075,1650,o),
(748,1650,cs,{name = ._.2631366164592;}),
(244,1650,l,{name = ._.2631366167232;}),
(244,0,l,{name = ._.2631366167472;})
);
}
);
width = 1462;
},
{
anchors = (
{
name = bottom;
position = "{716, 0}";
},
{
name = top;
position = "{716, 1650}";
}
);
hints = (
{
horizontal = 1;
origin = (0,1);
target = (1,11);
type = Stem;
},
{
horizontal = 1;
origin = (1,2);
target = (0,7);
type = Stem;
},
{
origin = (1,12);
target = (0,0);
type = Stem;
},
{
horizontal = 1;
origin = (1,13);
target = up;
type = BottomGhost;
},
{
origin = (0,4);
target = (1,8);
type = Stem;
}
);
layerId = "8E8E586A-81E9-433C-8BD9-4265646900C1";
shapes = (
{
closed = 1;
nodes = (
(460,1486,l,{name = ._.2631366169232;}),
(669,1486,ls,{name = ._.2631366171792;}),
(907,1486,o),
(1048,1365,o),
(1048,1166,cs,{name = ._.2631366172272;}),
(1048,967,o),
(907,846,o),
(669,846,cs,{name = ._.2631366170592;}),
(460,846,l)
);
},
{
closed = 1;
nodes = (
(460,0,l),
(460,673,l),
(614,673,l,{name = ._.2631366168352;}),
(1125,0,l),
(1384,0,l),
(840,691,l),
(1100,730,o),
(1259,904,o),
(1259,1166,cs,{name = ._.2631366168912;}),
(1259,1465,o),
(1052,1650,o),
(724,1650,cs,{name = ._.2631366169632;}),
(256,1650,l,{name = ._.2631366170032;}),
(256,0,l,{name = ._.2631366170112;})
);
}
);
width = 1432;
},
{
anchors = (
{
name = bottom;
position = "{696, 0}";
},
{
name = top;
position = "{696, 1650}";
}
);
hints = (
{
horizontal = 1;
origin = (0,1);
target = (1,11);
type = Stem;
},
{
horizontal = 1;
origin = (1,2);
target = (0,7);
type = Stem;
},
{
origin = (1,12);
target = (0,0);
type = Stem;
},
{
horizontal = 1;
origin = (1,13);
target = up;
type = BottomGhost;
},
{
origin = (0,4);
target = (1,8);
type = Stem;
}
);
layerId = "24B4D503-66A8-4B4A-943D-7DAB8AE883B0";
shapes = (
{
closed = 1;
nodes = (
(417,1531,l,{name = ._.2631366177152;}),
(660,1531,ls,{name = ._.2631366176512;}),
(919,1531,o),
(1070,1393,o),
(1070,1180,cs,{name = ._.2631366175072;}),
(1070,966,o),
(919,828,o),
(660,828,cs,{name = ._.2631366176752;}),
(417,828,l)
);
},
{
closed = 1;
nodes = (
(417,0,l),
(417,703,l),
(604,703,l,{name = ._.2631366173472;}),
(1136,0,l),
(1321,0,l),
(770,715,l),
(1035,738,o),
(1219,906,o),
(1219,1180,cs,{name = ._.2631366176592;}),
(1219,1465,o),
(1020,1650,o),
(694,1650,cs,{name = ._.2631366174832;}),
(271,1650,l,{name = ._.2631366177472;}),
(271,0,l,{name = ._.2631366177712;})
);
}
);
width = 1394;
},
{
anchors = (
{
name = bottom;
position = "{684, 0}";
},
{
name = top;
position = "{684, 1650}";
}
);
hints = (
{
horizontal = 1;
origin = (0,1);
target = (1,11);
type = Stem;
},
{
horizontal = 1;
origin = (1,2);
target = (0,7);
type = Stem;
},
{
origin = (1,12);
target = (0,0);
type = Stem;
},
{
horizontal = 1;
origin = (1,13);
target = up;
type = BottomGhost;
},
{
origin = (0,4);
target = (1,8);
type = Stem;
}
);
layerId = "E09A619D-4294-46CA-BAB2-AF903DA4D17A";
shapes = (
{
closed = 1;
nodes = (
(387,1562,l,{name = ._.2631366182272;}),
(654,1562,ls,{name = ._.2631366179152;}),
(927,1562,o),
(1086,1412,o),
(1086,1189,cs,{name = ._.2631366180432;}),
(1086,966,o),
(927,816,o),
(654,816,cs,{name = ._.2631366179712;}),
(387,816,l)
);
},
{
closed = 1;
nodes = (
(387,0,l),
(387,724,l),
(597,724,l,{name = ._.2631366182512;}),
(1143,0,l),
(1278,0,l),
(721,731,l),
(991,744,o),
(1192,907,o),
(1192,1189,cs,{name = ._.2631366181312;}),
(1192,1465,o),
(998,1650,o),
(673,1650,cs,{name = ._.2631366182352;}),
(281,1650,l,{name = ._.2631366181632;}),
(281,0,l,{name = ._.2631366179232;})
);
}
);
width = 1368;
},
{
anchors = (
{
name = bottom;
position = "{674, 0}";
},
{
name = top;
position = "{674, 1650}";
}
);
hints = (
{
horizontal = 1;
origin = (0,1);
target = (1,11);
type = Stem;
},
{
horizontal = 1;
origin = (1,2);
target = (0,7);
type = Stem;
},
{
origin = (1,12);
target = (0,0);
type = Stem;
},
{
horizontal = 1;
origin = (1,13);
target = up;
type = BottomGhost;
},
{
origin = (0,4);
target = (1,8);
type = Stem;
}
);
layerId = "EF8C5D96-1952-40CF-ADD4-E541C160E9A9";
shapes = (
{
closed = 1;
nodes = (
(364,1585,l,{name = ._.2631366187872;}),
(650,1585,ls,{name = ._.2631366185712;}),
(933,1585,o),
(1097,1426,o),
(1097,1196,cs,{name = ._.2631366185472;}),
(1097,966,o),
(933,807,o),
(650,807,cs,{name = ._.2631366184352;}),
(364,807,l)
);
},
{
closed = 1;
nodes = (
(364,0,l),
(364,740,l),
(592,740,l,{name = ._.2631366183392;}),
(1149,0,l),
(1246,0,l),
(684,743,l),
(957,748,o),
(1171,908,o),
(1171,1196,cs,{name = ._.2631366185952;}),
(1171,1465,o),
(982,1650,o),
(657,1650,cs,{name = ._.2631366186192;}),
(288,1650,l,{name = ._.2631366185072;}),
(288,0,l,{name = ._.2631366185232;})
);
}
);
width = 1349;
},
{
anchors = (
{
name = bottom;
position = "{668, 0}";
},
{
name = top;
position = "{668, 1650}";
}
);
hints = (
{
horizontal = 1;
origin = (0,1);
target = (1,11);
type = Stem;
},
{
horizontal = 1;
origin = (1,2);
target = (0,7);
type = Stem;
},
{
origin = (1,12);
target = (0,0);
type = Stem;
},
{
horizontal = 1;
origin = (1,13);
target = up;
type = BottomGhost;
},
{
origin = (0,4);
target = (1,8);
type = Stem;
}
);
layerId = "F24CAE32-9A56-4E55-8360-BB7561E69AAD";
shapes = (
{
closed = 1;
nodes = (
(349,1600,l,{name = ._.2631366190752;}),
(647,1600,ls,{name = ._.2631366192432;}),
(937,1600,o),
(1105,1436,o),
(1105,1201,cs,{name = ._.2631366190032;}),
(1105,966,o),
(937,801,o),
(647,801,cs,{name = ._.2631366191872;}),
(349,801,l)
);
},
{
closed = 1;
nodes = (
(349,0,l),
(349,751,l),
(588,751,l,{name = ._.2631366192272;}),
(1153,0,l),
(1225,0,l),
(660,751,l),
(935,751,o),
(1157,909,o),
(1157,1201,cs,{name = ._.2631366191152;}),
(1157,1465,o),
(971,1650,o),
(647,1650,cs,{name = ._.2631366191792;}),
(293,1650,l,{name = ._.2631366191952;}),
(293,0,l,{name = ._.2631366192592;})
);
}
);
width = 1336;
}
);
unicode = 82;
},
